<?xml version='1.0' encoding='UTF-8' standalone='no'?>
<svg xmlns:xlink="http://www.w3.org/1999/xlink" viewBox="0 0 571 403" height="403pt" xmlns="http://www.w3.org/2000/svg" width="571pt">
 <title>Figure 1</title>
 <desc>
Creator: GL2PS 1.4.2, (C) 1999-2020 C. Geuzaine
For: Octave
CreationDate: Wed Apr  5 15:31:12 2023
</desc>
 <defs/>
 <polygon fill="#ffffff" points="0,0 571,0 571,403 0,403"/>
 <g>
  <polygon shape-rendering="crispEdges" fill="#ffffff" points="0,403 571,403 571,0 0,0"/>
  <clipPath id="cp00571403">
   <polygon points="0,403 571,403 571,0 0,0"/>
  </clipPath>
  <g clip-path="url(#cp00571403)">
   <polygon shape-rendering="crispEdges" fill="#ffffff" points="74.253,279.712 516.915,279.712 516.915,30.2454 74.253,30.2454"/>
   <polyline stroke-linecap="butt" stroke="#262626" fill="none" stroke-width="0.5" points="74.253,279.712 74.253,275.277" stroke-linejoin="miter"/>
   <polyline stroke-linecap="butt" stroke="#262626" fill="none" stroke-width="0.5" points="74.253,30.2454 74.253,34.6803" stroke-linejoin="miter"/>
   <polyline stroke-linecap="butt" stroke="#262626" fill="none" stroke-width="0.5" points="184.918,279.712 184.918,275.277" stroke-linejoin="miter"/>
   <polyline stroke-linecap="butt" stroke="#262626" fill="none" stroke-width="0.5" points="184.918,30.2454 184.918,34.6803" stroke-linejoin="miter"/>
   <polyline stroke-linecap="butt" stroke="#262626" fill="none" stroke-width="0.5" points="295.584,279.712 295.584,275.277" stroke-linejoin="miter"/>
   <polyline stroke-linecap="butt" stroke="#262626" fill="none" stroke-width="0.5" points="295.584,30.2454 295.584,34.6803" stroke-linejoin="miter"/>
   <polyline stroke-linecap="butt" stroke="#262626" fill="none" stroke-width="0.5" points="406.249,279.712 406.249,275.277" stroke-linejoin="miter"/>
   <polyline stroke-linecap="butt" stroke="#262626" fill="none" stroke-width="0.5" points="406.249,30.2454 406.249,34.6803" stroke-linejoin="miter"/>
   <polyline stroke-linecap="butt" stroke="#262626" fill="none" stroke-width="0.5" points="516.915,279.712 516.915,275.277" stroke-linejoin="miter"/>
   <polyline stroke-linecap="butt" stroke="#262626" fill="none" stroke-width="0.5" points="516.915,30.2454 516.915,34.6803" stroke-linejoin="miter"/>
   <g font-style="normal" xml:space="preserve" transform="translate(69.753,295.226) rotate(-0,4.5,-8)" font-family="FreeSans" font-weight="normal" font-size="10">
    <text x="0 3 " fill="rgb(38,38,38)" y="-0">-1</text>
   </g>
   <g font-style="normal" xml:space="preserve" transform="translate(175.918,295.226) rotate(-0,9,-8)" font-family="FreeSans" font-weight="normal" font-size="10">
    <text x="0 3 9 12 " fill="rgb(38,38,38)" y="-0">-0.5</text>
   </g>
   <g font-style="normal" xml:space="preserve" transform="translate(292.584,295.226) rotate(-0,3,-8)" font-family="FreeSans" font-weight="normal" font-size="10">
    <text x="0 " fill="rgb(38,38,38)" y="-0">0</text>
   </g>
   <g font-style="normal" xml:space="preserve" transform="translate(398.749,295.226) rotate(-0,7.5,-8)" font-family="FreeSans" font-weight="normal" font-size="10">
    <text x="0 6 9 " fill="rgb(38,38,38)" y="-0">0.5</text>
   </g>
   <g font-style="normal" xml:space="preserve" transform="translate(513.915,295.226) rotate(-0,3,-8)" font-family="FreeSans" font-weight="normal" font-size="10">
    <text x="0 " fill="rgb(38,38,38)" y="-0">1</text>
   </g>
   <polyline stroke-linecap="butt" stroke="#262626" fill="none" stroke-width="0.5" points="74.253,279.712 78.6762,279.712" stroke-linejoin="miter"/>
   <polyline stroke-linecap="butt" stroke="#262626" fill="none" stroke-width="0.5" points="516.915,279.712 512.492,279.712" stroke-linejoin="miter"/>
   <polyline stroke-linecap="butt" stroke="#262626" fill="none" stroke-width="0.5" points="74.253,217.345 78.6762,217.345" stroke-linejoin="miter"/>
   <polyline stroke-linecap="butt" stroke="#262626" fill="none" stroke-width="0.5" points="516.915,217.345 512.492,217.345" stroke-linejoin="miter"/>
   <polyline stroke-linecap="butt" stroke="#262626" fill="none" stroke-width="0.5" points="74.253,154.979 78.6762,154.979" stroke-linejoin="miter"/>
   <polyline stroke-linecap="butt" stroke="#262626" fill="none" stroke-width="0.5" points="516.915,154.979 512.492,154.979" stroke-linejoin="miter"/>
   <polyline stroke-linecap="butt" stroke="#262626" fill="none" stroke-width="0.5" points="74.253,92.612 78.6762,92.612" stroke-linejoin="miter"/>
   <polyline stroke-linecap="butt" stroke="#262626" fill="none" stroke-width="0.5" points="516.915,92.612 512.492,92.612" stroke-linejoin="miter"/>
   <polyline stroke-linecap="butt" stroke="#262626" fill="none" stroke-width="0.5" points="74.253,30.2454 78.6762,30.2454" stroke-linejoin="miter"/>
   <polyline stroke-linecap="butt" stroke="#262626" fill="none" stroke-width="0.5" points="516.915,30.2454 512.492,30.2454" stroke-linejoin="miter"/>
   <g font-style="normal" xml:space="preserve" transform="translate(60.2568,283.712) rotate(-0,9,-4)" font-family="FreeSans" font-weight="normal" font-size="10">
    <text x="0 3 " fill="rgb(38,38,38)" y="-0">-1</text>
   </g>
   <g font-style="normal" xml:space="preserve" transform="translate(51.2568,221.345) rotate(-0,18,-4)" font-family="FreeSans" font-weight="normal" font-size="10">
    <text x="0 3 9 12 " fill="rgb(38,38,38)" y="-0">-0.5</text>
   </g>
   <g font-style="normal" xml:space="preserve" transform="translate(63.2568,158.979) rotate(-0,6,-4)" font-family="FreeSans" font-weight="normal" font-size="10">
    <text x="0 " fill="rgb(38,38,38)" y="-0">0</text>
   </g>
   <g font-style="normal" xml:space="preserve" transform="translate(54.2568,96.612) rotate(-0,15,-4)" font-family="FreeSans" font-weight="normal" font-size="10">
    <text x="0 6 9 " fill="rgb(38,38,38)" y="-0">0.5</text>
   </g>
   <g font-style="normal" xml:space="preserve" transform="translate(63.2568,34.2454) rotate(-0,6,-4)" font-family="FreeSans" font-weight="normal" font-size="10">
    <text x="0 " fill="rgb(38,38,38)" y="-0">1</text>
   </g>
   <polyline stroke-linecap="square" stroke="#262626" fill="none" stroke-width="0.5" points="74.253,279.712 516.915,279.712" stroke-linejoin="miter" stroke-dasharray="16,0"/>
   <polyline stroke-linecap="square" stroke="#262626" fill="none" stroke-width="0.5" points="74.253,30.2454 516.915,30.2454" stroke-linejoin="miter" stroke-dasharray="16,0"/>
   <polyline stroke-linecap="square" stroke="#262626" fill="none" stroke-width="0.5" points="74.253,279.712 74.253,30.2454" stroke-linejoin="miter" stroke-dasharray="16,0"/>
   <polyline stroke-linecap="square" stroke="#262626" fill="none" stroke-width="0.5" points="516.915,279.712 516.915,30.2454" stroke-linejoin="miter" stroke-dasharray="16,0"/>
   <g font-style="normal" xml:space="preserve" transform="translate(294.084,308.226) rotate(-0,1.5,-8)" font-family="FreeSans" font-weight="normal" font-size="11">
    <text x="0 " fill="rgb(38,38,38)" y="-0">t</text>
   </g>
   <g font-style="normal" xml:space="preserve" transform="translate(43.7568,154.979) rotate(-90,2.5,0)" font-family="FreeSans" font-weight="normal" font-size="11">
    <text x="0 " fill="rgb(38,38,38)" y="-0">x</text>
   </g>
   <g font-style="normal" xml:space="preserve" transform="translate(215.584,20.2454) rotate(-0,80,0)" font-family="FreeSans" font-weight="bold" font-size="11">
    <text x="0 7 14 18 27 33 37 44 48 52 55 65 71 74 81 87 93 99 108 114 118 125 129 135 142 148 154 " fill="rgb(0,0,0)" y="-3">Forward-time backward-space</text>
   </g>
   <polyline stroke-linecap="butt" stroke="#00ff00" fill="none" stroke-width="0.5" points="74.253,273.607 74.4743,273.362 74.6956,273.113 74.917,272.859 75.1383,272.601 75.3596,272.338 75.581,272.07 75.8023,271.798 76.0236,271.521 76.2449,271.239 76.4663,270.953 76.6876,270.662 76.909,270.367 77.1303,270.067 77.3516,269.762 77.5729,269.453 77.7943,269.14 78.0156,268.822 78.2369,268.499 78.4583,268.172 78.6796,267.841 78.9009,267.505 79.1223,267.164 79.3436,266.82 79.5649,266.47 79.7862,266.117 80.0076,265.759 80.2289,265.396 80.4502,265.03 80.6716,264.659 80.8929,264.283 81.1142,263.904 81.3356,263.519 81.5569,263.131 81.7782,262.739 81.9996,262.342 82.2209,261.941 82.4422,261.535 82.6636,261.126 82.8849,260.712 83.1062,260.294 83.3275,259.872 83.5489,259.446 83.7702,259.016 83.9915,258.582 84.2129,258.143 84.4342,257.701 84.6555,257.254 84.8768,256.803 85.0982,256.349 85.3195,255.89 85.5409,255.427 85.7622,254.961 85.9835,254.49 86.2048,254.016 86.4262,253.537 86.6475,253.055 86.8688,252.569 87.0902,252.079 87.3115,251.585 87.5328,251.087 87.7542,250.586 87.9755,250.081 88.1968,249.572 88.4181,249.059 88.6395,248.542 88.8608,248.022 89.0821,247.498 89.3035,246.971 89.5248,246.44 89.7461,245.905 89.9675,245.367 90.1888,244.825 90.4101,244.28 90.6315,243.731 90.8528,243.178 91.0741,242.622 91.2954,242.063 91.5168,241.5 91.7381,240.934 91.9594,240.364 92.1808,239.791 92.4021,239.215 92.6234,238.635 92.8448,238.052 93.0661,237.466 93.2874,236.877 93.5088,236.284 93.7301,235.688 93.9514,235.089 94.1727,234.487 94.3941,233.881 94.6154,233.273 94.8367,232.661 95.0581,232.046 95.2794,231.429 95.5007,230.808 95.7221,230.184 95.9434,229.557 96.1647,228.928 96.3861,228.295 96.6074,227.66 96.8287,227.021 97.05,226.38 97.2714,225.736 97.4927,225.089 97.7141,224.44 97.9354,223.787 98.1567,223.132 98.3781,222.474 98.5994,221.814 98.8207,221.151 99.042,220.485 99.2634,219.817 99.4847,219.146 99.706,218.473 99.9274,217.797 100.149,217.119 100.37,216.438 100.591,215.755 100.813,215.069 101.034,214.381 101.255,213.691 101.477,212.998 101.698,212.304 101.919,211.606 102.141,210.907 102.362,210.205 102.583,209.501 102.805,208.796 103.026,208.087 103.247,207.377 103.469,206.665 103.69,205.951 103.911,205.234 104.133,204.516 104.354,203.796 104.575,203.074 104.797,202.35 105.018,201.624 105.239,200.896 105.461,200.166 105.682,199.435 105.903,198.702 106.125,197.967 106.346,197.23 106.567,196.492 106.789,195.752 107.01,195.011 107.231,194.268 107.453,193.523 107.674,192.777 107.895,192.03 108.117,191.281 108.338,190.53 108.559,189.778 108.781,189.025 109.002,188.27 109.223,187.514 109.445,186.757 109.666,185.999 109.887,185.239 110.109,184.478 110.33,183.716 110.551,182.953 110.773,182.188 110.994,181.423 111.215,180.657 111.437,179.889 111.658,179.121 111.879,178.351 112.101,177.581 112.322,176.81 112.543,176.038 112.765,175.265 112.986,174.491 113.207,173.717 113.429,172.942 113.65,172.166 113.871,171.389 114.093,170.612 114.314,169.834 114.535,169.056 114.757,168.277 114.978,167.497 115.199,166.717 115.421,165.937 115.642,165.156 115.863,164.374 116.085,163.593 116.306,162.811 116.527,162.028 116.749,161.246 116.97,160.463 117.191,159.68 117.413,158.897 117.634,158.113 117.855,157.33 118.076,156.546 118.298,155.762 118.519,154.979 118.74,154.195 118.962,153.411 119.183,152.628 119.404,151.844 119.626,151.061 119.847,150.277 120.068,149.494 120.29,148.711 120.511,147.929 120.732,147.147 120.954,146.365 121.175,145.583 121.396,144.802 121.618,144.021 121.839,143.24 122.06,142.46 122.282,141.681 122.503,140.902 122.724,140.123 122.946,139.345 123.167,138.568 123.388,137.792 123.61,137.016 123.831,136.241 124.052,135.466 124.274,134.692 124.495,133.919 124.716,133.147 124.938,132.376 125.159,131.606 125.38,130.837 125.602,130.068 125.823,129.301 126.044,128.534 126.266,127.769 126.487,127.005 126.708,126.241 126.93,125.479 127.151,124.718 127.372,123.959 127.594,123.2 127.815,122.443 128.036,121.687 128.258,120.932 128.479,120.179 128.7,119.427 128.922,118.677 129.143,117.928 129.364,117.18 129.586,116.434 129.807,115.689 130.028,114.946 130.25,114.205 130.471,113.465 130.692,112.727 130.914,111.99 131.135,111.255 131.356,110.522 131.578,109.791 131.799,109.061 132.02,108.333 132.242,107.608 132.463,106.883 132.684,106.161 132.906,105.441 133.127,104.723 133.348,104.007 133.57,103.292 133.791,102.58 134.012,101.87 134.234,101.162 134.455,100.456 134.676,99.752 134.898,99.0503 135.119,98.3509 135.34,97.6537 135.562,96.9588 135.783,96.2662 136.004,95.5759 136.226,94.8879 136.447,94.2023 136.668,93.5191 136.89,92.8384 137.111,92.1601 137.332,91.4843 137.554,90.8109 137.775,90.1401 137.996,89.4719 138.218,88.8062 138.439,88.1432 138.66,87.4828 138.882,86.8251 139.103,86.17 139.324,85.5177 139.546,84.8681 139.767,84.2213 139.988,83.5773 140.21,82.9361 140.431,82.2978 140.652,81.6623 140.874,81.0297 141.095,80.4 141.316,79.7733 141.538,79.1495 141.759,78.5287 141.98,77.911 142.202,77.2963 142.423,76.6846 142.644,76.0761 142.866,75.4706 143.087,74.8684 143.308,74.2692 143.53,73.6733 143.751,73.0806 143.972,72.4911 144.194,71.9048 144.415,71.3218 144.636,70.7422 144.858,70.1658 145.079,69.5928 145.3,69.0232 145.522,68.457 145.743,67.8942 145.964,67.3348 146.186,66.7789 146.407,66.2265 146.628,65.6776 146.85,65.1321 147.071,64.5903 147.292,64.052 147.514,63.5173 147.735,62.9862 147.956,62.4588 148.177,61.935 148.399,61.4149 148.62,60.8984 148.842,60.3857 149.063,59.8767 149.284,59.3715 149.505,58.87 149.727,58.3723 149.948,57.8785 150.169,57.3885 150.391,56.9023 150.612,56.42 150.833,55.9416 151.055,55.4671 151.276,54.9966 151.497,54.5299 151.719,54.0673 151.94,53.6086 152.161,53.154 152.383,52.7033 152.604,52.2567 152.825,51.8142 153.047,51.3757 153.268,50.9413 153.489,50.511 153.711,50.0849 153.932,49.6629 154.153,49.245 154.375,48.8313 154.596,48.4218 154.817,48.0165 155.039,47.6155 155.26,47.2187 155.481,46.8261 155.703,46.4378 155.924,46.0538 156.145,45.674 156.367,45.2986 156.588,44.9276 156.809,44.5609 157.031,44.1985 157.252,43.8405 157.473,43.4869 157.695,43.1377 157.916,42.7929 158.137,42.4525 158.359,42.1166 158.58,41.7852 158.801,41.4582 159.023,41.1357 159.244,40.8176 159.465,40.5041 159.687,40.1951 159.908,39.8907 160.129,39.5907 160.351,39.2954 160.572,39.0046 160.793,38.7184 161.015,38.4367 161.236,38.1597 161.457,37.8873 161.679,37.6195 161.9,37.3564 162.121,37.0978 162.343,36.844 162.564,36.5948 162.785,36.3503 163.007,36.1104 163.228,35.8753 163.449,35.6448 163.671,35.4191 163.892,35.1981 164.113,34.9818 164.335,34.7702 164.556,34.5634 164.777,34.3614 164.999,34.1641 165.22,33.9716 165.441,33.7838 165.663,33.6009 165.884,33.4227 166.105,33.2494 166.327,33.0808 166.548,32.9171 166.769,32.7581 166.991,32.604 167.212,32.4547 167.433,32.3103 167.655,32.1707 167.876,32.036 168.097,31.9061 168.319,31.781 168.54,31.6609 168.761,31.5456 168.983,31.4352 169.204,31.3296 169.425,31.2289 169.647,31.1331 169.868,31.0422 170.089,30.9563 170.311,30.8752 170.532,30.799 170.753,30.7276 170.975,30.6613 171.196,30.5998 171.417,30.5432 171.639,30.4915 171.86,30.4448 172.081,30.4029 172.303,30.366 172.524,30.334 172.745,30.3069 172.967,30.2848 173.188,30.2675 173.409,30.2552 173.631,30.2478 173.852,30.2454 174.073,30.2478 174.295,30.2552 174.516,30.2675 174.737,30.2848 174.959,30.3069 175.18,30.334 175.401,30.366 175.623,30.4029 175.844,30.4448 176.065,30.4915 176.287,30.5432 176.508,30.5998 176.729,30.6613 176.951,30.7276 177.172,30.799 177.393,30.8752 177.615,30.9563 177.836,31.0422 178.057,31.1331 178.279,31.2289 178.5,31.3296 178.721,31.4352 178.943,31.5456 179.164,31.6609 179.385,31.781 179.607,31.9061 179.828,32.036 180.049,32.1707 180.27,32.3103 180.492,32.4547 180.713,32.604 180.934,32.7581 181.156,32.9171 181.377,33.0808 181.598,33.2494 181.82,33.4227 182.041,33.6009 182.262,33.7838 182.484,33.9716 182.705,34.1641 182.926,34.3614 183.148,34.5634 183.369,34.7702 183.59,34.9818 183.812,35.1981 184.033,35.4191 184.254,35.6448 184.476,35.8753 184.697,36.1104 184.918,36.3503 185.14,36.5948 185.361,36.844 185.582,37.0978 185.804,37.3564 186.025,37.6195 186.246,37.8873 186.468,38.1597 186.689,38.4367 186.91,38.7184 187.132,39.0046 187.353,39.2954 187.574,39.5907 187.796,39.8907 188.017,40.1951 188.238,40.5041 188.46,40.8176 188.681,41.1357 188.902,41.4582 189.124,41.7852 189.345,42.1166 189.566,42.4525 189.788,42.7929 190.009,43.1377 190.23,43.4869 190.452,43.8405 190.673,44.1985 190.894,44.5609 191.116,44.9276 191.337,45.2986 191.558,45.674 191.78,46.0538 192.001,46.4378 192.222,46.8261 192.444,47.2187 192.665,47.6155 192.886,48.0165 193.108,48.4218 193.329,48.8313 193.55,49.245 193.772,49.6629 193.993,50.0849 194.214,50.511 194.436,50.9413 194.657,51.3757 194.878,51.8142 195.1,52.2567 195.321,52.7033 195.542,53.154 195.764,53.6086 195.985,54.0673 196.206,54.5299 196.428,54.9966 196.649,55.4671 196.87,55.9416 197.092,56.42 197.313,56.9023 197.534,57.3885 197.756,57.8785 197.977,58.3723 198.198,58.87 198.42,59.3715 198.641,59.8767 198.862,60.3857 199.084,60.8984 199.305,61.4149 199.526,61.935 199.748,62.4588 199.969,62.9862 200.19,63.5173 200.412,64.052 200.633,64.5903 200.854,65.1321 201.076,65.6776 201.297,66.2265 201.518,66.7789 201.74,67.3348 201.961,67.8942 202.182,68.457 202.404,69.0232 202.625,69.5928 202.846,70.1658 203.068,70.7422 203.289,71.3218 203.51,71.9048 203.732,72.4911 203.953,73.0806 204.174,73.6733 204.396,74.2692 204.617,74.8684 204.838,75.4706 205.06,76.0761 205.281,76.6846 205.502,77.2963 205.724,77.911 205.945,78.5287 206.166,79.1495 206.388,79.7733 206.609,80.4 206.83,81.0297 207.052,81.6623 207.273,82.2978 207.494,82.9361 207.716,83.5773 207.937,84.2213 208.158,84.8681 208.38,85.5177 208.601,86.17 208.822,86.8251 209.044,87.4828 209.265,88.1432 209.486,88.8062 209.708,89.4719 209.929,90.1401 210.15,90.8109 210.372,91.4843 210.593,92.1601 210.814,92.8384 211.035,93.5191 211.257,94.2023 211.478,94.8879 211.699,95.5759 211.921,96.2662 212.142,96.9588 212.363,97.6537 212.585,98.3509 212.806,99.0503 213.027,99.752 213.249,100.456 213.47,101.162 213.691,101.87 213.913,102.58 214.134,103.292 214.355,104.007 214.577,104.723 214.798,105.441 215.019,106.161 215.241,106.883 215.462,107.608 215.683,108.333 215.905,109.061 216.126,109.791 216.347,110.522 216.569,111.255 216.79,111.99 217.011,112.727 217.233,113.465 217.454,114.205 217.675,114.946 217.897,115.689 218.118,116.434 218.339,117.18 218.561,117.928 218.782,118.677 219.003,119.427 219.225,120.179 219.446,120.932 219.667,121.687 219.889,122.443 220.11,123.2 220.331,123.959 220.553,124.718 220.774,125.479 220.995,126.241 221.217,127.005 221.438,127.769 221.659,128.534 221.881,129.301 222.102,130.068 222.323,130.837 222.545,131.606 222.766,132.376 222.987,133.147 223.209,133.919 223.43,134.692 223.651,135.466 223.873,136.241 224.094,137.016 224.315,137.792 224.537,138.568 224.758,139.345 224.979,140.123 225.201,140.902 225.422,141.681 225.643,142.46 225.865,143.24 226.086,144.021 226.307,144.802 226.529,145.583 226.75,146.365 226.971,147.147 227.193,147.929 227.414,148.711 227.635,149.494 227.857,150.277 228.078,151.061 228.299,151.844 228.521,152.628 228.742,153.411 228.963,154.195 229.185,154.979 229.406,155.762 229.627,156.546 229.849,157.33 230.07,158.113 230.291,158.897 230.513,159.68 230.734,160.463 230.955,161.246 231.177,162.028 231.398,162.811 231.619,163.593 231.841,164.374 232.062,165.156 232.283,165.937 232.505,166.717 232.726,167.497 232.947,168.277 233.169,169.056 233.39,169.834 233.611,170.612 233.833,171.389 234.054,172.166 234.275,172.942 234.497,173.717 234.718,174.491 234.939,175.265 235.161,176.038 235.382,176.81 235.603,177.581 235.825,178.351 236.046,179.121 236.267,179.889 236.489,180.657 236.71,181.423 236.931,182.188 237.153,182.953 237.374,183.716 237.595,184.478 237.817,185.239 238.038,185.999 238.259,186.757 238.481,187.514 238.702,188.27 238.923,189.025 239.145,189.778 239.366,190.53 239.587,191.281 239.809,192.03 240.03,192.777 240.251,193.523 240.473,194.268 240.694,195.011 240.915,195.752 241.136,196.492 241.358,197.23 241.579,197.967 241.8,198.702 242.022,199.435 242.243,200.166 242.464,200.896 242.686,201.624 242.907,202.35 243.128,203.074 243.35,203.796 243.571,204.516 243.792,205.234 244.014,205.951 244.235,206.665 244.456,207.377 244.678,208.087 244.899,208.796 245.12,209.501 245.342,210.205 245.563,210.907 245.784,211.606 246.006,212.304 246.227,212.998 246.448,213.691 246.67,214.381 246.891,215.069 247.112,215.755 247.334,216.438 247.555,217.119 247.776,217.797 247.998,218.473 248.219,219.146 248.44,219.817 248.662,220.485 248.883,221.151 249.104,221.814 249.326,222.474 249.547,223.132 249.768,223.787 249.99,224.44 250.211,225.089 250.432,225.736 250.654,226.38 250.875,227.021 251.096,227.66 251.318,228.295 251.539,228.928 251.76,229.557 251.982,230.184 252.203,230.808 252.424,231.429 252.646,232.046 252.867,232.661 253.088,233.273 253.31,233.881 253.531,234.487 253.752,235.089 253.974,235.688 254.195,236.284 254.416,236.877 254.638,237.466 254.859,238.052 255.08,238.635 255.302,239.215 255.523,239.791 255.744,240.364 255.966,240.934 256.187,241.5 256.408,242.063 256.63,242.622 256.851,243.178 257.072,243.731 257.294,244.28 257.515,244.825 257.736,245.367 257.958,245.905 258.179,246.44 258.4,246.971 258.622,247.498 258.843,248.022 259.064,248.542 259.286,249.059 259.507,249.572 259.728,250.081 259.95,250.586 260.171,251.087 260.392,251.585 260.614,252.079 260.835,252.569 261.056,253.055 261.278,253.537 261.499,254.016 261.72,254.49 261.942,254.961 262.163,255.427 262.384,255.89 262.606,256.349 262.827,256.803 263.048,257.254 263.27,257.701 263.491,258.143 263.712,258.582 263.934,259.016 264.155,259.446 264.376,259.872 264.598,260.294 264.819,260.712 265.04,261.126 265.262,261.535 265.483,261.941 265.704,262.342 265.926,262.739 266.147,263.131 266.368,263.519 266.59,263.904 266.811,264.283 267.032,264.659 267.254,265.03 267.475,265.396 267.696,265.759 267.918,266.117 268.139,266.47 268.36,266.82 268.582,267.164 268.803,267.505 269.024,267.841 269.246,268.172 269.467,268.499 269.688,268.822 269.91,269.14 270.131,269.453 270.352,269.762 270.574,270.067 270.795,270.367 271.016,270.662 271.238,270.953 271.459,271.239 271.68,271.521 271.901,271.798 272.123,272.07 272.344,272.338 272.565,272.601 272.787,272.859 273.008,273.113 273.229,273.362 273.451,273.607 273.672,273.847 273.893,274.082 274.115,274.312 274.336,274.538 274.557,274.759 274.779,274.975 275,275.187 275.221,275.394 275.443,275.596 275.664,275.793 275.885,275.986 276.107,276.173 276.328,276.356 276.549,276.535 276.771,276.708 276.992,276.876 277.213,277.04 277.435,277.199 277.656,277.353 277.877,277.503 278.099,277.647 278.32,277.787 278.541,277.921 278.763,278.051 278.984,278.176 279.205,278.296 279.427,278.412 279.648,278.522 279.869,278.628 280.091,278.728 280.312,278.824 280.533,278.915 280.755,279.001 280.976,279.082 281.197,279.158 281.419,279.23 281.64,279.296 281.861,279.357 282.083,279.414 282.304,279.466 282.525,279.512 282.747,279.554 282.968,279.591 283.189,279.623 283.411,279.65 283.632,279.672 283.853,279.69 284.075,279.702 284.296,279.709 284.517,279.712 284.739,279.709 284.96,279.702 285.181,279.69 285.403,279.672 285.624,279.65 285.845,279.623 286.067,279.591 286.288,279.554 286.509,279.512 286.731,279.466 286.952,279.414 287.173,279.357 287.395,279.296 287.616,279.23 287.837,279.158 288.059,279.082 288.28,279.001 288.501,278.915 288.723,278.824 288.944,278.728 289.165,278.628 289.387,278.522 289.608,278.412 289.829,278.296 290.051,278.176 290.272,278.051 290.493,277.921 290.715,277.787 290.936,277.647 291.157,277.503 291.379,277.353 291.6,277.199 291.821,277.04 292.043,276.876 292.264,276.708 292.485,276.535 292.707,276.356 292.928,276.173 293.149,275.986 293.371,275.793 293.592,275.596 293.813,275.394 294.035,275.187 294.256,274.975 294.477,274.759 294.699,274.538 294.92,274.312 295.141,274.082 295.363,273.847 295.584,273.607 295.805,273.362 296.027,273.113 296.248,272.859 296.469,272.601 296.691,272.338 296.912,272.07 297.133,271.798 297.355,271.521 297.576,271.239 297.797,270.953 298.019,270.662 298.24,270.367 298.461,270.067 298.683,269.762 298.904,269.453 299.125,269.14 299.347,268.822 299.568,268.499 299.789,268.172 300.011,267.841 300.232,267.505 300.453,267.164 300.675,266.82 300.896,266.47 301.117,266.117 301.339,265.759 301.56,265.396 301.781,265.03 302.003,264.659 302.224,264.283 302.445,263.904 302.667,263.519 302.888,263.131 303.109,262.739 303.33,262.342 303.552,261.941 303.773,261.535 303.994,261.126 304.216,260.712 304.437,260.294 304.658,259.872 304.88,259.446 305.101,259.016 305.322,258.582 305.544,258.143 305.765,257.701 305.986,257.254 306.208,256.803 306.429,256.349 306.65,255.89 306.872,255.427 307.093,254.961 307.314,254.49 307.536,254.016 307.757,253.537 307.978,253.055 308.2,252.569 308.421,252.079 308.642,251.585 308.864,251.087 309.085,250.586 309.306,250.081 309.528,249.572 309.749,249.059 309.97,248.542 310.192,248.022 310.413,247.498 310.634,246.971 310.856,246.44 311.077,245.905 311.298,245.367 311.52,244.825 311.741,244.28 311.962,243.731 312.184,243.178 312.405,242.622 312.626,242.063 312.848,241.5 313.069,240.934 313.29,240.364 313.512,239.791 313.733,239.215 313.954,238.635 314.176,238.052 314.397,237.466 314.618,236.877 314.84,236.284 315.061,235.688 315.282,235.089 315.504,234.487 315.725,233.881 315.946,233.273 316.168,232.661 316.389,232.046 316.61,231.429 316.832,230.808 317.053,230.184 317.274,229.557 317.496,228.928 317.717,228.295 317.938,227.66 318.16,227.021 318.381,226.38 318.602,225.736 318.824,225.089 319.045,224.44 319.266,223.787 319.488,223.132 319.709,222.474 319.93,221.814 320.152,221.151 320.373,220.485 320.594,219.817 320.816,219.146 321.037,218.473 321.258,217.797 321.48,217.119 321.701,216.438 321.922,215.755 322.144,215.069 322.365,214.381 322.586,213.691 322.808,212.998 323.029,212.304 323.25,211.606 323.472,210.907 323.693,210.205 323.914,209.501 324.136,208.796 324.357,208.087 324.578,207.377 324.8,206.665 325.021,205.951 325.242,205.234 325.464,204.516 325.685,203.796 325.906,203.074 326.128,202.35 326.349,201.624 326.57,200.896 326.792,200.166 327.013,199.435 327.234,198.702 327.456,197.967 327.677,197.23 327.898,196.492 328.12,195.752 328.341,195.011 328.562,194.268 328.784,193.523 329.005,192.777 329.226,192.03 329.448,191.281 329.669,190.53 329.89,189.778 330.112,189.025 330.333,188.27 330.554,187.514 330.776,186.757 330.997,185.999 331.218,185.239 331.44,184.478 331.661,183.716 331.882,182.953 332.104,182.188 332.325,181.423 332.546,180.657 332.767,179.889 332.989,179.121 333.21,178.351 333.431,177.581 333.653,176.81 333.874,176.038 334.095,175.265 334.317,174.491 334.538,173.717 334.759,172.942 334.981,172.166 335.202,171.389 335.423,170.612 335.645,169.834 335.866,169.056 336.087,168.277 336.309,167.497 336.53,166.717 336.751,165.937 336.973,165.156 337.194,164.374 337.415,163.593 337.637,162.811 337.858,162.028 338.079,161.246 338.301,160.463 338.522,159.68 338.743,158.897 338.965,158.113 339.186,157.33 339.407,156.546 339.629,155.762 339.85,154.979 340.071,154.195 340.293,153.411 340.514,152.628 340.735,151.844 340.957,151.061 341.178,150.277 341.399,149.494 341.621,148.711 341.842,147.929 342.063,147.147 342.285,146.365 342.506,145.583 342.727,144.802 342.949,144.021 343.17,143.24 343.391,142.46 343.613,141.681 343.834,140.902 344.055,140.123 344.277,139.345 344.498,138.568 344.719,137.792 344.941,137.016 345.162,136.241 345.383,135.466 345.605,134.692 345.826,133.919 346.047,133.147 346.269,132.376 346.49,131.606 346.711,130.837 346.933,130.068 347.154,129.301 347.375,128.534 347.597,127.769 347.818,127.005 348.039,126.241 348.261,125.479 348.482,124.718 348.703,123.959 348.925,123.2 349.146,122.443 349.367,121.687 349.589,120.932 349.81,120.179 350.031,119.427 350.253,118.677 350.474,117.928 350.695,117.18 350.917,116.434 351.138,115.689 351.359,114.946 351.581,114.205 351.802,113.465 352.023,112.727 352.245,111.99 352.466,111.255 352.687,110.522 352.909,109.791 353.13,109.061 353.351,108.333 353.573,107.608 353.794,106.883 354.015,106.161 354.237,105.441 354.458,104.723 354.679,104.007 354.901,103.292 355.122,102.58 355.343,101.87 355.565,101.162 355.786,100.456 356.007,99.752 356.229,99.0503 356.45,98.3509 356.671,97.6537 356.893,96.9588 357.114,96.2662 357.335,95.5759 357.557,94.8879 357.778,94.2023 357.999,93.5191 358.221,92.8384 358.442,92.1601 358.663,91.4843 358.885,90.8109 359.106,90.1401 359.327,89.4719 359.549,88.8062 359.77,88.1432 359.991,87.4828 360.213,86.8251 360.434,86.17 360.655,85.5177 360.877,84.8681 361.098,84.2213 361.319,83.5773 361.541,82.9361 361.762,82.2978 361.983,81.6623 362.205,81.0297 362.426,80.4 362.647,79.7733 362.868,79.1495 363.09,78.5287 363.311,77.911 363.533,77.2963 363.754,76.6846 363.975,76.0761 364.197,75.4706 364.418,74.8684 364.639,74.2692 364.861,73.6733 365.082,73.0806 365.303,72.4911 365.524,71.9048 365.746,71.3218 365.967,70.7422 366.188,70.1658 366.41,69.5928 366.631,69.0232 366.852,68.457 367.074,67.8942 367.295,67.3348 367.516,66.7789 367.738,66.2265 367.959,65.6776 368.18,65.1321 368.402,64.5903 368.623,64.052 368.844,63.5173 369.066,62.9862 369.287,62.4588 369.508,61.935 369.73,61.4149 369.951,60.8984 370.172,60.3857 370.394,59.8767 370.615,59.3715 370.836,58.87 371.058,58.3723 371.279,57.8785 371.5,57.3885 371.722,56.9023 371.943,56.42 372.164,55.9416 372.386,55.4671 372.607,54.9966 372.828,54.5299 373.05,54.0673 373.271,53.6086 373.492,53.154 373.714,52.7033 373.935,52.2567 374.156,51.8142 374.378,51.3757 374.599,50.9413 374.82,50.511 375.042,50.0849 375.263,49.6629 375.484,49.245 375.706,48.8313 375.927,48.4218 376.148,48.0165 376.37,47.6155 376.591,47.2187 376.812,46.8261 377.034,46.4378 377.255,46.0538 377.476,45.674 377.698,45.2986 377.919,44.9276 378.14,44.5609 378.362,44.1985 378.583,43.8405 378.804,43.4869 379.026,43.1377 379.247,42.7929 379.468,42.4525 379.69,42.1166 379.911,41.7852 380.132,41.4582 380.354,41.1357 380.575,40.8176 380.796,40.5041 381.018,40.1951 381.239,39.8907 381.46,39.5907 381.682,39.2954 381.903,39.0046 382.124,38.7184 382.346,38.4367 382.567,38.1597 382.788,37.8873 383.01,37.6195 383.231,37.3564 383.452,37.0978 383.674,36.844 383.895,36.5948 384.116,36.3503 384.338,36.1104 384.559,35.8753 384.78,35.6448 385.002,35.4191 385.223,35.1981 385.444,34.9818 385.666,34.7702 385.887,34.5634 386.108,34.3614 386.33,34.1641 386.551,33.9716 386.772,33.7838 386.994,33.6009 387.215,33.4227 387.436,33.2494 387.658,33.0808 387.879,32.9171 388.1,32.7581 388.322,32.604 388.543,32.4547 388.764,32.3103 388.986,32.1707 389.207,32.036 389.428,31.9061 389.65,31.781 389.871,31.6609 390.092,31.5456 390.314,31.4352 390.535,31.3296 390.756,31.2289 390.978,31.1331 391.199,31.0422 391.42,30.9563 391.642,30.8752 391.863,30.799 392.084,30.7276 392.306,30.6613 392.527,30.5998 392.748,30.5432 392.97,30.4915 393.191,30.4448 393.412,30.4029 393.634,30.366 393.855,30.334 394.076,30.3069 394.298,30.2848 394.519,30.2675 394.74,30.2552 394.961,30.2478 395.183,30.2454 395.404,30.2478 395.625,30.2552 395.847,30.2675 396.068,30.2848 396.289,30.3069 396.511,30.334 396.732,30.366 396.953,30.4029 397.175,30.4448 397.396,30.4915 397.617,30.5432 397.839,30.5998 398.06,30.6613 398.281,30.7276 398.503,30.799 398.724,30.8752 398.945,30.9563 399.167,31.0422 399.388,31.1331 399.609,31.2289 399.831,31.3296 400.052,31.4352 400.273,31.5456 400.495,31.6609 400.716,31.781 400.937,31.9061 401.159,32.036 401.38,32.1707 401.601,32.3103 401.823,32.4547 402.044,32.604 402.265,32.7581 402.487,32.9171 402.708,33.0808 402.929,33.2494 403.151,33.4227 403.372,33.6009 403.593,33.7838 403.815,33.9716 404.036,34.1641 404.257,34.3614 404.479,34.5634 404.7,34.7702 404.921,34.9818 405.143,35.1981 405.364,35.4191 405.585,35.6448 405.807,35.8753 406.028,36.1104 406.249,36.3503 406.471,36.5948 406.692,36.844 406.913,37.0978 407.135,37.3564 407.356,37.6195 407.577,37.8873 407.799,38.1597 408.02,38.4367 408.241,38.7184 408.463,39.0046 408.684,39.2954 408.905,39.5907 409.127,39.8907 409.348,40.1951 409.569,40.5041 409.791,40.8176 410.012,41.1357 410.233,41.4582 410.455,41.7852 410.676,42.1166 410.897,42.4525 411.119,42.7929 411.34,43.1377 411.561,43.4869 411.783,43.8405 412.004,44.1985 412.225,44.5609 412.447,44.9276 412.668,45.2986 412.889,45.674 413.111,46.0538 413.332,46.4378 413.553,46.8261 413.775,47.2187 413.996,47.6155 414.217,48.0165 414.439,48.4218 414.66,48.8313 414.881,49.245 415.103,49.6629 415.324,50.0849 415.545,50.511 415.767,50.9413 415.988,51.3757 416.209,51.8142 416.431,52.2567 416.652,52.7033 416.873,53.154 417.095,53.6086 417.316,54.0673 417.537,54.5299 417.759,54.9966 417.98,55.4671 418.201,55.9416 418.423,56.42 418.644,56.9023 418.865,57.3885 419.087,57.8785 419.308,58.3723 419.529,58.87 419.751,59.3715 419.972,59.8767 420.193,60.3857 420.415,60.8984 420.636,61.4149 420.857,61.935 421.079,62.4588 421.3,62.9862 421.521,63.5173 421.743,64.052 421.964,64.5903 422.185,65.1321 422.407,65.6776 422.628,66.2265 422.849,66.7789 423.071,67.3348 423.292,67.8942 423.513,68.457 423.735,69.0232 423.956,69.5928 424.177,70.1658 424.399,70.7422 424.62,71.3218 424.841,71.9048 425.062,72.4911 425.284,73.0806 425.505,73.6733 425.727,74.2692 425.948,74.8684 426.169,75.4706 426.391,76.0761 426.612,76.6846 426.833,77.2963 427.054,77.911 427.276,78.5287 427.497,79.1495 427.718,79.7733 427.94,80.4 428.161,81.0297 428.382,81.6623 428.604,82.2978 428.825,82.9361 429.046,83.5773 429.268,84.2213 429.489,84.8681 429.71,85.5177 429.932,86.17 430.153,86.8251 430.374,87.4828 430.596,88.1432 430.817,88.8062 431.038,89.4719 431.26,90.1401 431.481,90.8109 431.702,91.4843 431.924,92.1601 432.145,92.8384 432.366,93.5191 432.588,94.2023 432.809,94.8879 433.03,95.5759 433.252,96.2662 433.473,96.9588 433.694,97.6537 433.916,98.3509 434.137,99.0503 434.358,99.752 434.58,100.456 434.801,101.162 435.022,101.87 435.244,102.58 435.465,103.292 435.686,104.007 435.908,104.723 436.129,105.441 436.35,106.161 436.572,106.883 436.793,107.608 437.014,108.333 437.236,109.061 437.457,109.791 437.678,110.522 437.9,111.255 438.121,111.99 438.342,112.727 438.564,113.465 438.785,114.205 439.006,114.946 439.228,115.689 439.449,116.434 439.67,117.18 439.892,117.928 440.113,118.677 440.334,119.427 440.556,120.179 440.777,120.932 440.998,121.687 441.22,122.443 441.441,123.2 441.662,123.959 441.884,124.718 442.105,125.479 442.326,126.241 442.548,127.005 442.769,127.769 442.99,128.534 443.212,129.301 443.433,130.068 443.654,130.837 443.876,131.606 444.097,132.376 444.318,133.147 444.54,133.919 444.761,134.692 444.982,135.466 445.204,136.241 445.425,137.016 445.646,137.792 445.868,138.568 446.089,139.345 446.31,140.123 446.532,140.902 446.753,141.681 446.974,142.46 447.196,143.24 447.417,144.021 447.638,144.802 447.86,145.583 448.081,146.365 448.302,147.147 448.524,147.929 448.745,148.711 448.966,149.494 449.188,150.277 449.409,151.061 449.63,151.844 449.852,152.628 450.073,153.411 450.294,154.195 450.516,154.979 450.737,155.762 450.958,156.546 451.18,157.33 451.401,158.113 451.622,158.897 451.844,159.68 452.065,160.463 452.286,161.246 452.508,162.028 452.729,162.811 452.95,163.593 453.172,164.374 453.393,165.156 453.614,165.937 453.836,166.717 454.057,167.497 454.278,168.277 454.5,169.056 454.721,169.834 454.942,170.612 455.164,171.389 455.385,172.166 455.606,172.942 455.827,173.717 456.049,174.491 456.27,175.265 456.492,176.038 456.713,176.81 456.934,177.581 457.155,178.351 457.377,179.121 457.598,179.889 457.819,180.657 458.041,181.423 458.262,182.188 458.483,182.953 458.705,183.716 458.926,184.478 459.147,185.239 459.369,185.999 459.59,186.757 459.811,187.514 460.033,188.27 460.254,189.025 460.475,189.778 460.697,190.53 460.918,191.281 461.139,192.03 461.361,192.777 461.582,193.523 461.803,194.268 462.025,195.011 462.246,195.752 462.467,196.492 462.689,197.23 462.91,197.967 463.131,198.702 463.353,199.435 463.574,200.166 463.795,200.896 464.017,201.624 464.238,202.35 464.459,203.074 464.681,203.796 464.902,204.516 465.123,205.234 465.345,205.951 465.566,206.665 465.787,207.377 466.009,208.087 466.23,208.796 466.451,209.501 466.673,210.205 466.894,210.907 467.115,211.606 467.337,212.304 467.558,212.998 467.779,213.691 468.001,214.381 468.222,215.069 468.443,215.755 468.665,216.438 468.886,217.119 469.107,217.797 469.329,218.473 469.55,219.146 469.771,219.817 469.993,220.485 470.214,221.151 470.435,221.814 470.657,222.474 470.878,223.132 471.099,223.787 471.321,224.44 471.542,225.089 471.763,225.736 471.985,226.38 472.206,227.021 472.427,227.66 472.649,228.295 472.87,228.928 473.091,229.557 473.313,230.184 473.534,230.808 473.755,231.429 473.977,232.046 474.198,232.661 474.419,233.273 474.641,233.881 474.862,234.487 475.083,235.089 475.305,235.688 475.526,236.284 475.747,236.877 475.969,237.466 476.19,238.052 476.411,238.635 476.633,239.215 476.854,239.791 477.075,240.364 477.297,240.934 477.518,241.5 477.739,242.063 477.961,242.622 478.182,243.178 478.403,243.731 478.625,244.28 478.846,244.825 479.067,245.367 479.289,245.905 479.51,246.44 479.731,246.971 479.953,247.498 480.174,248.022 480.395,248.542 480.617,249.059 480.838,249.572 481.059,250.081 481.281,250.586 481.502,251.087 481.723,251.585 481.945,252.079 482.166,252.569 482.387,253.055 482.609,253.537 482.83,254.016 483.051,254.49 483.273,254.961 483.494,255.427 483.715,255.89 483.937,256.349 484.158,256.803 484.379,257.254 484.601,257.701 484.822,258.143 485.043,258.582 485.265,259.016 485.486,259.446 485.707,259.872 485.928,260.294 486.15,260.712 486.371,261.126 486.592,261.535 486.814,261.941 487.035,262.342 487.257,262.739 487.478,263.131 487.699,263.519 487.921,263.904 488.142,264.283 488.363,264.659 488.584,265.03 488.806,265.396 489.027,265.759 489.248,266.117 489.47,266.47 489.691,266.82 489.912,267.164 490.134,267.505 490.355,267.841 490.576,268.172 490.798,268.499 491.019,268.822 491.24,269.14 491.462,269.453 491.683,269.762 491.904,270.067 492.126,270.367 492.347,270.662 492.568,270.953 492.79,271.239 493.011,271.521 493.232,271.798 493.454,272.07 493.675,272.338 493.896,272.601 494.118,272.859 494.339,273.113 494.56,273.362 494.782,273.607 495.003,273.847 495.224,274.082 495.446,274.312 495.667,274.538 495.888,274.759 496.11,274.975 496.331,275.187 496.552,275.394 496.774,275.596 496.995,275.793 497.216,275.986 497.438,276.173 497.659,276.356 497.88,276.535 498.102,276.708 498.323,276.876 498.544,277.04 498.766,277.199 498.987,277.353 499.208,277.503 499.43,277.647 499.651,277.787 499.872,277.921 500.094,278.051 500.315,278.176 500.536,278.296 500.758,278.412 500.979,278.522 501.2,278.628 501.422,278.728 501.643,278.824 501.864,278.915 502.086,279.001 502.307,279.082 502.528,279.158 502.75,279.23 502.971,279.296 503.192,279.357 503.414,279.414 503.635,279.466 503.856,279.512 504.078,279.554 504.299,279.591 504.52,279.623 504.742,279.65 504.963,279.672 505.184,279.69 505.406,279.702 505.627,279.709 505.848,279.712 506.07,279.709 506.291,279.702 506.512,279.69 506.734,279.672 506.955,279.65 507.176,279.623 507.398,279.591 507.619,279.554 507.84,279.512 508.062,279.466 508.283,279.414 508.504,279.357 508.726,279.296 508.947,279.23 509.168,279.158 509.39,279.082 509.611,279.001 509.832,278.915 510.054,278.824 510.275,278.728 510.496,278.628 510.718,278.522 510.939,278.412 511.16,278.296 511.382,278.176 511.603,278.051 511.824,277.921 512.046,277.787 512.267,277.647 512.488,277.503 512.71,277.353 512.931,277.199 513.152,277.04 513.374,276.876 513.595,276.708 513.816,276.535 514.038,276.356 514.259,276.173 514.48,275.986 514.702,275.793 514.923,275.596 515.144,275.394 515.366,275.187 515.587,274.975 515.808,274.759 516.029,274.538 516.251,274.312 516.472,274.082 516.694,273.847 516.915,273.607" stroke-linejoin="round"/>
   <polyline stroke-linecap="butt" stroke="#ff9999" fill="none" stroke-width="0.5" points="74.253,230.222 96.3861,204.392 118.519,159.688 140.652,113.185 162.785,82.646 184.918,79.7357 207.052,105.566 229.185,150.27 251.318,196.772 273.451,227.311 295.584,230.222 317.717,204.392 339.85,159.688 361.983,113.185 384.116,82.646 406.249,79.7357 428.382,105.566 450.516,150.27 472.649,196.772 494.782,227.311 516.915,230.222" stroke-linejoin="round"/>
   <polyline stroke-linecap="butt" stroke="#ff0000" fill="none" stroke-width="0.5" points="74.253,249.04 85.3195,235.47 96.3861,214.021 107.453,186.793 118.519,156.45 129.586,125.964 140.652,98.3174 151.719,76.2175 162.785,61.8272 173.852,56.5553 184.918,60.9177 195.985,74.4875 207.052,95.9363 218.118,123.165 229.185,153.507 240.251,183.994 251.318,211.64 262.384,233.74 273.451,248.13 284.517,253.402 295.584,249.04 306.65,235.47 317.717,214.021 328.784,186.793 339.85,156.45 350.917,125.964 361.983,98.3174 373.05,76.2175 384.116,61.8272 395.183,56.5553 406.249,60.9177 417.316,74.4875 428.382,95.9363 439.449,123.165 450.516,153.507 461.582,183.994 472.649,211.64 483.715,233.74 494.782,248.13 505.848,253.402 516.915,249.04" stroke-linejoin="round"/>
   <polyline stroke-linecap="butt" stroke="#990000" fill="none" stroke-width="0.5" points="74.253,260.485 79.7862,253.891 85.3195,244.862 90.8528,233.619 96.3861,220.44 101.919,205.649 107.453,189.611 112.986,172.72 118.519,155.391 124.052,138.053 129.586,121.131 135.119,105.043 140.652,90.1847 146.186,76.9216 151.719,65.5805 157.252,56.4407 162.785,49.7272 168.319,45.6053 173.852,44.1766 179.385,45.4762 184.918,49.4721 190.452,56.0659 195.985,65.0953 201.518,76.3379 207.052,89.5169 212.585,104.308 218.118,120.346 223.651,137.238 229.185,154.566 234.718,171.904 240.251,188.826 245.784,204.914 251.318,219.773 256.851,233.036 262.384,244.377 267.918,253.517 273.451,260.23 278.984,264.352 284.517,265.781 290.051,264.481 295.584,260.485 301.117,253.891 306.65,244.862 312.184,233.619 317.717,220.44 323.25,205.649 328.784,189.611 334.317,172.72 339.85,155.391 345.383,138.053 350.917,121.131 356.45,105.043 361.983,90.1847 367.516,76.9216 373.05,65.5805 378.583,56.4407 384.116,49.7272 389.65,45.6053 395.183,44.1766 400.716,45.4762 406.249,49.4721 411.783,56.0659 417.316,65.0953 422.849,76.3379 428.382,89.5169 433.916,104.308 439.449,120.346 444.982,137.238 450.516,154.566 456.049,171.904 461.582,188.826 467.115,204.914 472.649,219.773 478.182,233.036 483.715,244.377 489.248,253.517 494.782,260.23 500.315,264.352 505.848,265.781 511.382,264.481 516.915,260.485" stroke-linejoin="round"/>
   <polyline stroke-linecap="butt" stroke="#330000" fill="none" stroke-width="0.5" points="74.253,266.82 77.0196,263.633 79.7862,259.776 82.5529,255.273 85.3195,250.152 88.0862,244.444 90.8528,238.184 93.6194,231.412 96.3861,224.168 99.1527,216.498 101.919,208.448 104.686,200.068 107.453,191.411 110.219,182.529 112.986,173.477 115.753,164.311 118.519,155.088 121.286,145.864 124.052,136.696 126.819,127.641 129.586,118.754 132.352,110.091 135.119,101.704 137.886,93.6462 140.652,85.9663 143.419,78.7118 146.186,71.9275 148.952,65.6553 151.719,59.9338 154.485,54.7982 157.252,50.2803 160.019,46.4079 162.785,43.2049 165.552,40.691 168.319,38.8817 171.085,37.7882 173.852,37.4172 176.619,37.7711 179.385,38.8475 182.152,40.6399 184.918,43.1373 187.685,46.3242 190.452,50.181 193.218,54.6839 195.985,59.8052 198.752,65.5132 201.518,71.7728 204.285,78.5454 207.052,85.7893 209.818,93.4597 212.585,101.509 215.351,109.889 218.118,118.546 220.885,127.428 223.651,136.48 226.418,145.646 229.185,154.869 231.951,164.093 234.718,173.261 237.485,182.316 240.251,191.203 243.018,199.866 245.784,208.253 248.551,216.311 251.318,223.991 254.084,231.245 256.851,238.03 259.618,244.302 262.384,250.023 265.151,255.159 267.918,259.677 270.684,263.549 273.451,266.752 276.217,269.266 278.984,271.076 281.751,272.169 284.517,272.54 287.284,272.186 290.051,271.11 292.817,269.317 295.584,266.82 298.351,263.633 301.117,259.776 303.884,255.273 306.65,250.152 309.417,244.444 312.184,238.184 314.95,231.412 317.717,224.168 320.484,216.498 323.25,208.448 326.017,200.068 328.784,191.411 331.55,182.529 334.317,173.477 337.083,164.311 339.85,155.088 342.617,145.864 345.383,136.696 348.15,127.641 350.917,118.754 353.683,110.091 356.45,101.704 359.217,93.6462 361.983,85.9663 364.75,78.7118 367.516,71.9275 370.283,65.6553 373.05,59.9338 375.816,54.7982 378.583,50.2803 381.35,46.4079 384.116,43.2049 386.883,40.691 389.65,38.8817 392.416,37.7882 395.183,37.4172 397.949,37.7711 400.716,38.8475 403.483,40.6399 406.249,43.1373 409.016,46.3242 411.783,50.181 414.549,54.6839 417.316,59.8052 420.083,65.5132 422.849,71.7728 425.616,78.5454 428.382,85.7893 431.149,93.4597 433.916,101.509 436.682,109.889 439.449,118.546 442.216,127.428 444.982,136.48 447.749,145.646 450.516,154.869 453.282,164.093 456.049,173.261 458.815,182.316 461.582,191.203 464.349,199.866 467.115,208.253 469.882,216.311 472.649,223.991 475.415,231.245 478.182,238.03 480.949,244.302 483.715,250.023 486.482,255.159 489.248,259.677 492.015,263.549 494.782,266.752 497.548,269.266 500.315,271.076 503.082,272.169 505.848,272.54 508.615,272.186 511.382,271.11 514.148,269.317 516.915,266.82" stroke-linejoin="round"/>
   <polyline stroke-linecap="butt" stroke="#0000ff" fill="none" stroke-width="0.5" points="74.253,154.979 74.4743,154.195 74.6956,153.411 74.917,152.628 75.1383,151.844 75.3596,151.061 75.581,150.277 75.8023,149.494 76.0236,148.711 76.2449,147.929 76.4663,147.147 76.6876,146.365 76.909,145.583 77.1303,144.802 77.3516,144.021 77.5729,143.24 77.7943,142.46 78.0156,141.681 78.2369,140.902 78.4583,140.123 78.6796,139.345 78.9009,138.568 79.1223,137.792 79.3436,137.016 79.5649,136.241 79.7862,135.466 80.0076,134.692 80.2289,133.919 80.4502,133.147 80.6716,132.376 80.8929,131.606 81.1142,130.837 81.3356,130.068 81.5569,129.301 81.7782,128.534 81.9996,127.769 82.2209,127.005 82.4422,126.241 82.6636,125.479 82.8849,124.718 83.1062,123.959 83.3275,123.2 83.5489,122.443 83.7702,121.687 83.9915,120.932 84.2129,120.179 84.4342,119.427 84.6555,118.677 84.8768,117.928 85.0982,117.18 85.3195,116.434 85.5409,115.689 85.7622,114.946 85.9835,114.205 86.2048,113.465 86.4262,112.727 86.6475,111.99 86.8688,111.255 87.0902,110.522 87.3115,109.791 87.5328,109.061 87.7542,108.333 87.9755,107.608 88.1968,106.883 88.4181,106.161 88.6395,105.441 88.8608,104.723 89.0821,104.007 89.3035,103.292 89.5248,102.58 89.7461,101.87 89.9675,101.162 90.1888,100.456 90.4101,99.752 90.6315,99.0503 90.8528,98.3509 91.0741,97.6537 91.2954,96.9588 91.5168,96.2662 91.7381,95.5759 91.9594,94.8879 92.1808,94.2023 92.4021,93.5191 92.6234,92.8384 92.8448,92.1601 93.0661,91.4843 93.2874,90.8109 93.5088,90.1401 93.7301,89.4719 93.9514,88.8062 94.1727,88.1432 94.3941,87.4828 94.6154,86.8251 94.8367,86.17 95.0581,85.5177 95.2794,84.8681 95.5007,84.2213 95.7221,83.5773 95.9434,82.9361 96.1647,82.2978 96.3861,81.6623 96.6074,81.0297 96.8287,80.4 97.05,79.7733 97.2714,79.1495 97.4927,78.5287 97.7141,77.911 97.9354,77.2963 98.1567,76.6846 98.3781,76.0761 98.5994,75.4706 98.8207,74.8684 99.042,74.2692 99.2634,73.6733 99.4847,73.0806 99.706,72.4911 99.9274,71.9048 100.149,71.3218 100.37,70.7422 100.591,70.1658 100.813,69.5928 101.034,69.0232 101.255,68.457 101.477,67.8942 101.698,67.3348 101.919,66.7789 102.141,66.2265 102.362,65.6776 102.583,65.1321 102.805,64.5903 103.026,64.052 103.247,63.5173 103.469,62.9862 103.69,62.4588 103.911,61.935 104.133,61.4149 104.354,60.8984 104.575,60.3857 104.797,59.8767 105.018,59.3715 105.239,58.87 105.461,58.3723 105.682,57.8785 105.903,57.3885 106.125,56.9023 106.346,56.42 106.567,55.9416 106.789,55.4671 107.01,54.9966 107.231,54.5299 107.453,54.0673 107.674,53.6086 107.895,53.154 108.117,52.7033 108.338,52.2567 108.559,51.8142 108.781,51.3757 109.002,50.9413 109.223,50.511 109.445,50.0849 109.666,49.6629 109.887,49.245 110.109,48.8313 110.33,48.4218 110.551,48.0165 110.773,47.6155 110.994,47.2187 111.215,46.8261 111.437,46.4378 111.658,46.0538 111.879,45.674 112.101,45.2986 112.322,44.9276 112.543,44.5609 112.765,44.1985 112.986,43.8405 113.207,43.4869 113.429,43.1377 113.65,42.7929 113.871,42.4525 114.093,42.1166 114.314,41.7852 114.535,41.4582 114.757,41.1357 114.978,40.8176 115.199,40.5041 115.421,40.1951 115.642,39.8907 115.863,39.5907 116.085,39.2954 116.306,39.0046 116.527,38.7184 116.749,38.4367 116.97,38.1597 117.191,37.8873 117.413,37.6195 117.634,37.3564 117.855,37.0978 118.076,36.844 118.298,36.5948 118.519,36.3503 118.74,36.1104 118.962,35.8753 119.183,35.6448 119.404,35.4191 119.626,35.1981 119.847,34.9818 120.068,34.7702 120.29,34.5634 120.511,34.3614 120.732,34.1641 120.954,33.9716 121.175,33.7838 121.396,33.6009 121.618,33.4227 121.839,33.2494 122.06,33.0808 122.282,32.9171 122.503,32.7581 122.724,32.604 122.946,32.4547 123.167,32.3103 123.388,32.1707 123.61,32.036 123.831,31.9061 124.052,31.781 124.274,31.6609 124.495,31.5456 124.716,31.4352 124.938,31.3296 125.159,31.2289 125.38,31.1331 125.602,31.0422 125.823,30.9563 126.044,30.8752 126.266,30.799 126.487,30.7276 126.708,30.6613 126.93,30.5998 127.151,30.5432 127.372,30.4915 127.594,30.4448 127.815,30.4029 128.036,30.366 128.258,30.334 128.479,30.3069 128.7,30.2848 128.922,30.2675 129.143,30.2552 129.364,30.2478 129.586,30.2454 129.807,30.2478 130.028,30.2552 130.25,30.2675 130.471,30.2848 130.692,30.3069 130.914,30.334 131.135,30.366 131.356,30.4029 131.578,30.4448 131.799,30.4915 132.02,30.5432 132.242,30.5998 132.463,30.6613 132.684,30.7276 132.906,30.799 133.127,30.8752 133.348,30.9563 133.57,31.0422 133.791,31.1331 134.012,31.2289 134.234,31.3296 134.455,31.4352 134.676,31.5456 134.898,31.6609 135.119,31.781 135.34,31.9061 135.562,32.036 135.783,32.1707 136.004,32.3103 136.226,32.4547 136.447,32.604 136.668,32.7581 136.89,32.9171 137.111,33.0808 137.332,33.2494 137.554,33.4227 137.775,33.6009 137.996,33.7838 138.218,33.9716 138.439,34.1641 138.66,34.3614 138.882,34.5634 139.103,34.7702 139.324,34.9818 139.546,35.1981 139.767,35.4191 139.988,35.6448 140.21,35.8753 140.431,36.1104 140.652,36.3503 140.874,36.5948 141.095,36.844 141.316,37.0978 141.538,37.3564 141.759,37.6195 141.98,37.8873 142.202,38.1597 142.423,38.4367 142.644,38.7184 142.866,39.0046 143.087,39.2954 143.308,39.5907 143.53,39.8907 143.751,40.1951 143.972,40.5041 144.194,40.8176 144.415,41.1357 144.636,41.4582 144.858,41.7852 145.079,42.1166 145.3,42.4525 145.522,42.7929 145.743,43.1377 145.964,43.4869 146.186,43.8405 146.407,44.1985 146.628,44.5609 146.85,44.9276 147.071,45.2986 147.292,45.674 147.514,46.0538 147.735,46.4378 147.956,46.8261 148.177,47.2187 148.399,47.6155 148.62,48.0165 148.842,48.4218 149.063,48.8313 149.284,49.245 149.505,49.6629 149.727,50.0849 149.948,50.511 150.169,50.9413 150.391,51.3757 150.612,51.8142 150.833,52.2567 151.055,52.7033 151.276,53.154 151.497,53.6086 151.719,54.0673 151.94,54.5299 152.161,54.9966 152.383,55.4671 152.604,55.9416 152.825,56.42 153.047,56.9023 153.268,57.3885 153.489,57.8785 153.711,58.3723 153.932,58.87 154.153,59.3715 154.375,59.8767 154.596,60.3857 154.817,60.8984 155.039,61.4149 155.26,61.935 155.481,62.4588 155.703,62.9862 155.924,63.5173 156.145,64.052 156.367,64.5903 156.588,65.1321 156.809,65.6776 157.031,66.2265 157.252,66.7789 157.473,67.3348 157.695,67.8942 157.916,68.457 158.137,69.0232 158.359,69.5928 158.58,70.1658 158.801,70.7422 159.023,71.3218 159.244,71.9048 159.465,72.4911 159.687,73.0806 159.908,73.6733 160.129,74.2692 160.351,74.8684 160.572,75.4706 160.793,76.0761 161.015,76.6846 161.236,77.2963 161.457,77.911 161.679,78.5287 161.9,79.1495 162.121,79.7733 162.343,80.4 162.564,81.0297 162.785,81.6623 163.007,82.2978 163.228,82.9361 163.449,83.5773 163.671,84.2213 163.892,84.8681 164.113,85.5177 164.335,86.17 164.556,86.8251 164.777,87.4828 164.999,88.1432 165.22,88.8062 165.441,89.4719 165.663,90.1401 165.884,90.8109 166.105,91.4843 166.327,92.1601 166.548,92.8384 166.769,93.5191 166.991,94.2023 167.212,94.8879 167.433,95.5759 167.655,96.2662 167.876,96.9588 168.097,97.6537 168.319,98.3509 168.54,99.0503 168.761,99.752 168.983,100.456 169.204,101.162 169.425,101.87 169.647,102.58 169.868,103.292 170.089,104.007 170.311,104.723 170.532,105.441 170.753,106.161 170.975,106.883 171.196,107.608 171.417,108.333 171.639,109.061 171.86,109.791 172.081,110.522 172.303,111.255 172.524,111.99 172.745,112.727 172.967,113.465 173.188,114.205 173.409,114.946 173.631,115.689 173.852,116.434 174.073,117.18 174.295,117.928 174.516,118.677 174.737,119.427 174.959,120.179 175.18,120.932 175.401,121.687 175.623,122.443 175.844,123.2 176.065,123.959 176.287,124.718 176.508,125.479 176.729,126.241 176.951,127.005 177.172,127.769 177.393,128.534 177.615,129.301 177.836,130.068 178.057,130.837 178.279,131.606 178.5,132.376 178.721,133.147 178.943,133.919 179.164,134.692 179.385,135.466 179.607,136.241 179.828,137.016 180.049,137.792 180.27,138.568 180.492,139.345 180.713,140.123 180.934,140.902 181.156,141.681 181.377,142.46 181.598,143.24 181.82,144.021 182.041,144.802 182.262,145.583 182.484,146.365 182.705,147.147 182.926,147.929 183.148,148.711 183.369,149.494 183.59,150.277 183.812,151.061 184.033,151.844 184.254,152.628 184.476,153.411 184.697,154.195 184.918,154.979 185.14,155.762 185.361,156.546 185.582,157.33 185.804,158.113 186.025,158.897 186.246,159.68 186.468,160.463 186.689,161.246 186.91,162.028 187.132,162.811 187.353,163.593 187.574,164.374 187.796,165.156 188.017,165.937 188.238,166.717 188.46,167.497 188.681,168.277 188.902,169.056 189.124,169.834 189.345,170.612 189.566,171.389 189.788,172.166 190.009,172.942 190.23,173.717 190.452,174.491 190.673,175.265 190.894,176.038 191.116,176.81 191.337,177.581 191.558,178.351 191.78,179.121 192.001,179.889 192.222,180.657 192.444,181.423 192.665,182.188 192.886,182.953 193.108,183.716 193.329,184.478 193.55,185.239 193.772,185.999 193.993,186.757 194.214,187.514 194.436,188.27 194.657,189.025 194.878,189.778 195.1,190.53 195.321,191.281 195.542,192.03 195.764,192.777 195.985,193.523 196.206,194.268 196.428,195.011 196.649,195.752 196.87,196.492 197.092,197.23 197.313,197.967 197.534,198.702 197.756,199.435 197.977,200.166 198.198,200.896 198.42,201.624 198.641,202.35 198.862,203.074 199.084,203.796 199.305,204.516 199.526,205.234 199.748,205.951 199.969,206.665 200.19,207.377 200.412,208.087 200.633,208.796 200.854,209.501 201.076,210.205 201.297,210.907 201.518,211.606 201.74,212.304 201.961,212.998 202.182,213.691 202.404,214.381 202.625,215.069 202.846,215.755 203.068,216.438 203.289,217.119 203.51,217.797 203.732,218.473 203.953,219.146 204.174,219.817 204.396,220.485 204.617,221.151 204.838,221.814 205.06,222.474 205.281,223.132 205.502,223.787 205.724,224.44 205.945,225.089 206.166,225.736 206.388,226.38 206.609,227.021 206.83,227.66 207.052,228.295 207.273,228.928 207.494,229.557 207.716,230.184 207.937,230.808 208.158,231.429 208.38,232.046 208.601,232.661 208.822,233.273 209.044,233.881 209.265,234.487 209.486,235.089 209.708,235.688 209.929,236.284 210.15,236.877 210.372,237.466 210.593,238.052 210.814,238.635 211.035,239.215 211.257,239.791 211.478,240.364 211.699,240.934 211.921,241.5 212.142,242.063 212.363,242.622 212.585,243.178 212.806,243.731 213.027,244.28 213.249,244.825 213.47,245.367 213.691,245.905 213.913,246.44 214.134,246.971 214.355,247.498 214.577,248.022 214.798,248.542 215.019,249.059 215.241,249.572 215.462,250.081 215.683,250.586 215.905,251.087 216.126,251.585 216.347,252.079 216.569,252.569 216.79,253.055 217.011,253.537 217.233,254.016 217.454,254.49 217.675,254.961 217.897,255.427 218.118,255.89 218.339,256.349 218.561,256.803 218.782,257.254 219.003,257.701 219.225,258.143 219.446,258.582 219.667,259.016 219.889,259.446 220.11,259.872 220.331,260.294 220.553,260.712 220.774,261.126 220.995,261.535 221.217,261.941 221.438,262.342 221.659,262.739 221.881,263.131 222.102,263.519 222.323,263.904 222.545,264.283 222.766,264.659 222.987,265.03 223.209,265.396 223.43,265.759 223.651,266.117 223.873,266.47 224.094,266.82 224.315,267.164 224.537,267.505 224.758,267.841 224.979,268.172 225.201,268.499 225.422,268.822 225.643,269.14 225.865,269.453 226.086,269.762 226.307,270.067 226.529,270.367 226.75,270.662 226.971,270.953 227.193,271.239 227.414,271.521 227.635,271.798 227.857,272.07 228.078,272.338 228.299,272.601 228.521,272.859 228.742,273.113 228.963,273.362 229.185,273.607 229.406,273.847 229.627,274.082 229.849,274.312 230.07,274.538 230.291,274.759 230.513,274.975 230.734,275.187 230.955,275.394 231.177,275.596 231.398,275.793 231.619,275.986 231.841,276.173 232.062,276.356 232.283,276.535 232.505,276.708 232.726,276.876 232.947,277.04 233.169,277.199 233.39,277.353 233.611,277.503 233.833,277.647 234.054,277.787 234.275,277.921 234.497,278.051 234.718,278.176 234.939,278.296 235.161,278.412 235.382,278.522 235.603,278.628 235.825,278.728 236.046,278.824 236.267,278.915 236.489,279.001 236.71,279.082 236.931,279.158 237.153,279.23 237.374,279.296 237.595,279.357 237.817,279.414 238.038,279.466 238.259,279.512 238.481,279.554 238.702,279.591 238.923,279.623 239.145,279.65 239.366,279.672 239.587,279.69 239.809,279.702 240.03,279.709 240.251,279.712 240.473,279.709 240.694,279.702 240.915,279.69 241.136,279.672 241.358,279.65 241.579,279.623 241.8,279.591 242.022,279.554 242.243,279.512 242.464,279.466 242.686,279.414 242.907,279.357 243.128,279.296 243.35,279.23 243.571,279.158 243.792,279.082 244.014,279.001 244.235,278.915 244.456,278.824 244.678,278.728 244.899,278.628 245.12,278.522 245.342,278.412 245.563,278.296 245.784,278.176 246.006,278.051 246.227,277.921 246.448,277.787 246.67,277.647 246.891,277.503 247.112,277.353 247.334,277.199 247.555,277.04 247.776,276.876 247.998,276.708 248.219,276.535 248.44,276.356 248.662,276.173 248.883,275.986 249.104,275.793 249.326,275.596 249.547,275.394 249.768,275.187 249.99,274.975 250.211,274.759 250.432,274.538 250.654,274.312 250.875,274.082 251.096,273.847 251.318,273.607 251.539,273.362 251.76,273.113 251.982,272.859 252.203,272.601 252.424,272.338 252.646,272.07 252.867,271.798 253.088,271.521 253.31,271.239 253.531,270.953 253.752,270.662 253.974,270.367 254.195,270.067 254.416,269.762 254.638,269.453 254.859,269.14 255.08,268.822 255.302,268.499 255.523,268.172 255.744,267.841 255.966,267.505 256.187,267.164 256.408,266.82 256.63,266.47 256.851,266.117 257.072,265.759 257.294,265.396 257.515,265.03 257.736,264.659 257.958,264.283 258.179,263.904 258.4,263.519 258.622,263.131 258.843,262.739 259.064,262.342 259.286,261.941 259.507,261.535 259.728,261.126 259.95,260.712 260.171,260.294 260.392,259.872 260.614,259.446 260.835,259.016 261.056,258.582 261.278,258.143 261.499,257.701 261.72,257.254 261.942,256.803 262.163,256.349 262.384,255.89 262.606,255.427 262.827,254.961 263.048,254.49 263.27,254.016 263.491,253.537 263.712,253.055 263.934,252.569 264.155,252.079 264.376,251.585 264.598,251.087 264.819,250.586 265.04,250.081 265.262,249.572 265.483,249.059 265.704,248.542 265.926,248.022 266.147,247.498 266.368,246.971 266.59,246.44 266.811,245.905 267.032,245.367 267.254,244.825 267.475,244.28 267.696,243.731 267.918,243.178 268.139,242.622 268.36,242.063 268.582,241.5 268.803,240.934 269.024,240.364 269.246,239.791 269.467,239.215 269.688,238.635 269.91,238.052 270.131,237.466 270.352,236.877 270.574,236.284 270.795,235.688 271.016,235.089 271.238,234.487 271.459,233.881 271.68,233.273 271.901,232.661 272.123,232.046 272.344,231.429 272.565,230.808 272.787,230.184 273.008,229.557 273.229,228.928 273.451,228.295 273.672,227.66 273.893,227.021 274.115,226.38 274.336,225.736 274.557,225.089 274.779,224.44 275,223.787 275.221,223.132 275.443,222.474 275.664,221.814 275.885,221.151 276.107,220.485 276.328,219.817 276.549,219.146 276.771,218.473 276.992,217.797 277.213,217.119 277.435,216.438 277.656,215.755 277.877,215.069 278.099,214.381 278.32,213.691 278.541,212.998 278.763,212.304 278.984,211.606 279.205,210.907 279.427,210.205 279.648,209.501 279.869,208.796 280.091,208.087 280.312,207.377 280.533,206.665 280.755,205.951 280.976,205.234 281.197,204.516 281.419,203.796 281.64,203.074 281.861,202.35 282.083,201.624 282.304,200.896 282.525,200.166 282.747,199.435 282.968,198.702 283.189,197.967 283.411,197.23 283.632,196.492 283.853,195.752 284.075,195.011 284.296,194.268 284.517,193.523 284.739,192.777 284.96,192.03 285.181,191.281 285.403,190.53 285.624,189.778 285.845,189.025 286.067,188.27 286.288,187.514 286.509,186.757 286.731,185.999 286.952,185.239 287.173,184.478 287.395,183.716 287.616,182.953 287.837,182.188 288.059,181.423 288.28,180.657 288.501,179.889 288.723,179.121 288.944,178.351 289.165,177.581 289.387,176.81 289.608,176.038 289.829,175.265 290.051,174.491 290.272,173.717 290.493,172.942 290.715,172.166 290.936,171.389 291.157,170.612 291.379,169.834 291.6,169.056 291.821,168.277 292.043,167.497 292.264,166.717 292.485,165.937 292.707,165.156 292.928,164.374 293.149,163.593 293.371,162.811 293.592,162.028 293.813,161.246 294.035,160.463 294.256,159.68 294.477,158.897 294.699,158.113 294.92,157.33 295.141,156.546 295.363,155.762 295.584,154.979 295.805,154.195 296.027,153.411 296.248,152.628 296.469,151.844 296.691,151.061 296.912,150.277 297.133,149.494 297.355,148.711 297.576,147.929 297.797,147.147 298.019,146.365 298.24,145.583 298.461,144.802 298.683,144.021 298.904,143.24 299.125,142.46 299.347,141.681 299.568,140.902 299.789,140.123 300.011,139.345 300.232,138.568 300.453,137.792 300.675,137.016 300.896,136.241 301.117,135.466 301.339,134.692 301.56,133.919 301.781,133.147 302.003,132.376 302.224,131.606 302.445,130.837 302.667,130.068 302.888,129.301 303.109,128.534 303.33,127.769 303.552,127.005 303.773,126.241 303.994,125.479 304.216,124.718 304.437,123.959 304.658,123.2 304.88,122.443 305.101,121.687 305.322,120.932 305.544,120.179 305.765,119.427 305.986,118.677 306.208,117.928 306.429,117.18 306.65,116.434 306.872,115.689 307.093,114.946 307.314,114.205 307.536,113.465 307.757,112.727 307.978,111.99 308.2,111.255 308.421,110.522 308.642,109.791 308.864,109.061 309.085,108.333 309.306,107.608 309.528,106.883 309.749,106.161 309.97,105.441 310.192,104.723 310.413,104.007 310.634,103.292 310.856,102.58 311.077,101.87 311.298,101.162 311.52,100.456 311.741,99.752 311.962,99.0503 312.184,98.3509 312.405,97.6537 312.626,96.9588 312.848,96.2662 313.069,95.5759 313.29,94.8879 313.512,94.2023 313.733,93.5191 313.954,92.8384 314.176,92.1601 314.397,91.4843 314.618,90.8109 314.84,90.1401 315.061,89.4719 315.282,88.8062 315.504,88.1432 315.725,87.4828 315.946,86.8251 316.168,86.17 316.389,85.5177 316.61,84.8681 316.832,84.2213 317.053,83.5773 317.274,82.9361 317.496,82.2978 317.717,81.6623 317.938,81.0297 318.16,80.4 318.381,79.7733 318.602,79.1495 318.824,78.5287 319.045,77.911 319.266,77.2963 319.488,76.6846 319.709,76.0761 319.93,75.4706 320.152,74.8684 320.373,74.2692 320.594,73.6733 320.816,73.0806 321.037,72.4911 321.258,71.9048 321.48,71.3218 321.701,70.7422 321.922,70.1658 322.144,69.5928 322.365,69.0232 322.586,68.457 322.808,67.8942 323.029,67.3348 323.25,66.7789 323.472,66.2265 323.693,65.6776 323.914,65.1321 324.136,64.5903 324.357,64.052 324.578,63.5173 324.8,62.9862 325.021,62.4588 325.242,61.935 325.464,61.4149 325.685,60.8984 325.906,60.3857 326.128,59.8767 326.349,59.3715 326.57,58.87 326.792,58.3723 327.013,57.8785 327.234,57.3885 327.456,56.9023 327.677,56.42 327.898,55.9416 328.12,55.4671 328.341,54.9966 328.562,54.5299 328.784,54.0673 329.005,53.6086 329.226,53.154 329.448,52.7033 329.669,52.2567 329.89,51.8142 330.112,51.3757 330.333,50.9413 330.554,50.511 330.776,50.0849 330.997,49.6629 331.218,49.245 331.44,48.8313 331.661,48.4218 331.882,48.0165 332.104,47.6155 332.325,47.2187 332.546,46.8261 332.767,46.4378 332.989,46.0538 333.21,45.674 333.431,45.2986 333.653,44.9276 333.874,44.5609 334.095,44.1985 334.317,43.8405 334.538,43.4869 334.759,43.1377 334.981,42.7929 335.202,42.4525 335.423,42.1166 335.645,41.7852 335.866,41.4582 336.087,41.1357 336.309,40.8176 336.53,40.5041 336.751,40.1951 336.973,39.8907 337.194,39.5907 337.415,39.2954 337.637,39.0046 337.858,38.7184 338.079,38.4367 338.301,38.1597 338.522,37.8873 338.743,37.6195 338.965,37.3564 339.186,37.0978 339.407,36.844 339.629,36.5948 339.85,36.3503 340.071,36.1104 340.293,35.8753 340.514,35.6448 340.735,35.4191 340.957,35.1981 341.178,34.9818 341.399,34.7702 341.621,34.5634 341.842,34.3614 342.063,34.1641 342.285,33.9716 342.506,33.7838 342.727,33.6009 342.949,33.4227 343.17,33.2494 343.391,33.0808 343.613,32.9171 343.834,32.7581 344.055,32.604 344.277,32.4547 344.498,32.3103 344.719,32.1707 344.941,32.036 345.162,31.9061 345.383,31.781 345.605,31.6609 345.826,31.5456 346.047,31.4352 346.269,31.3296 346.49,31.2289 346.711,31.1331 346.933,31.0422 347.154,30.9563 347.375,30.8752 347.597,30.799 347.818,30.7276 348.039,30.6613 348.261,30.5998 348.482,30.5432 348.703,30.4915 348.925,30.4448 349.146,30.4029 349.367,30.366 349.589,30.334 349.81,30.3069 350.031,30.2848 350.253,30.2675 350.474,30.2552 350.695,30.2478 350.917,30.2454 351.138,30.2478 351.359,30.2552 351.581,30.2675 351.802,30.2848 352.023,30.3069 352.245,30.334 352.466,30.366 352.687,30.4029 352.909,30.4448 353.13,30.4915 353.351,30.5432 353.573,30.5998 353.794,30.6613 354.015,30.7276 354.237,30.799 354.458,30.8752 354.679,30.9563 354.901,31.0422 355.122,31.1331 355.343,31.2289 355.565,31.3296 355.786,31.4352 356.007,31.5456 356.229,31.6609 356.45,31.781 356.671,31.9061 356.893,32.036 357.114,32.1707 357.335,32.3103 357.557,32.4547 357.778,32.604 357.999,32.7581 358.221,32.9171 358.442,33.0808 358.663,33.2494 358.885,33.4227 359.106,33.6009 359.327,33.7838 359.549,33.9716 359.77,34.1641 359.991,34.3614 360.213,34.5634 360.434,34.7702 360.655,34.9818 360.877,35.1981 361.098,35.4191 361.319,35.6448 361.541,35.8753 361.762,36.1104 361.983,36.3503 362.205,36.5948 362.426,36.844 362.647,37.0978 362.868,37.3564 363.09,37.6195 363.311,37.8873 363.533,38.1597 363.754,38.4367 363.975,38.7184 364.197,39.0046 364.418,39.2954 364.639,39.5907 364.861,39.8907 365.082,40.1951 365.303,40.5041 365.524,40.8176 365.746,41.1357 365.967,41.4582 366.188,41.7852 366.41,42.1166 366.631,42.4525 366.852,42.7929 367.074,43.1377 367.295,43.4869 367.516,43.8405 367.738,44.1985 367.959,44.5609 368.18,44.9276 368.402,45.2986 368.623,45.674 368.844,46.0538 369.066,46.4378 369.287,46.8261 369.508,47.2187 369.73,47.6155 369.951,48.0165 370.172,48.4218 370.394,48.8313 370.615,49.245 370.836,49.6629 371.058,50.0849 371.279,50.511 371.5,50.9413 371.722,51.3757 371.943,51.8142 372.164,52.2567 372.386,52.7033 372.607,53.154 372.828,53.6086 373.05,54.0673 373.271,54.5299 373.492,54.9966 373.714,55.4671 373.935,55.9416 374.156,56.42 374.378,56.9023 374.599,57.3885 374.82,57.8785 375.042,58.3723 375.263,58.87 375.484,59.3715 375.706,59.8767 375.927,60.3857 376.148,60.8984 376.37,61.4149 376.591,61.935 376.812,62.4588 377.034,62.9862 377.255,63.5173 377.476,64.052 377.698,64.5903 377.919,65.1321 378.14,65.6776 378.362,66.2265 378.583,66.7789 378.804,67.3348 379.026,67.8942 379.247,68.457 379.468,69.0232 379.69,69.5928 379.911,70.1658 380.132,70.7422 380.354,71.3218 380.575,71.9048 380.796,72.4911 381.018,73.0806 381.239,73.6733 381.46,74.2692 381.682,74.8684 381.903,75.4706 382.124,76.0761 382.346,76.6846 382.567,77.2963 382.788,77.911 383.01,78.5287 383.231,79.1495 383.452,79.7733 383.674,80.4 383.895,81.0297 384.116,81.6623 384.338,82.2978 384.559,82.9361 384.78,83.5773 385.002,84.2213 385.223,84.8681 385.444,85.5177 385.666,86.17 385.887,86.8251 386.108,87.4828 386.33,88.1432 386.551,88.8062 386.772,89.4719 386.994,90.1401 387.215,90.8109 387.436,91.4843 387.658,92.1601 387.879,92.8384 388.1,93.5191 388.322,94.2023 388.543,94.8879 388.764,95.5759 388.986,96.2662 389.207,96.9588 389.428,97.6537 389.65,98.3509 389.871,99.0503 390.092,99.752 390.314,100.456 390.535,101.162 390.756,101.87 390.978,102.58 391.199,103.292 391.42,104.007 391.642,104.723 391.863,105.441 392.084,106.161 392.306,106.883 392.527,107.608 392.748,108.333 392.97,109.061 393.191,109.791 393.412,110.522 393.634,111.255 393.855,111.99 394.076,112.727 394.298,113.465 394.519,114.205 394.74,114.946 394.961,115.689 395.183,116.434 395.404,117.18 395.625,117.928 395.847,118.677 396.068,119.427 396.289,120.179 396.511,120.932 396.732,121.687 396.953,122.443 397.175,123.2 397.396,123.959 397.617,124.718 397.839,125.479 398.06,126.241 398.281,127.005 398.503,127.769 398.724,128.534 398.945,129.301 399.167,130.068 399.388,130.837 399.609,131.606 399.831,132.376 400.052,133.147 400.273,133.919 400.495,134.692 400.716,135.466 400.937,136.241 401.159,137.016 401.38,137.792 401.601,138.568 401.823,139.345 402.044,140.123 402.265,140.902 402.487,141.681 402.708,142.46 402.929,143.24 403.151,144.021 403.372,144.802 403.593,145.583 403.815,146.365 404.036,147.147 404.257,147.929 404.479,148.711 404.7,149.494 404.921,150.277 405.143,151.061 405.364,151.844 405.585,152.628 405.807,153.411 406.028,154.195 406.249,154.979 406.471,155.762 406.692,156.546 406.913,157.33 407.135,158.113 407.356,158.897 407.577,159.68 407.799,160.463 408.02,161.246 408.241,162.028 408.463,162.811 408.684,163.593 408.905,164.374 409.127,165.156 409.348,165.937 409.569,166.717 409.791,167.497 410.012,168.277 410.233,169.056 410.455,169.834 410.676,170.612 410.897,171.389 411.119,172.166 411.34,172.942 411.561,173.717 411.783,174.491 412.004,175.265 412.225,176.038 412.447,176.81 412.668,177.581 412.889,178.351 413.111,179.121 413.332,179.889 413.553,180.657 413.775,181.423 413.996,182.188 414.217,182.953 414.439,183.716 414.66,184.478 414.881,185.239 415.103,185.999 415.324,186.757 415.545,187.514 415.767,188.27 415.988,189.025 416.209,189.778 416.431,190.53 416.652,191.281 416.873,192.03 417.095,192.777 417.316,193.523 417.537,194.268 417.759,195.011 417.98,195.752 418.201,196.492 418.423,197.23 418.644,197.967 418.865,198.702 419.087,199.435 419.308,200.166 419.529,200.896 419.751,201.624 419.972,202.35 420.193,203.074 420.415,203.796 420.636,204.516 420.857,205.234 421.079,205.951 421.3,206.665 421.521,207.377 421.743,208.087 421.964,208.796 422.185,209.501 422.407,210.205 422.628,210.907 422.849,211.606 423.071,212.304 423.292,212.998 423.513,213.691 423.735,214.381 423.956,215.069 424.177,215.755 424.399,216.438 424.62,217.119 424.841,217.797 425.062,218.473 425.284,219.146 425.505,219.817 425.727,220.485 425.948,221.151 426.169,221.814 426.391,222.474 426.612,223.132 426.833,223.787 427.054,224.44 427.276,225.089 427.497,225.736 427.718,226.38 427.94,227.021 428.161,227.66 428.382,228.295 428.604,228.928 428.825,229.557 429.046,230.184 429.268,230.808 429.489,231.429 429.71,232.046 429.932,232.661 430.153,233.273 430.374,233.881 430.596,234.487 430.817,235.089 431.038,235.688 431.26,236.284 431.481,236.877 431.702,237.466 431.924,238.052 432.145,238.635 432.366,239.215 432.588,239.791 432.809,240.364 433.03,240.934 433.252,241.5 433.473,242.063 433.694,242.622 433.916,243.178 434.137,243.731 434.358,244.28 434.58,244.825 434.801,245.367 435.022,245.905 435.244,246.44 435.465,246.971 435.686,247.498 435.908,248.022 436.129,248.542 436.35,249.059 436.572,249.572 436.793,250.081 437.014,250.586 437.236,251.087 437.457,251.585 437.678,252.079 437.9,252.569 438.121,253.055 438.342,253.537 438.564,254.016 438.785,254.49 439.006,254.961 439.228,255.427 439.449,255.89 439.67,256.349 439.892,256.803 440.113,257.254 440.334,257.701 440.556,258.143 440.777,258.582 440.998,259.016 441.22,259.446 441.441,259.872 441.662,260.294 441.884,260.712 442.105,261.126 442.326,261.535 442.548,261.941 442.769,262.342 442.99,262.739 443.212,263.131 443.433,263.519 443.654,263.904 443.876,264.283 444.097,264.659 444.318,265.03 444.54,265.396 444.761,265.759 444.982,266.117 445.204,266.47 445.425,266.82 445.646,267.164 445.868,267.505 446.089,267.841 446.31,268.172 446.532,268.499 446.753,268.822 446.974,269.14 447.196,269.453 447.417,269.762 447.638,270.067 447.86,270.367 448.081,270.662 448.302,270.953 448.524,271.239 448.745,271.521 448.966,271.798 449.188,272.07 449.409,272.338 449.63,272.601 449.852,272.859 450.073,273.113 450.294,273.362 450.516,273.607 450.737,273.847 450.958,274.082 451.18,274.312 451.401,274.538 451.622,274.759 451.844,274.975 452.065,275.187 452.286,275.394 452.508,275.596 452.729,275.793 452.95,275.986 453.172,276.173 453.393,276.356 453.614,276.535 453.836,276.708 454.057,276.876 454.278,277.04 454.5,277.199 454.721,277.353 454.942,277.503 455.164,277.647 455.385,277.787 455.606,277.921 455.827,278.051 456.049,278.176 456.27,278.296 456.492,278.412 456.713,278.522 456.934,278.628 457.155,278.728 457.377,278.824 457.598,278.915 457.819,279.001 458.041,279.082 458.262,279.158 458.483,279.23 458.705,279.296 458.926,279.357 459.147,279.414 459.369,279.466 459.59,279.512 459.811,279.554 460.033,279.591 460.254,279.623 460.475,279.65 460.697,279.672 460.918,279.69 461.139,279.702 461.361,279.709 461.582,279.712 461.803,279.709 462.025,279.702 462.246,279.69 462.467,279.672 462.689,279.65 462.91,279.623 463.131,279.591 463.353,279.554 463.574,279.512 463.795,279.466 464.017,279.414 464.238,279.357 464.459,279.296 464.681,279.23 464.902,279.158 465.123,279.082 465.345,279.001 465.566,278.915 465.787,278.824 466.009,278.728 466.23,278.628 466.451,278.522 466.673,278.412 466.894,278.296 467.115,278.176 467.337,278.051 467.558,277.921 467.779,277.787 468.001,277.647 468.222,277.503 468.443,277.353 468.665,277.199 468.886,277.04 469.107,276.876 469.329,276.708 469.55,276.535 469.771,276.356 469.993,276.173 470.214,275.986 470.435,275.793 470.657,275.596 470.878,275.394 471.099,275.187 471.321,274.975 471.542,274.759 471.763,274.538 471.985,274.312 472.206,274.082 472.427,273.847 472.649,273.607 472.87,273.362 473.091,273.113 473.313,272.859 473.534,272.601 473.755,272.338 473.977,272.07 474.198,271.798 474.419,271.521 474.641,271.239 474.862,270.953 475.083,270.662 475.305,270.367 475.526,270.067 475.747,269.762 475.969,269.453 476.19,269.14 476.411,268.822 476.633,268.499 476.854,268.172 477.075,267.841 477.297,267.505 477.518,267.164 477.739,266.82 477.961,266.47 478.182,266.117 478.403,265.759 478.625,265.396 478.846,265.03 479.067,264.659 479.289,264.283 479.51,263.904 479.731,263.519 479.953,263.131 480.174,262.739 480.395,262.342 480.617,261.941 480.838,261.535 481.059,261.126 481.281,260.712 481.502,260.294 481.723,259.872 481.945,259.446 482.166,259.016 482.387,258.582 482.609,258.143 482.83,257.701 483.051,257.254 483.273,256.803 483.494,256.349 483.715,255.89 483.937,255.427 484.158,254.961 484.379,254.49 484.601,254.016 484.822,253.537 485.043,253.055 485.265,252.569 485.486,252.079 485.707,251.585 485.928,251.087 486.15,250.586 486.371,250.081 486.592,249.572 486.814,249.059 487.035,248.542 487.257,248.022 487.478,247.498 487.699,246.971 487.921,246.44 488.142,245.905 488.363,245.367 488.584,244.825 488.806,244.28 489.027,243.731 489.248,243.178 489.47,242.622 489.691,242.063 489.912,241.5 490.134,240.934 490.355,240.364 490.576,239.791 490.798,239.215 491.019,238.635 491.24,238.052 491.462,237.466 491.683,236.877 491.904,236.284 492.126,235.688 492.347,235.089 492.568,234.487 492.79,233.881 493.011,233.273 493.232,232.661 493.454,232.046 493.675,231.429 493.896,230.808 494.118,230.184 494.339,229.557 494.56,228.928 494.782,228.295 495.003,227.66 495.224,227.021 495.446,226.38 495.667,225.736 495.888,225.089 496.11,224.44 496.331,223.787 496.552,223.132 496.774,222.474 496.995,221.814 497.216,221.151 497.438,220.485 497.659,219.817 497.88,219.146 498.102,218.473 498.323,217.797 498.544,217.119 498.766,216.438 498.987,215.755 499.208,215.069 499.43,214.381 499.651,213.691 499.872,212.998 500.094,212.304 500.315,211.606 500.536,210.907 500.758,210.205 500.979,209.501 501.2,208.796 501.422,208.087 501.643,207.377 501.864,206.665 502.086,205.951 502.307,205.234 502.528,204.516 502.75,203.796 502.971,203.074 503.192,202.35 503.414,201.624 503.635,200.896 503.856,200.166 504.078,199.435 504.299,198.702 504.52,197.967 504.742,197.23 504.963,196.492 505.184,195.752 505.406,195.011 505.627,194.268 505.848,193.523 506.07,192.777 506.291,192.03 506.512,191.281 506.734,190.53 506.955,189.778 507.176,189.025 507.398,188.27 507.619,187.514 507.84,186.757 508.062,185.999 508.283,185.239 508.504,184.478 508.726,183.716 508.947,182.953 509.168,182.188 509.39,181.423 509.611,180.657 509.832,179.889 510.054,179.121 510.275,178.351 510.496,177.581 510.718,176.81 510.939,176.038 511.16,175.265 511.382,174.491 511.603,173.717 511.824,172.942 512.046,172.166 512.267,171.389 512.488,170.612 512.71,169.834 512.931,169.056 513.152,168.277 513.374,167.497 513.595,166.717 513.816,165.937 514.038,165.156 514.259,164.374 514.48,163.593 514.702,162.811 514.923,162.028 515.144,161.246 515.366,160.463 515.587,159.68 515.808,158.897 516.029,158.113 516.251,157.33 516.472,156.546 516.694,155.762 516.915,154.979" stroke-linejoin="round"/>
  </g>
  <clipPath id="cp00571403">
   <polygon points="0,403 571,403 571,0 0,0"/>
  </clipPath>
  <g clip-path="url(#cp00571403)">
   <polygon shape-rendering="crispEdges" fill="#ffffff" points="181.825,395.267 409.343,395.267 409.343,316.228 181.825,316.228"/>
   <polyline stroke-linecap="square" stroke="#262626" fill="none" stroke-width="0.5" points="181.825,395.267 409.343,395.267" stroke-linejoin="miter" stroke-dasharray="16,0"/>
   <polyline stroke-linecap="square" stroke="#262626" fill="none" stroke-width="0.5" points="181.825,316.228 409.343,316.228" stroke-linejoin="miter" stroke-dasharray="16,0"/>
   <polyline stroke-linecap="square" stroke="#262626" fill="none" stroke-width="0.5" points="181.825,395.267 181.825,316.228" stroke-linejoin="miter" stroke-dasharray="16,0"/>
   <polyline stroke-linecap="square" stroke="#262626" fill="none" stroke-width="0.5" points="409.343,395.267 409.343,316.228" stroke-linejoin="miter" stroke-dasharray="16,0"/>
   <polyline stroke-linecap="butt" stroke="#00ff00" fill="none" stroke-width="0.5" points="185.827,324.73 205.838,324.73" stroke-linejoin="round"/>
   <g font-style="normal" xml:space="preserve" transform="translate(209.841,329.73) rotate(-0,-0,-5)" font-family="FreeSans" font-weight="normal" font-size="9">
    <text x="0 6 11 16 18 22 25 27 32 34 38 43 45 50 53 55 60 65 67 72 75 77 80 82 89 94 96 99 101 106 108 113 115 " fill="rgb(0,0,0)" y="-2">Analytic solution at time t = 1.2</text>
   </g>
   <polyline stroke-linecap="butt" stroke="#ff9999" fill="none" stroke-width="0.5" points="185.827,337.434 205.838,337.434" stroke-linejoin="round"/>
   <g font-style="normal" xml:space="preserve" transform="translate(209.841,341.934) rotate(-0,-0,-4.5)" font-family="FreeSans" font-weight="normal" font-size="9">
    <text x="0 7 12 19 24 27 29 34 39 41 43 47 52 54 59 62 64 69 74 76 81 84 86 89 91 98 103 105 108 110 115 117 122 124 129 131 138 140 143 148 150 155 157 162 164 169 171 " fill="rgb(0,0,0)" y="-1">Numerical solution at time t = 1.2 with h = 0.1</text>
   </g>
   <polyline stroke-linecap="butt" stroke="#ff0000" fill="none" stroke-width="0.5" points="185.827,349.841 205.838,349.841" stroke-linejoin="round"/>
   <g font-style="normal" xml:space="preserve" transform="translate(209.841,354.341) rotate(-0,-0,-4.5)" font-family="FreeSans" font-weight="normal" font-size="9">
    <text x="0 7 12 19 24 27 29 34 39 41 43 47 52 54 59 62 64 69 74 76 81 84 86 89 91 98 103 105 108 110 115 117 122 124 129 131 138 140 143 148 150 155 157 162 164 169 171 176 " fill="rgb(0,0,0)" y="-1">Numerical solution at time t = 1.2 with h = 0.05</text>
   </g>
   <polyline stroke-linecap="butt" stroke="#990000" fill="none" stroke-width="0.5" points="185.827,362.248 205.838,362.248" stroke-linejoin="round"/>
   <g font-style="normal" xml:space="preserve" transform="translate(209.841,366.748) rotate(-0,-0,-4.5)" font-family="FreeSans" font-weight="normal" font-size="9">
    <text x="0 7 12 19 24 27 29 34 39 41 43 47 52 54 59 62 64 69 74 76 81 84 86 89 91 98 103 105 108 110 115 117 122 124 129 131 138 140 143 148 150 155 157 162 164 169 171 176 181 " fill="rgb(0,0,0)" y="-1">Numerical solution at time t = 1.2 with h = 0.025</text>
   </g>
   <polyline stroke-linecap="butt" stroke="#330000" fill="none" stroke-width="0.5" points="185.827,374.655 205.838,374.655" stroke-linejoin="round"/>
   <g font-style="normal" xml:space="preserve" transform="translate(209.841,379.156) rotate(-0,-0,-4.5)" font-family="FreeSans" font-weight="normal" font-size="9">
    <text x="0 7 12 19 24 27 29 34 39 41 43 47 52 54 59 62 64 69 74 76 81 84 86 89 91 98 103 105 108 110 115 117 122 124 129 131 138 140 143 148 150 155 157 162 164 169 171 176 181 186 " fill="rgb(0,0,0)" y="-1">Numerical solution at time t = 1.2 with h = 0.0125</text>
   </g>
   <polyline stroke-linecap="butt" stroke="#0000ff" fill="none" stroke-width="0.5" points="185.827,387.063 205.838,387.063" stroke-linejoin="round"/>
   <g font-style="normal" xml:space="preserve" transform="translate(209.841,391.563) rotate(-0,-0,-4.5)" font-family="FreeSans" font-weight="normal" font-size="9">
    <text x="0 3 8 10 13 15 20 22 24 29 34 39 44 46 49 51 56 " fill="rgb(0,0,0)" y="-1">Initial condition</text>
   </g>
  </g>
 </g>
</svg>
