<?xml version='1.0' encoding='UTF-8' standalone='no'?>
<svg xmlns="http://www.w3.org/2000/svg" xmlns:xlink="http://www.w3.org/1999/xlink" width="719pt" viewBox="0 0 719 744" height="744pt">
 <title>Figure 1</title>
 <desc>
Creator: GL2PS 1.4.2, (C) 1999-2020 C. Geuzaine
For: Octave
CreationDate: Tue Jun  6 17:54:32 2023
</desc>
 <defs/>
 <polygon points="0,0 719,0 719,744 0,744" fill="#ffffff"/>
 <g>
  <polygon shape-rendering="crispEdges" points="0,744 719,744 719,0 0,0" fill="#ffffff"/>
  <clipPath id="cp00719744">
   <polygon points="0,744 719,744 719,0 0,0"/>
  </clipPath>
  <g clip-path="url(#cp00719744)">
   <polygon shape-rendering="crispEdges" points="93.5253,510.289 651.08,510.289 651.08,55.8117 93.5253,55.8117" fill="#ffffff"/>
   <polyline stroke="#262626" points="93.5253,510.289 93.5253,504.707" stroke-linejoin="miter" fill="none" stroke-width="3" stroke-linecap="butt"/>
   <polyline stroke="#262626" points="93.5253,55.8117 93.5253,61.3931" stroke-linejoin="miter" fill="none" stroke-width="3" stroke-linecap="butt"/>
   <polyline stroke="#262626" points="232.914,510.289 232.914,504.707" stroke-linejoin="miter" fill="none" stroke-width="3" stroke-linecap="butt"/>
   <polyline stroke="#262626" points="232.914,55.8117 232.914,61.3931" stroke-linejoin="miter" fill="none" stroke-width="3" stroke-linecap="butt"/>
   <polyline stroke="#262626" points="372.303,510.289 372.303,504.707" stroke-linejoin="miter" fill="none" stroke-width="3" stroke-linecap="butt"/>
   <polyline stroke="#262626" points="372.303,55.8117 372.303,61.3931" stroke-linejoin="miter" fill="none" stroke-width="3" stroke-linecap="butt"/>
   <polyline stroke="#262626" points="511.691,510.289 511.691,504.707" stroke-linejoin="miter" fill="none" stroke-width="3" stroke-linecap="butt"/>
   <polyline stroke="#262626" points="511.691,55.8117 511.691,61.3931" stroke-linejoin="miter" fill="none" stroke-width="3" stroke-linecap="butt"/>
   <polyline stroke="#262626" points="651.08,510.289 651.08,504.707" stroke-linejoin="miter" fill="none" stroke-width="3" stroke-linecap="butt"/>
   <polyline stroke="#262626" points="651.08,55.8117 651.08,61.3931" stroke-linejoin="miter" fill="none" stroke-width="3" stroke-linecap="butt"/>
   <g transform="translate(82.5253,548.058) rotate(-0,11,-19)" font-style="normal" font-size="25" xml:space="preserve" font-family="FreeSans" font-weight="normal">
    <text fill="rgb(38,38,38)" y="-0" x="0 8 ">-1</text>
   </g>
   <g transform="translate(211.914,548.058) rotate(-0,21,-19)" font-style="normal" font-size="25" xml:space="preserve" font-family="FreeSans" font-weight="normal">
    <text fill="rgb(38,38,38)" y="-0" x="0 8 22 28 ">-0.5</text>
   </g>
   <g transform="translate(365.303,548.058) rotate(-0,7,-19)" font-style="normal" font-size="25" xml:space="preserve" font-family="FreeSans" font-weight="normal">
    <text fill="rgb(38,38,38)" y="-0" x="0 ">0</text>
   </g>
   <g transform="translate(494.691,548.058) rotate(-0,17,-19)" font-style="normal" font-size="25" xml:space="preserve" font-family="FreeSans" font-weight="normal">
    <text fill="rgb(38,38,38)" y="-0" x="0 14 20 ">0.5</text>
   </g>
   <g transform="translate(644.08,548.058) rotate(-0,7,-19)" font-style="normal" font-size="25" xml:space="preserve" font-family="FreeSans" font-weight="normal">
    <text fill="rgb(38,38,38)" y="-0" x="0 ">1</text>
   </g>
   <polyline stroke="#262626" points="93.5253,510.289 99.0964,510.289" stroke-linejoin="miter" fill="none" stroke-width="3" stroke-linecap="butt"/>
   <polyline stroke="#262626" points="651.08,510.289 645.509,510.289" stroke-linejoin="miter" fill="none" stroke-width="3" stroke-linecap="butt"/>
   <polyline stroke="#262626" points="93.5253,396.669 99.0964,396.669" stroke-linejoin="miter" fill="none" stroke-width="3" stroke-linecap="butt"/>
   <polyline stroke="#262626" points="651.08,396.669 645.509,396.669" stroke-linejoin="miter" fill="none" stroke-width="3" stroke-linecap="butt"/>
   <polyline stroke="#262626" points="93.5253,283.05 99.0964,283.05" stroke-linejoin="miter" fill="none" stroke-width="3" stroke-linecap="butt"/>
   <polyline stroke="#262626" points="651.08,283.05 645.509,283.05" stroke-linejoin="miter" fill="none" stroke-width="3" stroke-linecap="butt"/>
   <polyline stroke="#262626" points="93.5253,169.431 99.0964,169.431" stroke-linejoin="miter" fill="none" stroke-width="3" stroke-linecap="butt"/>
   <polyline stroke="#262626" points="651.08,169.431 645.509,169.431" stroke-linejoin="miter" fill="none" stroke-width="3" stroke-linecap="butt"/>
   <polyline stroke="#262626" points="93.5253,55.8117 99.0964,55.8117" stroke-linejoin="miter" fill="none" stroke-width="3" stroke-linecap="butt"/>
   <polyline stroke="#262626" points="651.08,55.8117 645.509,55.8117" stroke-linejoin="miter" fill="none" stroke-width="3" stroke-linecap="butt"/>
   <g transform="translate(59.0353,519.789) rotate(-0,22,-9.5)" font-style="normal" font-size="25" xml:space="preserve" font-family="FreeSans" font-weight="normal">
    <text fill="rgb(38,38,38)" y="-0" x="0 8 ">-1</text>
   </g>
   <g transform="translate(39.0353,406.169) rotate(-0,42,-9.5)" font-style="normal" font-size="25" xml:space="preserve" font-family="FreeSans" font-weight="normal">
    <text fill="rgb(38,38,38)" y="-0" x="0 8 22 28 ">-0.5</text>
   </g>
   <g transform="translate(67.0353,292.55) rotate(-0,14,-9.5)" font-style="normal" font-size="25" xml:space="preserve" font-family="FreeSans" font-weight="normal">
    <text fill="rgb(38,38,38)" y="-0" x="0 ">0</text>
   </g>
   <g transform="translate(47.0353,178.931) rotate(-0,34,-9.5)" font-style="normal" font-size="25" xml:space="preserve" font-family="FreeSans" font-weight="normal">
    <text fill="rgb(38,38,38)" y="-0" x="0 14 20 ">0.5</text>
   </g>
   <g transform="translate(67.0353,65.3117) rotate(-0,14,-9.5)" font-style="normal" font-size="25" xml:space="preserve" font-family="FreeSans" font-weight="normal">
    <text fill="rgb(38,38,38)" y="-0" x="0 ">1</text>
   </g>
   <polyline stroke-dasharray="48,0" stroke="#262626" points="93.5253,510.289 651.08,510.289" stroke-linejoin="miter" fill="none" stroke-width="3" stroke-linecap="square"/>
   <polyline stroke-dasharray="48,0" stroke="#262626" points="93.5253,55.8117 651.08,55.8117" stroke-linejoin="miter" fill="none" stroke-width="3" stroke-linecap="square"/>
   <polyline stroke-dasharray="48,0" stroke="#262626" points="93.5253,510.289 93.5253,55.8117" stroke-linejoin="miter" fill="none" stroke-width="3" stroke-linecap="square"/>
   <polyline stroke-dasharray="48,0" stroke="#262626" points="651.08,510.289 651.08,55.8117" stroke-linejoin="miter" fill="none" stroke-width="3" stroke-linecap="square"/>
   <g transform="translate(368.303,572.058) rotate(-0,4,-19)" font-style="normal" font-size="27.5" xml:space="preserve" font-family="FreeSans" font-weight="normal">
    <text fill="rgb(38,38,38)" y="-0" x="0 ">t</text>
   </g>
   <g transform="translate(27.5353,283.05) rotate(-90,6.5,0)" font-style="normal" font-size="27.5" xml:space="preserve" font-family="FreeSans" font-weight="normal">
    <text fill="rgb(38,38,38)" y="-0" x="0 ">x</text>
   </g>
   <g transform="translate(160.303,45.8117) rotate(-0,212,0)" font-style="normal" font-size="27.5" xml:space="preserve" font-family="FreeSans" font-weight="bold">
    <text fill="rgb(0,0,0)" y="-6" x="0 17 34 45 66 82 93 110 119 137 145 170 186 193 201 220 236 251 267 288 304 315 332 341 360 377 393 408 ">Forward-Time, Backward-Space</text>
   </g>
   <polyline stroke="#00ff00" points="93.5253,499.167 96.313,494.331 99.1008,488.662 101.889,482.181 104.676,474.914 107.464,466.89 110.252,458.14 113.04,448.7 115.827,438.606 118.615,427.897 121.403,416.618 124.191,404.811 126.979,392.523 129.766,379.804 132.554,366.702 135.342,353.271 138.13,339.562 140.917,325.63 143.705,311.531 146.493,297.319 149.281,283.05 152.069,268.782 154.856,254.57 157.644,240.47 160.432,226.538 163.22,212.83 166.007,199.398 168.795,186.297 171.583,173.577 174.371,161.29 177.158,149.483 179.946,138.203 182.734,127.495 185.522,117.4 188.31,107.96 191.097,99.2104 193.885,91.1864 196.673,83.9196 199.461,77.4387 202.248,71.7692 205.036,66.9335 207.824,62.9508 210.612,59.8367 213.4,57.6035 216.187,56.2601 218.975,55.8117 221.763,56.2601 224.551,57.6035 227.338,59.8367 230.126,62.9508 232.914,66.9335 235.702,71.7692 238.49,77.4387 241.277,83.9196 244.065,91.1864 246.853,99.2104 249.641,107.96 252.428,117.4 255.216,127.495 258.004,138.203 260.792,149.483 263.579,161.29 266.367,173.577 269.155,186.297 271.943,199.398 274.731,212.83 277.518,226.538 280.306,240.47 283.094,254.57 285.882,268.782 288.669,283.05 291.457,297.319 294.245,311.531 297.033,325.63 299.821,339.562 302.608,353.271 305.396,366.702 308.184,379.804 310.972,392.523 313.759,404.811 316.547,416.618 319.335,427.897 322.123,438.606 324.91,448.7 327.698,458.14 330.486,466.89 333.274,474.914 336.062,482.181 338.849,488.662 341.637,494.331 344.425,499.167 347.213,503.15 350,506.264 352.788,508.497 355.576,509.84 358.364,510.289 361.152,509.84 363.939,508.497 366.727,506.264 369.515,503.15 372.303,499.167 375.09,494.331 377.878,488.662 380.666,482.181 383.454,474.914 386.242,466.89 389.029,458.14 391.817,448.7 394.605,438.606 397.393,427.897 400.18,416.618 402.968,404.811 405.756,392.523 408.544,379.804 411.331,366.702 414.119,353.271 416.907,339.562 419.695,325.63 422.483,311.531 425.27,297.319 428.058,283.05 430.846,268.782 433.634,254.57 436.421,240.47 439.209,226.538 441.997,212.83 444.785,199.398 447.573,186.297 450.36,173.577 453.148,161.29 455.936,149.483 458.724,138.203 461.511,127.495 464.299,117.4 467.087,107.96 469.875,99.2104 472.662,91.1864 475.45,83.9196 478.238,77.4387 481.026,71.7692 483.814,66.9335 486.601,62.9508 489.389,59.8367 492.177,57.6035 494.965,56.2601 497.752,55.8117 500.54,56.2601 503.328,57.6035 506.116,59.8367 508.904,62.9508 511.691,66.9335 514.479,71.7692 517.267,77.4387 520.055,83.9196 522.842,91.1864 525.63,99.2104 528.418,107.96 531.206,117.4 533.993,127.495 536.781,138.203 539.569,149.483 542.357,161.29 545.145,173.577 547.932,186.297 550.72,199.398 553.508,212.83 556.296,226.538 559.083,240.47 561.871,254.57 564.659,268.782 567.447,283.05 570.235,297.319 573.022,311.531 575.81,325.63 578.598,339.562 581.386,353.271 584.173,366.702 586.961,379.804 589.749,392.523 592.537,404.811 595.325,416.618 598.112,427.897 600.9,438.606 603.688,448.7 606.476,458.14 609.263,466.89 612.051,474.914 614.839,482.181 617.627,488.662 620.414,494.331 623.202,499.167 625.99,503.15 628.778,506.264 631.566,508.497 634.353,509.84 637.141,510.289 639.929,509.84 642.717,508.497 645.504,506.264 648.292,503.15 651.08,499.167" stroke-linejoin="round" fill="none" stroke-width="3" stroke-linecap="butt"/>
   <polyline stroke="#ff9999" points="93.5253,420.127 121.403,373.071 149.281,291.629 177.158,206.91 205.036,151.275 232.914,145.973 260.792,193.03 288.669,274.471 316.547,359.19 344.425,414.826 372.303,420.127 400.18,373.071 428.058,291.629 455.936,206.91 483.814,151.275 511.691,145.973 539.569,193.03 567.447,274.471 595.325,359.19 623.202,414.826 651.08,420.127" stroke-linejoin="round" fill="none" stroke-width="3" stroke-linecap="butt"/>
   <polyline stroke="#ff0000" points="93.5253,454.41 107.464,429.689 121.403,390.613 135.342,341.009 149.281,285.731 163.22,230.191 177.158,179.825 191.097,139.563 205.036,113.347 218.975,103.743 232.914,111.69 246.853,136.412 260.792,175.487 274.731,225.091 288.669,280.369 302.608,335.909 316.547,386.275 330.486,426.537 344.425,452.753 358.364,462.357 372.303,454.41 386.242,429.689 400.18,390.613 414.119,341.009 428.058,285.731 441.997,230.191 455.936,179.825 469.875,139.563 483.814,113.347 497.752,103.743 511.691,111.69 525.63,136.412 539.569,175.487 553.508,225.091 567.447,280.369 581.386,335.909 595.325,386.275 609.263,426.537 623.202,452.753 637.141,462.357 651.08,454.41" stroke-linejoin="round" fill="none" stroke-width="3" stroke-linecap="butt"/>
   <polyline stroke="#990000" points="93.5253,475.262 100.495,463.249 107.464,446.799 114.434,426.317 121.403,402.308 128.372,375.362 135.342,346.143 142.311,315.37 149.281,283.802 156.25,252.215 163.22,221.388 170.189,192.078 177.158,165.009 184.128,140.846 191.097,120.185 198.067,103.534 205.036,91.3035 212.006,83.7944 218.975,81.1915 225.945,83.5591 232.914,90.8388 239.883,102.851 246.853,119.301 253.822,139.783 260.792,163.792 267.761,190.738 274.731,219.957 281.7,250.73 288.669,282.298 295.639,313.885 302.608,344.713 309.578,374.022 316.547,401.091 323.517,425.254 330.486,445.915 337.455,462.566 344.425,474.797 351.394,482.306 358.364,484.909 365.333,482.541 372.303,475.262 379.272,463.249 386.242,446.799 393.211,426.317 400.18,402.308 407.15,375.362 414.119,346.143 421.089,315.37 428.058,283.802 435.028,252.215 441.997,221.388 448.966,192.078 455.936,165.009 462.905,140.846 469.875,120.185 476.844,103.534 483.814,91.3035 490.783,83.7944 497.752,81.1915 504.722,83.5591 511.691,90.8388 518.661,102.851 525.63,119.301 532.6,139.783 539.569,163.792 546.538,190.738 553.508,219.957 560.477,250.73 567.447,282.298 574.416,313.885 581.386,344.713 588.355,374.022 595.325,401.091 602.294,425.254 609.263,445.915 616.233,462.566 623.202,474.797 630.172,482.306 637.141,484.909 644.111,482.541 651.08,475.262" stroke-linejoin="round" fill="none" stroke-width="3" stroke-linecap="butt"/>
   <polyline stroke="#330000" points="93.5253,486.802 97.01,480.996 100.495,473.97 103.979,465.767 107.464,456.437 110.949,446.038 114.434,434.634 117.918,422.296 121.403,409.099 124.888,395.125 128.372,380.46 131.857,365.195 135.342,349.423 138.827,333.242 142.311,316.751 145.796,300.053 149.281,283.249 152.765,266.445 156.25,249.743 159.735,233.246 163.22,217.057 166.704,201.274 170.189,185.995 173.674,171.315 177.158,157.324 180.643,144.108 184.128,131.748 187.613,120.321 191.097,109.898 194.582,100.542 198.067,92.3113 201.552,85.2566 205.036,79.4213 208.521,74.8415 212.006,71.5453 215.49,69.5532 218.975,68.8774 222.46,69.522 225.945,71.483 229.429,74.7485 232.914,79.2982 236.399,85.1041 239.883,92.1303 243.368,100.334 246.853,109.664 250.338,120.062 253.822,131.466 257.307,143.805 260.792,157.001 264.276,170.975 267.761,185.64 271.246,200.906 274.731,216.678 278.215,232.859 281.7,249.349 285.185,266.048 288.669,282.851 292.154,299.655 295.639,316.357 299.124,332.854 302.608,349.044 306.093,364.826 309.578,380.105 313.062,394.785 316.547,408.777 320.032,421.993 323.517,434.352 327.001,445.779 330.486,456.202 333.971,465.558 337.455,473.789 340.94,480.844 344.425,486.679 347.91,491.259 351.394,494.555 354.879,496.547 358.364,497.223 361.848,496.578 365.333,494.617 368.818,491.352 372.303,486.802 375.787,480.996 379.272,473.97 382.757,465.767 386.242,456.437 389.726,446.038 393.211,434.634 396.696,422.296 400.18,409.099 403.665,395.125 407.15,380.46 410.635,365.195 414.119,349.423 417.604,333.242 421.089,316.751 424.573,300.053 428.058,283.249 431.543,266.445 435.028,249.743 438.512,233.246 441.997,217.057 445.482,201.274 448.966,185.995 452.451,171.315 455.936,157.324 459.421,144.108 462.905,131.748 466.39,120.321 469.875,109.898 473.359,100.542 476.844,92.3113 480.329,85.2566 483.814,79.4213 487.298,74.8415 490.783,71.5453 494.268,69.5532 497.752,68.8774 501.237,69.522 504.722,71.483 508.207,74.7485 511.691,79.2982 515.176,85.1041 518.661,92.1303 522.145,100.334 525.63,109.664 529.115,120.062 532.6,131.466 536.084,143.805 539.569,157.001 543.054,170.975 546.538,185.64 550.023,200.906 553.508,216.678 556.993,232.859 560.477,249.349 563.962,266.048 567.447,282.851 570.932,299.655 574.416,316.357 577.901,332.854 581.386,349.044 584.87,364.826 588.355,380.105 591.84,394.785 595.325,408.777 598.809,421.993 602.294,434.352 605.779,445.779 609.263,456.202 612.748,465.558 616.233,473.789 619.718,480.844 623.202,486.679 626.687,491.259 630.172,494.555 633.656,496.547 637.141,497.223 640.626,496.578 644.111,494.617 647.595,491.352 651.08,486.802" stroke-linejoin="round" fill="none" stroke-width="3" stroke-linecap="butt"/>
   <polyline stroke="#0000ff" points="93.5253,283.05 96.313,268.782 99.1008,254.57 101.889,240.47 104.676,226.538 107.464,212.83 110.252,199.398 113.04,186.297 115.827,173.577 118.615,161.29 121.403,149.483 124.191,138.203 126.979,127.495 129.766,117.4 132.554,107.96 135.342,99.2104 138.13,91.1864 140.917,83.9196 143.705,77.4387 146.493,71.7692 149.281,66.9335 152.069,62.9508 154.856,59.8367 157.644,57.6035 160.432,56.2601 163.22,55.8117 166.007,56.2601 168.795,57.6035 171.583,59.8367 174.371,62.9508 177.158,66.9335 179.946,71.7692 182.734,77.4387 185.522,83.9196 188.31,91.1864 191.097,99.2104 193.885,107.96 196.673,117.4 199.461,127.495 202.248,138.203 205.036,149.483 207.824,161.29 210.612,173.577 213.4,186.297 216.187,199.398 218.975,212.83 221.763,226.538 224.551,240.47 227.338,254.57 230.126,268.782 232.914,283.05 235.702,297.319 238.49,311.531 241.277,325.63 244.065,339.562 246.853,353.271 249.641,366.702 252.428,379.804 255.216,392.523 258.004,404.811 260.792,416.618 263.579,427.897 266.367,438.606 269.155,448.7 271.943,458.14 274.731,466.89 277.518,474.914 280.306,482.181 283.094,488.662 285.882,494.331 288.669,499.167 291.457,503.15 294.245,506.264 297.033,508.497 299.821,509.84 302.608,510.289 305.396,509.84 308.184,508.497 310.972,506.264 313.759,503.15 316.547,499.167 319.335,494.331 322.123,488.662 324.91,482.181 327.698,474.914 330.486,466.89 333.274,458.14 336.062,448.7 338.849,438.606 341.637,427.897 344.425,416.618 347.213,404.811 350,392.523 352.788,379.804 355.576,366.702 358.364,353.271 361.152,339.562 363.939,325.63 366.727,311.531 369.515,297.319 372.303,283.05 375.09,268.782 377.878,254.57 380.666,240.47 383.454,226.538 386.242,212.83 389.029,199.398 391.817,186.297 394.605,173.577 397.393,161.29 400.18,149.483 402.968,138.203 405.756,127.495 408.544,117.4 411.331,107.96 414.119,99.2104 416.907,91.1864 419.695,83.9196 422.483,77.4387 425.27,71.7692 428.058,66.9335 430.846,62.9508 433.634,59.8367 436.421,57.6035 439.209,56.2601 441.997,55.8117 444.785,56.2601 447.573,57.6035 450.36,59.8367 453.148,62.9508 455.936,66.9335 458.724,71.7692 461.511,77.4387 464.299,83.9196 467.087,91.1864 469.875,99.2104 472.662,107.96 475.45,117.4 478.238,127.495 481.026,138.203 483.814,149.483 486.601,161.29 489.389,173.577 492.177,186.297 494.965,199.398 497.752,212.83 500.54,226.538 503.328,240.47 506.116,254.57 508.904,268.782 511.691,283.05 514.479,297.319 517.267,311.531 520.055,325.63 522.842,339.562 525.63,353.271 528.418,366.702 531.206,379.804 533.993,392.523 536.781,404.811 539.569,416.618 542.357,427.897 545.145,438.606 547.932,448.7 550.72,458.14 553.508,466.89 556.296,474.914 559.083,482.181 561.871,488.662 564.659,494.331 567.447,499.167 570.235,503.15 573.022,506.264 575.81,508.497 578.598,509.84 581.386,510.289 584.173,509.84 586.961,508.497 589.749,506.264 592.537,503.15 595.325,499.167 598.112,494.331 600.9,488.662 603.688,482.181 606.476,474.914 609.263,466.89 612.051,458.14 614.839,448.7 617.627,438.606 620.414,427.897 623.202,416.618 625.99,404.811 628.778,392.523 631.566,379.804 634.353,366.702 637.141,353.271 639.929,339.562 642.717,325.63 645.504,311.531 648.292,297.319 651.08,283.05" stroke-linejoin="round" fill="none" stroke-width="3" stroke-linecap="butt"/>
  </g>
  <clipPath id="cp00719744">
   <polygon points="0,744 719,744 719,0 0,0"/>
  </clipPath>
  <g clip-path="url(#cp00719744)">
   <polygon shape-rendering="crispEdges" points="117.29,736.149 627.315,736.149 627.315,580.043 117.29,580.043" fill="#ffffff"/>
   <polyline stroke-dasharray="16,0" stroke="#262626" points="117.29,736.149 627.315,736.149" stroke-linejoin="miter" fill="none" stroke-width="0.5" stroke-linecap="square"/>
   <polyline stroke-dasharray="16,0" stroke="#262626" points="117.29,580.043 627.315,580.043" stroke-linejoin="miter" fill="none" stroke-width="0.5" stroke-linecap="square"/>
   <polyline stroke-dasharray="16,0" stroke="#262626" points="117.29,736.149 117.29,580.043" stroke-linejoin="miter" fill="none" stroke-width="0.5" stroke-linecap="square"/>
   <polyline stroke-dasharray="16,0" stroke="#262626" points="627.315,736.149 627.315,580.043" stroke-linejoin="miter" fill="none" stroke-width="0.5" stroke-linecap="square"/>
   <polyline stroke="#00ff00" points="121.293,595.546 141.309,595.546" stroke-linejoin="round" fill="none" stroke-width="3" stroke-linecap="butt"/>
   <g transform="translate(145.312,607.046) rotate(-0,-0,-11.5)" font-style="normal" font-size="22.5" xml:space="preserve" font-family="FreeSans" font-weight="normal">
    <text fill="rgb(0,0,0)" y="-5" x="0 15 27 39 44 55 61 66 77 83 94 106 111 123 129 134 146 158 164 176 182 188 194 199 217 229 235 241 247 260 266 279 285 ">Analytic solution at time t = 1.2</text>
   </g>
   <polyline stroke="#ff9999" points="121.293,621.558 141.309,621.558" stroke-linejoin="round" fill="none" stroke-width="3" stroke-linecap="butt"/>
   <g transform="translate(145.312,631.058) rotate(-0,-0,-9.5)" font-style="normal" font-size="22.5" xml:space="preserve" font-family="FreeSans" font-weight="normal">
    <text fill="rgb(0,0,0)" y="-1" x="0 16 28 46 58 65 70 81 93 98 104 115 127 132 144 150 155 167 179 185 197 203 209 215 220 238 250 256 262 268 281 287 300 306 319 325 341 346 352 364 370 382 388 401 407 420 426 ">Numerical solution at time t = 1.2 with h = 0.1</text>
   </g>
   <polyline stroke="#ff0000" points="121.293,646.578 141.309,646.578" stroke-linejoin="round" fill="none" stroke-width="3" stroke-linecap="butt"/>
   <g transform="translate(145.312,656.078) rotate(-0,-0,-9.5)" font-style="normal" font-size="22.5" xml:space="preserve" font-family="FreeSans" font-weight="normal">
    <text fill="rgb(0,0,0)" y="-1" x="0 16 28 46 58 65 70 81 93 98 104 115 127 132 144 150 155 167 179 185 197 203 209 215 220 238 250 256 262 268 281 287 300 306 319 325 341 346 352 364 370 382 388 401 407 420 426 439 ">Numerical solution at time t = 1.2 with h = 0.05</text>
   </g>
   <polyline stroke="#990000" points="121.293,671.598 141.309,671.598" stroke-linejoin="round" fill="none" stroke-width="3" stroke-linecap="butt"/>
   <g transform="translate(145.312,681.098) rotate(-0,-0,-9.5)" font-style="normal" font-size="22.5" xml:space="preserve" font-family="FreeSans" font-weight="normal">
    <text fill="rgb(0,0,0)" y="-1" x="0 16 28 46 58 65 70 81 93 98 104 115 127 132 144 150 155 167 179 185 197 203 209 215 220 238 250 256 262 268 281 287 300 306 319 325 341 346 352 364 370 382 388 401 407 420 426 439 452 ">Numerical solution at time t = 1.2 with h = 0.025</text>
   </g>
   <polyline stroke="#330000" points="121.293,696.618 141.309,696.618" stroke-linejoin="round" fill="none" stroke-width="3" stroke-linecap="butt"/>
   <g transform="translate(145.312,706.118) rotate(-0,-0,-9.5)" font-style="normal" font-size="22.5" xml:space="preserve" font-family="FreeSans" font-weight="normal">
    <text fill="rgb(0,0,0)" y="-1" x="0 16 28 46 58 65 70 81 93 98 104 115 127 132 144 150 155 167 179 185 197 203 209 215 220 238 250 256 262 268 281 287 300 306 319 325 341 346 352 364 370 382 388 401 407 420 426 439 452 465 ">Numerical solution at time t = 1.2 with h = 0.0125</text>
   </g>
   <polyline stroke="#0000ff" points="121.293,721.638 141.309,721.638" stroke-linejoin="round" fill="none" stroke-width="3" stroke-linecap="butt"/>
   <g transform="translate(145.312,731.138) rotate(-0,-0,-9.5)" font-style="normal" font-size="22.5" xml:space="preserve" font-family="FreeSans" font-weight="normal">
    <text fill="rgb(0,0,0)" y="-1" x="0 6 18 23 29 34 46 51 57 68 80 92 105 110 116 121 133 ">Initial condition</text>
   </g>
  </g>
 </g>
</svg>
