<?xml version="1.0" encoding="UTF-8" standalone="no"?>
<svg
   height="744pt"
   width="719pt"
   viewBox="0 0 719 744"
   version="1.1"
   id="svg2887"
   sodipodi:docname="ex2-lw.svg"
   inkscape:export-filename="ex2-lw.pdf"
   inkscape:export-xdpi="96"
   inkscape:export-ydpi="96"
   inkscape:version="1.2.2 (b0a8486541, 2022-12-01)"
   xmlns:inkscape="http://www.inkscape.org/namespaces/inkscape"
   xmlns:sodipodi="http://sodipodi.sourceforge.net/DTD/sodipodi-0.dtd"
   xmlns="http://www.w3.org/2000/svg"
   xmlns:svg="http://www.w3.org/2000/svg">
  <sodipodi:namedview
     id="namedview2889"
     pagecolor="#ffffff"
     bordercolor="#999999"
     borderopacity="1"
     inkscape:showpageshadow="0"
     inkscape:pageopacity="0"
     inkscape:pagecheckerboard="0"
     inkscape:deskcolor="#d1d1d1"
     inkscape:document-units="pt"
     showgrid="false"
     inkscape:zoom="0.23790323"
     inkscape:cx="477.08475"
     inkscape:cy="496"
     inkscape:window-width="1373"
     inkscape:window-height="487"
     inkscape:window-x="0"
     inkscape:window-y="0"
     inkscape:window-maximized="0"
     inkscape:current-layer="svg2887" />
  <title
     id="title2704">Figure 1</title>
  <desc
     id="desc2706">
Creator: GL2PS 1.4.2, (C) 1999-2020 C. Geuzaine
For: Octave
CreationDate: Tue Jun  6 18:01:22 2023
</desc>
  <defs
     id="defs2708" />
  <polygon
     fill="#ffffff"
     points="0,0 719,0 719,744 0,744"
     id="polygon2710" />
  <g
     id="g2885">
    <polygon
       fill="#ffffff"
       points="0,744 719,744 719,0 0,0"
       shape-rendering="crispEdges"
       id="polygon2712" />
    <clipPath
       id="cp00719744">
      <polygon
         points="0,744 719,744 719,0 0,0"
         id="polygon2714" />
    </clipPath>
    <g
       clip-path="url(#cp00719744)"
       id="g2831">
      <polygon
         fill="#ffffff"
         points="93.5253,510.289 651.08,510.289 651.08,55.8117 93.5253,55.8117"
         shape-rendering="crispEdges"
         id="polygon2717" />
      <polyline
         stroke-linecap="butt"
         fill="none"
         points="93.5253,510.289 93.5253,504.707"
         stroke="#262626"
         stroke-width="3"
         stroke-linejoin="miter"
         id="polyline2719" />
      <polyline
         stroke-linecap="butt"
         fill="none"
         points="93.5253,55.8117 93.5253,61.3931"
         stroke="#262626"
         stroke-width="3"
         stroke-linejoin="miter"
         id="polyline2721" />
      <polyline
         stroke-linecap="butt"
         fill="none"
         points="232.914,510.289 232.914,504.707"
         stroke="#262626"
         stroke-width="3"
         stroke-linejoin="miter"
         id="polyline2723" />
      <polyline
         stroke-linecap="butt"
         fill="none"
         points="232.914,55.8117 232.914,61.3931"
         stroke="#262626"
         stroke-width="3"
         stroke-linejoin="miter"
         id="polyline2725" />
      <polyline
         stroke-linecap="butt"
         fill="none"
         points="372.303,510.289 372.303,504.707"
         stroke="#262626"
         stroke-width="3"
         stroke-linejoin="miter"
         id="polyline2727" />
      <polyline
         stroke-linecap="butt"
         fill="none"
         points="372.303,55.8117 372.303,61.3931"
         stroke="#262626"
         stroke-width="3"
         stroke-linejoin="miter"
         id="polyline2729" />
      <polyline
         stroke-linecap="butt"
         fill="none"
         points="511.691,510.289 511.691,504.707"
         stroke="#262626"
         stroke-width="3"
         stroke-linejoin="miter"
         id="polyline2731" />
      <polyline
         stroke-linecap="butt"
         fill="none"
         points="511.691,55.8117 511.691,61.3931"
         stroke="#262626"
         stroke-width="3"
         stroke-linejoin="miter"
         id="polyline2733" />
      <polyline
         stroke-linecap="butt"
         fill="none"
         points="651.08,510.289 651.08,504.707"
         stroke="#262626"
         stroke-width="3"
         stroke-linejoin="miter"
         id="polyline2735" />
      <polyline
         stroke-linecap="butt"
         fill="none"
         points="651.08,55.8117 651.08,61.3931"
         stroke="#262626"
         stroke-width="3"
         stroke-linejoin="miter"
         id="polyline2737" />
      <g
         transform="translate(82.5253,548.058) rotate(-0,11,-19)"
         font-style="normal"
         font-family="FreeSans"
         font-size="25"
         xml:space="preserve"
         font-weight="normal"
         id="g2741">
    <text
   x="0 8 "
   fill="rgb(38,38,38)"
   y="-0"
   id="text2739">-1</text>
   </g>
      <g
         transform="translate(211.914,548.058) rotate(-0,21,-19)"
         font-style="normal"
         font-family="FreeSans"
         font-size="25"
         xml:space="preserve"
         font-weight="normal"
         id="g2745">
    <text
   x="0 8 22 28 "
   fill="rgb(38,38,38)"
   y="-0"
   id="text2743">-0.5</text>
   </g>
      <g
         transform="translate(365.303,548.058) rotate(-0,7,-19)"
         font-style="normal"
         font-family="FreeSans"
         font-size="25"
         xml:space="preserve"
         font-weight="normal"
         id="g2749">
    <text
   x="0 "
   fill="rgb(38,38,38)"
   y="-0"
   id="text2747">0</text>
   </g>
      <g
         transform="translate(494.691,548.058) rotate(-0,17,-19)"
         font-style="normal"
         font-family="FreeSans"
         font-size="25"
         xml:space="preserve"
         font-weight="normal"
         id="g2753">
    <text
   x="0 14 20 "
   fill="rgb(38,38,38)"
   y="-0"
   id="text2751">0.5</text>
   </g>
      <g
         transform="translate(644.08,548.058) rotate(-0,7,-19)"
         font-style="normal"
         font-family="FreeSans"
         font-size="25"
         xml:space="preserve"
         font-weight="normal"
         id="g2757">
    <text
   x="0 "
   fill="rgb(38,38,38)"
   y="-0"
   id="text2755">1</text>
   </g>
      <polyline
         stroke-linecap="butt"
         fill="none"
         points="93.5253,510.289 99.0964,510.289"
         stroke="#262626"
         stroke-width="3"
         stroke-linejoin="miter"
         id="polyline2759" />
      <polyline
         stroke-linecap="butt"
         fill="none"
         points="651.08,510.289 645.509,510.289"
         stroke="#262626"
         stroke-width="3"
         stroke-linejoin="miter"
         id="polyline2761" />
      <polyline
         stroke-linecap="butt"
         fill="none"
         points="93.5253,396.669 99.0964,396.669"
         stroke="#262626"
         stroke-width="3"
         stroke-linejoin="miter"
         id="polyline2763" />
      <polyline
         stroke-linecap="butt"
         fill="none"
         points="651.08,396.669 645.509,396.669"
         stroke="#262626"
         stroke-width="3"
         stroke-linejoin="miter"
         id="polyline2765" />
      <polyline
         stroke-linecap="butt"
         fill="none"
         points="93.5253,283.05 99.0964,283.05"
         stroke="#262626"
         stroke-width="3"
         stroke-linejoin="miter"
         id="polyline2767" />
      <polyline
         stroke-linecap="butt"
         fill="none"
         points="651.08,283.05 645.509,283.05"
         stroke="#262626"
         stroke-width="3"
         stroke-linejoin="miter"
         id="polyline2769" />
      <polyline
         stroke-linecap="butt"
         fill="none"
         points="93.5253,169.431 99.0964,169.431"
         stroke="#262626"
         stroke-width="3"
         stroke-linejoin="miter"
         id="polyline2771" />
      <polyline
         stroke-linecap="butt"
         fill="none"
         points="651.08,169.431 645.509,169.431"
         stroke="#262626"
         stroke-width="3"
         stroke-linejoin="miter"
         id="polyline2773" />
      <polyline
         stroke-linecap="butt"
         fill="none"
         points="93.5253,55.8117 99.0964,55.8117"
         stroke="#262626"
         stroke-width="3"
         stroke-linejoin="miter"
         id="polyline2775" />
      <polyline
         stroke-linecap="butt"
         fill="none"
         points="651.08,55.8117 645.509,55.8117"
         stroke="#262626"
         stroke-width="3"
         stroke-linejoin="miter"
         id="polyline2777" />
      <g
         transform="translate(59.0353,519.789) rotate(-0,22,-9.5)"
         font-style="normal"
         font-family="FreeSans"
         font-size="25"
         xml:space="preserve"
         font-weight="normal"
         id="g2781">
    <text
   x="0 8 "
   fill="rgb(38,38,38)"
   y="-0"
   id="text2779">-1</text>
   </g>
      <g
         transform="translate(39.0353,406.169) rotate(-0,42,-9.5)"
         font-style="normal"
         font-family="FreeSans"
         font-size="25"
         xml:space="preserve"
         font-weight="normal"
         id="g2785">
    <text
   x="0 8 22 28 "
   fill="rgb(38,38,38)"
   y="-0"
   id="text2783">-0.5</text>
   </g>
      <g
         transform="translate(67.0353,292.55) rotate(-0,14,-9.5)"
         font-style="normal"
         font-family="FreeSans"
         font-size="25"
         xml:space="preserve"
         font-weight="normal"
         id="g2789">
    <text
   x="0 "
   fill="rgb(38,38,38)"
   y="-0"
   id="text2787">0</text>
   </g>
      <g
         transform="translate(47.0353,178.931) rotate(-0,34,-9.5)"
         font-style="normal"
         font-family="FreeSans"
         font-size="25"
         xml:space="preserve"
         font-weight="normal"
         id="g2793">
    <text
   x="0 14 20 "
   fill="rgb(38,38,38)"
   y="-0"
   id="text2791">0.5</text>
   </g>
      <g
         transform="translate(67.0353,65.3117) rotate(-0,14,-9.5)"
         font-style="normal"
         font-family="FreeSans"
         font-size="25"
         xml:space="preserve"
         font-weight="normal"
         id="g2797">
    <text
   x="0 "
   fill="rgb(38,38,38)"
   y="-0"
   id="text2795">1</text>
   </g>
      <polyline
         stroke-linecap="square"
         fill="none"
         points="93.5253,510.289 651.08,510.289"
         stroke-dasharray="48,0"
         stroke="#262626"
         stroke-width="3"
         stroke-linejoin="miter"
         id="polyline2799" />
      <polyline
         stroke-linecap="square"
         fill="none"
         points="93.5253,55.8117 651.08,55.8117"
         stroke-dasharray="48,0"
         stroke="#262626"
         stroke-width="3"
         stroke-linejoin="miter"
         id="polyline2801" />
      <polyline
         stroke-linecap="square"
         fill="none"
         points="93.5253,510.289 93.5253,55.8117"
         stroke-dasharray="48,0"
         stroke="#262626"
         stroke-width="3"
         stroke-linejoin="miter"
         id="polyline2803" />
      <polyline
         stroke-linecap="square"
         fill="none"
         points="651.08,510.289 651.08,55.8117"
         stroke-dasharray="48,0"
         stroke="#262626"
         stroke-width="3"
         stroke-linejoin="miter"
         id="polyline2805" />
      <g
         transform="translate(368.303,572.058) rotate(-0,4,-19)"
         font-style="normal"
         font-family="FreeSans"
         font-size="27.5"
         xml:space="preserve"
         font-weight="normal"
         id="g2809">
    <text
   x="0 "
   fill="rgb(38,38,38)"
   y="-0"
   id="text2807">t</text>
   </g>
      <g
         transform="translate(27.5353,283.05) rotate(-90,6.5,0)"
         font-style="normal"
         font-family="FreeSans"
         font-size="27.5"
         xml:space="preserve"
         font-weight="normal"
         id="g2813">
    <text
   x="0 "
   fill="rgb(38,38,38)"
   y="-0"
   id="text2811">x</text>
   </g>
      <g
         transform="translate(282.803,45.8117) rotate(-0,89.5,0)"
         font-style="normal"
         font-family="FreeSans"
         font-size="27.5"
         xml:space="preserve"
         font-weight="bold"
         id="g2817">
    <text
   x="0 17 33 48 57 83 99 116 133 144 161 170 "
   fill="rgb(0,0,0)"
   y="-1"
   id="text2815">Lax-Wendroff</text>
   </g>
      <polyline
         stroke-linecap="butt"
         fill="none"
         points="93.5253,499.167 96.313,494.331 99.1008,488.662 101.889,482.181 104.676,474.914 107.464,466.89 110.252,458.14 113.04,448.7 115.827,438.606 118.615,427.897 121.403,416.618 124.191,404.811 126.979,392.523 129.766,379.804 132.554,366.702 135.342,353.271 138.13,339.562 140.917,325.63 143.705,311.531 146.493,297.319 149.281,283.05 152.069,268.782 154.856,254.57 157.644,240.47 160.432,226.538 163.22,212.83 166.007,199.398 168.795,186.297 171.583,173.577 174.371,161.29 177.158,149.483 179.946,138.203 182.734,127.495 185.522,117.4 188.31,107.96 191.097,99.2104 193.885,91.1864 196.673,83.9196 199.461,77.4387 202.248,71.7692 205.036,66.9335 207.824,62.9508 210.612,59.8367 213.4,57.6035 216.187,56.2601 218.975,55.8117 221.763,56.2601 224.551,57.6035 227.338,59.8367 230.126,62.9508 232.914,66.9335 235.702,71.7692 238.49,77.4387 241.277,83.9196 244.065,91.1864 246.853,99.2104 249.641,107.96 252.428,117.4 255.216,127.495 258.004,138.203 260.792,149.483 263.579,161.29 266.367,173.577 269.155,186.297 271.943,199.398 274.731,212.83 277.518,226.538 280.306,240.47 283.094,254.57 285.882,268.782 288.669,283.05 291.457,297.319 294.245,311.531 297.033,325.63 299.821,339.562 302.608,353.271 305.396,366.702 308.184,379.804 310.972,392.523 313.759,404.811 316.547,416.618 319.335,427.897 322.123,438.606 324.91,448.7 327.698,458.14 330.486,466.89 333.274,474.914 336.062,482.181 338.849,488.662 341.637,494.331 344.425,499.167 347.213,503.15 350,506.264 352.788,508.497 355.576,509.84 358.364,510.289 361.152,509.84 363.939,508.497 366.727,506.264 369.515,503.15 372.303,499.167 375.09,494.331 377.878,488.662 380.666,482.181 383.454,474.914 386.242,466.89 389.029,458.14 391.817,448.7 394.605,438.606 397.393,427.897 400.18,416.618 402.968,404.811 405.756,392.523 408.544,379.804 411.331,366.702 414.119,353.271 416.907,339.562 419.695,325.63 422.483,311.531 425.27,297.319 428.058,283.05 430.846,268.782 433.634,254.57 436.421,240.47 439.209,226.538 441.997,212.83 444.785,199.398 447.573,186.297 450.36,173.577 453.148,161.29 455.936,149.483 458.724,138.203 461.511,127.495 464.299,117.4 467.087,107.96 469.875,99.2104 472.662,91.1864 475.45,83.9196 478.238,77.4387 481.026,71.7692 483.814,66.9335 486.601,62.9508 489.389,59.8367 492.177,57.6035 494.965,56.2601 497.752,55.8117 500.54,56.2601 503.328,57.6035 506.116,59.8367 508.904,62.9508 511.691,66.9335 514.479,71.7692 517.267,77.4387 520.055,83.9196 522.842,91.1864 525.63,99.2104 528.418,107.96 531.206,117.4 533.993,127.495 536.781,138.203 539.569,149.483 542.357,161.29 545.145,173.577 547.932,186.297 550.72,199.398 553.508,212.83 556.296,226.538 559.083,240.47 561.871,254.57 564.659,268.782 567.447,283.05 570.235,297.319 573.022,311.531 575.81,325.63 578.598,339.562 581.386,353.271 584.173,366.702 586.961,379.804 589.749,392.523 592.537,404.811 595.325,416.618 598.112,427.897 600.9,438.606 603.688,448.7 606.476,458.14 609.263,466.89 612.051,474.914 614.839,482.181 617.627,488.662 620.414,494.331 623.202,499.167 625.99,503.15 628.778,506.264 631.566,508.497 634.353,509.84 637.141,510.289 639.929,509.84 642.717,508.497 645.504,506.264 648.292,503.15 651.08,499.167"
         stroke="#00ff00"
         stroke-width="3"
         stroke-linejoin="round"
         id="polyline2819" />
      <polyline
         stroke-linecap="butt"
         fill="none"
         points="93.5253,472.549 121.403,378.804 149.281,248.485 177.158,131.368 205.036,72.1886 232.914,93.5511 260.792,187.296 288.669,317.616 316.547,434.732 344.425,493.912 372.303,472.549 400.18,378.804 428.058,248.485 455.936,131.368 483.814,72.1886 511.691,93.5511 539.569,187.296 567.447,317.616 595.325,434.732 623.202,493.912 651.08,472.549"
         stroke="#ff9999"
         stroke-width="3"
         stroke-linejoin="round"
         id="polyline2821" />
      <polyline
         stroke-linecap="butt"
         fill="none"
         points="93.5253,494.145 107.464,459.426 121.403,407.443 135.342,343.283 149.281,273.227 163.22,204.132 177.158,142.763 191.097,95.1257 205.036,65.8839 218.975,57.8999 232.914,71.9551 246.853,106.674 260.792,158.658 274.731,222.818 288.669,292.874 302.608,361.968 316.547,423.338 330.486,470.975 344.425,500.216 358.364,508.2 372.303,494.145 386.242,459.426 400.18,407.443 414.119,343.283 428.058,273.227 441.997,204.132 455.936,142.763 469.875,95.1257 483.814,65.8839 497.752,57.8999 511.691,71.9551 525.63,106.674 539.569,158.658 553.508,222.818 567.447,292.874 581.386,361.968 595.325,423.338 609.263,470.975 623.202,500.216 637.141,508.2 651.08,494.145"
         stroke="#ff0000"
         stroke-width="3"
         stroke-linejoin="round"
         id="polyline2823" />
      <polyline
         stroke-linecap="butt"
         fill="none"
         points="93.5253,498.149 100.495,484.153 107.464,465.206 114.434,441.773 121.403,414.432 128.372,383.856 135.342,350.797 142.311,316.071 149.281,280.531 156.25,245.054 163.22,210.512 170.189,177.756 177.158,147.593 184.128,120.765 191.097,97.9337 198.067,79.6602 205.036,66.3948 212.006,58.4642 218.975,56.0636 225.945,59.2522 232.914,67.9515 239.883,81.9471 246.853,100.895 253.822,124.327 260.792,151.669 267.761,182.245 274.731,215.303 281.7,250.029 288.669,285.569 295.639,321.046 302.608,355.588 309.578,388.344 316.547,418.507 323.517,445.335 330.486,468.167 337.455,486.44 344.425,499.706 351.394,507.636 358.364,510.037 365.333,506.848 372.303,498.149 379.272,484.153 386.242,465.206 393.211,441.773 400.18,414.432 407.15,383.856 414.119,350.797 421.089,316.071 428.058,280.531 435.028,245.054 441.997,210.512 448.966,177.756 455.936,147.593 462.905,120.765 469.875,97.9337 476.844,79.6602 483.814,66.3948 490.783,58.4642 497.752,56.0636 504.722,59.2522 511.691,67.9515 518.661,81.9471 525.63,100.895 532.6,124.327 539.569,151.669 546.538,182.245 553.508,215.303 560.477,250.029 567.447,285.569 574.416,321.046 581.386,355.588 588.355,388.344 595.325,418.507 602.294,445.335 609.263,468.167 616.233,486.44 623.202,499.706 630.172,507.636 637.141,510.037 644.111,506.848 651.08,498.149"
         stroke="#990000"
         stroke-width="3"
         stroke-linejoin="round"
         id="polyline2825" />
      <polyline
         stroke-linecap="butt"
         fill="none"
         points="93.5253,498.942 97.01,492.72 100.495,485.206 103.979,476.446 107.464,466.493 110.949,455.409 114.434,443.263 117.918,430.128 121.403,416.087 124.888,401.226 128.372,385.636 131.857,369.414 135.342,352.659 138.827,335.475 142.311,317.968 145.796,300.246 149.281,282.417 152.765,264.593 156.25,246.882 159.735,229.394 163.22,212.237 166.704,195.517 170.189,179.336 173.674,163.795 177.158,148.989 180.643,135.009 184.128,121.942 187.613,109.869 191.097,98.8632 194.582,88.9929 198.067,80.3192 201.552,72.8953 205.036,66.7671 208.521,61.9724 212.006,58.5407 215.49,56.4932 218.975,55.8424 222.46,56.5925 225.945,58.7388 229.429,62.268 232.914,67.1584 236.399,73.3799 239.883,80.894 243.368,89.6545 246.853,99.6074 250.338,110.691 253.822,122.838 257.307,135.972 260.792,150.013 264.276,164.874 267.761,180.464 271.246,196.686 274.731,213.441 278.215,230.625 281.7,248.132 285.185,265.855 288.669,283.683 292.154,301.508 295.639,319.219 299.124,336.706 302.608,353.863 306.093,370.584 309.578,386.764 313.062,402.306 316.547,417.112 320.032,431.091 323.517,444.158 327.001,456.231 330.486,467.237 333.971,477.107 337.455,485.781 340.94,493.205 344.425,499.333 347.91,504.128 351.394,507.56 354.879,509.607 358.364,510.258 361.848,509.508 365.333,507.362 368.818,503.832 372.303,498.942 375.787,492.72 379.272,485.206 382.757,476.446 386.242,466.493 389.726,455.409 393.211,443.263 396.696,430.128 400.18,416.087 403.665,401.226 407.15,385.636 410.635,369.414 414.119,352.659 417.604,335.475 421.089,317.968 424.573,300.246 428.058,282.417 431.543,264.593 435.028,246.882 438.512,229.394 441.997,212.237 445.482,195.517 448.966,179.336 452.451,163.795 455.936,148.989 459.421,135.009 462.905,121.942 466.39,109.869 469.875,98.8632 473.359,88.9929 476.844,80.3192 480.329,72.8953 483.814,66.7671 487.298,61.9724 490.783,58.5407 494.268,56.4932 497.752,55.8424 501.237,56.5925 504.722,58.7388 508.207,62.268 511.691,67.1584 515.176,73.3799 518.661,80.894 522.145,89.6545 525.63,99.6074 529.115,110.691 532.6,122.838 536.084,135.972 539.569,150.013 543.054,164.874 546.538,180.464 550.023,196.686 553.508,213.441 556.993,230.625 560.477,248.132 563.962,265.855 567.447,283.683 570.932,301.508 574.416,319.219 577.901,336.706 581.386,353.863 584.87,370.584 588.355,386.764 591.84,402.306 595.325,417.112 598.809,431.091 602.294,444.158 605.779,456.231 609.263,467.237 612.748,477.107 616.233,485.781 619.718,493.205 623.202,499.333 626.687,504.128 630.172,507.56 633.656,509.607 637.141,510.258 640.626,509.508 644.111,507.362 647.595,503.832 651.08,498.942"
         stroke="#330000"
         stroke-width="3"
         stroke-linejoin="round"
         id="polyline2827" />
      <polyline
         stroke-linecap="butt"
         fill="none"
         points="93.5253,283.05 96.313,268.782 99.1008,254.57 101.889,240.47 104.676,226.538 107.464,212.83 110.252,199.398 113.04,186.297 115.827,173.577 118.615,161.29 121.403,149.483 124.191,138.203 126.979,127.495 129.766,117.4 132.554,107.96 135.342,99.2104 138.13,91.1864 140.917,83.9196 143.705,77.4387 146.493,71.7692 149.281,66.9335 152.069,62.9508 154.856,59.8367 157.644,57.6035 160.432,56.2601 163.22,55.8117 166.007,56.2601 168.795,57.6035 171.583,59.8367 174.371,62.9508 177.158,66.9335 179.946,71.7692 182.734,77.4387 185.522,83.9196 188.31,91.1864 191.097,99.2104 193.885,107.96 196.673,117.4 199.461,127.495 202.248,138.203 205.036,149.483 207.824,161.29 210.612,173.577 213.4,186.297 216.187,199.398 218.975,212.83 221.763,226.538 224.551,240.47 227.338,254.57 230.126,268.782 232.914,283.05 235.702,297.319 238.49,311.531 241.277,325.63 244.065,339.562 246.853,353.271 249.641,366.702 252.428,379.804 255.216,392.523 258.004,404.811 260.792,416.618 263.579,427.897 266.367,438.606 269.155,448.7 271.943,458.14 274.731,466.89 277.518,474.914 280.306,482.181 283.094,488.662 285.882,494.331 288.669,499.167 291.457,503.15 294.245,506.264 297.033,508.497 299.821,509.84 302.608,510.289 305.396,509.84 308.184,508.497 310.972,506.264 313.759,503.15 316.547,499.167 319.335,494.331 322.123,488.662 324.91,482.181 327.698,474.914 330.486,466.89 333.274,458.14 336.062,448.7 338.849,438.606 341.637,427.897 344.425,416.618 347.213,404.811 350,392.523 352.788,379.804 355.576,366.702 358.364,353.271 361.152,339.562 363.939,325.63 366.727,311.531 369.515,297.319 372.303,283.05 375.09,268.782 377.878,254.57 380.666,240.47 383.454,226.538 386.242,212.83 389.029,199.398 391.817,186.297 394.605,173.577 397.393,161.29 400.18,149.483 402.968,138.203 405.756,127.495 408.544,117.4 411.331,107.96 414.119,99.2104 416.907,91.1864 419.695,83.9196 422.483,77.4387 425.27,71.7692 428.058,66.9335 430.846,62.9508 433.634,59.8367 436.421,57.6035 439.209,56.2601 441.997,55.8117 444.785,56.2601 447.573,57.6035 450.36,59.8367 453.148,62.9508 455.936,66.9335 458.724,71.7692 461.511,77.4387 464.299,83.9196 467.087,91.1864 469.875,99.2104 472.662,107.96 475.45,117.4 478.238,127.495 481.026,138.203 483.814,149.483 486.601,161.29 489.389,173.577 492.177,186.297 494.965,199.398 497.752,212.83 500.54,226.538 503.328,240.47 506.116,254.57 508.904,268.782 511.691,283.05 514.479,297.319 517.267,311.531 520.055,325.63 522.842,339.562 525.63,353.271 528.418,366.702 531.206,379.804 533.993,392.523 536.781,404.811 539.569,416.618 542.357,427.897 545.145,438.606 547.932,448.7 550.72,458.14 553.508,466.89 556.296,474.914 559.083,482.181 561.871,488.662 564.659,494.331 567.447,499.167 570.235,503.15 573.022,506.264 575.81,508.497 578.598,509.84 581.386,510.289 584.173,509.84 586.961,508.497 589.749,506.264 592.537,503.15 595.325,499.167 598.112,494.331 600.9,488.662 603.688,482.181 606.476,474.914 609.263,466.89 612.051,458.14 614.839,448.7 617.627,438.606 620.414,427.897 623.202,416.618 625.99,404.811 628.778,392.523 631.566,379.804 634.353,366.702 637.141,353.271 639.929,339.562 642.717,325.63 645.504,311.531 648.292,297.319 651.08,283.05"
         stroke="#0000ff"
         stroke-width="3"
         stroke-linejoin="round"
         id="polyline2829" />
    </g>
    <clipPath
       id="clipPath2835">
      <polygon
         points="0,744 719,744 719,0 0,0"
         id="polygon2833" />
    </clipPath>
    <g
       clip-path="url(#cp00719744)"
       id="g2883">
      <polygon
         fill="#ffffff"
         points="117.29,736.149 627.315,736.149 627.315,580.043 117.29,580.043"
         shape-rendering="crispEdges"
         id="polygon2837" />
      <polyline
         stroke-linecap="square"
         fill="none"
         points="117.29,736.149 627.315,736.149"
         stroke-dasharray="16,0"
         stroke="#262626"
         stroke-width="0.5"
         stroke-linejoin="miter"
         id="polyline2839" />
      <polyline
         stroke-linecap="square"
         fill="none"
         points="117.29,580.043 627.315,580.043"
         stroke-dasharray="16,0"
         stroke="#262626"
         stroke-width="0.5"
         stroke-linejoin="miter"
         id="polyline2841" />
      <polyline
         stroke-linecap="square"
         fill="none"
         points="117.29,736.149 117.29,580.043"
         stroke-dasharray="16,0"
         stroke="#262626"
         stroke-width="0.5"
         stroke-linejoin="miter"
         id="polyline2843" />
      <polyline
         stroke-linecap="square"
         fill="none"
         points="627.315,736.149 627.315,580.043"
         stroke-dasharray="16,0"
         stroke="#262626"
         stroke-width="0.5"
         stroke-linejoin="miter"
         id="polyline2845" />
      <polyline
         stroke-linecap="butt"
         fill="none"
         points="121.293,595.546 141.309,595.546"
         stroke="#00ff00"
         stroke-width="3"
         stroke-linejoin="round"
         id="polyline2847" />
      <g
         transform="translate(145.312,607.046) rotate(-0,-0,-11.5)"
         font-style="normal"
         font-family="FreeSans"
         font-size="22.5"
         xml:space="preserve"
         font-weight="normal"
         id="g2851">
    <text
   x="0 15 27 39 44 55 61 66 77 83 94 106 111 123 129 134 146 158 164 176 182 188 194 199 217 229 235 241 247 260 266 279 285 "
   fill="rgb(0,0,0)"
   y="-5"
   id="text2849">Analytic solution at time t = 1.2</text>
   </g>
      <polyline
         stroke-linecap="butt"
         fill="none"
         points="121.293,621.558 141.309,621.558"
         stroke="#ff9999"
         stroke-width="3"
         stroke-linejoin="round"
         id="polyline2853" />
      <g
         transform="translate(145.312,631.058) rotate(-0,-0,-9.5)"
         font-style="normal"
         font-family="FreeSans"
         font-size="22.5"
         xml:space="preserve"
         font-weight="normal"
         id="g2857">
    <text
   x="0 16 28 46 58 65 70 81 93 98 104 115 127 132 144 150 155 167 179 185 197 203 209 215 220 238 250 256 262 268 281 287 300 306 319 325 341 346 352 364 370 382 388 401 407 420 426 "
   fill="rgb(0,0,0)"
   y="-1"
   id="text2855">Numerical solution at time t = 1.2 with h = 0.1</text>
   </g>
      <polyline
         stroke-linecap="butt"
         fill="none"
         points="121.293,646.578 141.309,646.578"
         stroke="#ff0000"
         stroke-width="3"
         stroke-linejoin="round"
         id="polyline2859" />
      <g
         transform="translate(145.312,656.078) rotate(-0,-0,-9.5)"
         font-style="normal"
         font-family="FreeSans"
         font-size="22.5"
         xml:space="preserve"
         font-weight="normal"
         id="g2863">
    <text
   x="0 16 28 46 58 65 70 81 93 98 104 115 127 132 144 150 155 167 179 185 197 203 209 215 220 238 250 256 262 268 281 287 300 306 319 325 341 346 352 364 370 382 388 401 407 420 426 439 "
   fill="rgb(0,0,0)"
   y="-1"
   id="text2861">Numerical solution at time t = 1.2 with h = 0.05</text>
   </g>
      <polyline
         stroke-linecap="butt"
         fill="none"
         points="121.293,671.598 141.309,671.598"
         stroke="#990000"
         stroke-width="3"
         stroke-linejoin="round"
         id="polyline2865" />
      <g
         transform="translate(145.312,681.098) rotate(-0,-0,-9.5)"
         font-style="normal"
         font-family="FreeSans"
         font-size="22.5"
         xml:space="preserve"
         font-weight="normal"
         id="g2869">
    <text
   x="0 16 28 46 58 65 70 81 93 98 104 115 127 132 144 150 155 167 179 185 197 203 209 215 220 238 250 256 262 268 281 287 300 306 319 325 341 346 352 364 370 382 388 401 407 420 426 439 452 "
   fill="rgb(0,0,0)"
   y="-1"
   id="text2867">Numerical solution at time t = 1.2 with h = 0.025</text>
   </g>
      <polyline
         stroke-linecap="butt"
         fill="none"
         points="121.293,696.618 141.309,696.618"
         stroke="#330000"
         stroke-width="3"
         stroke-linejoin="round"
         id="polyline2871" />
      <g
         transform="translate(145.312,706.118) rotate(-0,-0,-9.5)"
         font-style="normal"
         font-family="FreeSans"
         font-size="22.5"
         xml:space="preserve"
         font-weight="normal"
         id="g2875">
    <text
   x="0 16 28 46 58 65 70 81 93 98 104 115 127 132 144 150 155 167 179 185 197 203 209 215 220 238 250 256 262 268 281 287 300 306 319 325 341 346 352 364 370 382 388 401 407 420 426 439 452 465 "
   fill="rgb(0,0,0)"
   y="-1"
   id="text2873">Numerical solution at time t = 1.2 with h = 0.0125</text>
   </g>
      <polyline
         stroke-linecap="butt"
         fill="none"
         points="121.293,721.638 141.309,721.638"
         stroke="#0000ff"
         stroke-width="3"
         stroke-linejoin="round"
         id="polyline2877" />
      <g
         transform="translate(145.312,731.138) rotate(-0,-0,-9.5)"
         font-style="normal"
         font-family="FreeSans"
         font-size="22.5"
         xml:space="preserve"
         font-weight="normal"
         id="g2881">
    <text
   x="0 6 18 23 29 34 46 51 57 68 80 92 105 110 116 121 133 "
   fill="rgb(0,0,0)"
   y="-1"
   id="text2879">Initial condition</text>
   </g>
    </g>
  </g>
</svg>
