<?xml version='1.0' encoding='UTF-8' standalone='no'?>
<svg xmlns="http://www.w3.org/2000/svg" width="894pt" height="690pt" xmlns:xlink="http://www.w3.org/1999/xlink" viewBox="0 0 894 690">
 <title>Figure 1</title>
 <desc>
Creator: GL2PS 1.4.2, (C) 1999-2020 C. Geuzaine
For: Octave
CreationDate: Tue Jun  6 20:33:15 2023
</desc>
 <defs/>
 <polygon points="0,0 894,0 894,690 0,690" fill="#ffffff"/>
 <g>
  <polygon points="0,690 894,690 894,0 0,0" shape-rendering="crispEdges" fill="#ffffff"/>
  <clipPath id="cp00894690">
   <polygon points="0,690 894,690 894,0 0,0"/>
  </clipPath>
  <g clip-path="url(#cp00894690)">
   <polygon shape-rendering="crispEdges" points="116.225,431.171 809.103,431.171 809.103,51.8211 116.225,51.8211" fill="#ffffff"/>
   <polyline points="116.225,431.171 116.225,424.236" stroke="#262626" stroke-linejoin="miter" fill="none" stroke-width="4" stroke-linecap="butt"/>
   <polyline points="116.225,51.8211 116.225,58.7563" stroke="#262626" stroke-linejoin="miter" fill="none" stroke-width="4" stroke-linecap="butt"/>
   <polyline points="289.444,431.171 289.444,424.236" stroke="#262626" stroke-linejoin="miter" fill="none" stroke-width="4" stroke-linecap="butt"/>
   <polyline points="289.444,51.8211 289.444,58.7563" stroke="#262626" stroke-linejoin="miter" fill="none" stroke-width="4" stroke-linecap="butt"/>
   <polyline points="462.664,431.171 462.664,424.236" stroke="#262626" stroke-linejoin="miter" fill="none" stroke-width="4" stroke-linecap="butt"/>
   <polyline points="462.664,51.8211 462.664,58.7563" stroke="#262626" stroke-linejoin="miter" fill="none" stroke-width="4" stroke-linecap="butt"/>
   <polyline points="635.883,431.171 635.883,424.236" stroke="#262626" stroke-linejoin="miter" fill="none" stroke-width="4" stroke-linecap="butt"/>
   <polyline points="635.883,51.8211 635.883,58.7563" stroke="#262626" stroke-linejoin="miter" fill="none" stroke-width="4" stroke-linecap="butt"/>
   <polyline points="809.103,431.171 809.103,424.236" stroke="#262626" stroke-linejoin="miter" fill="none" stroke-width="4" stroke-linecap="butt"/>
   <polyline points="809.103,51.8211 809.103,58.7563" stroke="#262626" stroke-linejoin="miter" fill="none" stroke-width="4" stroke-linecap="butt"/>
   <g font-size="33" transform="translate(101.725,479.944) rotate(-0,14.5,-24)" font-style="normal" font-weight="normal" font-family="FreeSans" xml:space="preserve">
    <text y="-0" x="0 11 " fill="rgb(38,38,38)">-1</text>
   </g>
   <g font-size="33" transform="translate(280.444,479.944) rotate(-0,9,-24)" font-style="normal" font-weight="normal" font-family="FreeSans" xml:space="preserve">
    <text y="-0" x="0 " fill="rgb(38,38,38)">0</text>
   </g>
   <g font-size="33" transform="translate(453.664,479.944) rotate(-0,9,-24)" font-style="normal" font-weight="normal" font-family="FreeSans" xml:space="preserve">
    <text y="-0" x="0 " fill="rgb(38,38,38)">1</text>
   </g>
   <g font-size="33" transform="translate(626.883,479.944) rotate(-0,9,-24)" font-style="normal" font-weight="normal" font-family="FreeSans" xml:space="preserve">
    <text y="-0" x="0 " fill="rgb(38,38,38)">2</text>
   </g>
   <g font-size="33" transform="translate(800.103,479.944) rotate(-0,9,-24)" font-style="normal" font-weight="normal" font-family="FreeSans" xml:space="preserve">
    <text y="-0" x="0 " fill="rgb(38,38,38)">3</text>
   </g>
   <polyline points="116.225,431.171 123.152,431.171" stroke="#262626" stroke-linejoin="miter" fill="none" stroke-width="4" stroke-linecap="butt"/>
   <polyline points="809.103,431.171 802.175,431.171" stroke="#262626" stroke-linejoin="miter" fill="none" stroke-width="4" stroke-linecap="butt"/>
   <polyline points="116.225,355.301 123.152,355.301" stroke="#262626" stroke-linejoin="miter" fill="none" stroke-width="4" stroke-linecap="butt"/>
   <polyline points="809.103,355.301 802.175,355.301" stroke="#262626" stroke-linejoin="miter" fill="none" stroke-width="4" stroke-linecap="butt"/>
   <polyline points="116.225,279.431 123.152,279.431" stroke="#262626" stroke-linejoin="miter" fill="none" stroke-width="4" stroke-linecap="butt"/>
   <polyline points="809.103,279.431 802.175,279.431" stroke="#262626" stroke-linejoin="miter" fill="none" stroke-width="4" stroke-linecap="butt"/>
   <polyline points="116.225,203.561 123.152,203.561" stroke="#262626" stroke-linejoin="miter" fill="none" stroke-width="4" stroke-linecap="butt"/>
   <polyline points="809.103,203.561 802.175,203.561" stroke="#262626" stroke-linejoin="miter" fill="none" stroke-width="4" stroke-linecap="butt"/>
   <polyline points="116.225,127.691 123.152,127.691" stroke="#262626" stroke-linejoin="miter" fill="none" stroke-width="4" stroke-linecap="butt"/>
   <polyline points="809.103,127.691 802.175,127.691" stroke="#262626" stroke-linejoin="miter" fill="none" stroke-width="4" stroke-linecap="butt"/>
   <polyline points="116.225,51.8211 123.152,51.8211" stroke="#262626" stroke-linejoin="miter" fill="none" stroke-width="4" stroke-linecap="butt"/>
   <polyline points="809.103,51.8211 802.175,51.8211" stroke="#262626" stroke-linejoin="miter" fill="none" stroke-width="4" stroke-linecap="butt"/>
   <g font-size="33" transform="translate(81.7276,443.171) rotate(-0,18,-12)" font-style="normal" font-weight="normal" font-family="FreeSans" xml:space="preserve">
    <text y="-0" x="0 " fill="rgb(38,38,38)">0</text>
   </g>
   <g font-size="33" transform="translate(55.7276,367.301) rotate(-0,44,-12)" font-style="normal" font-weight="normal" font-family="FreeSans" xml:space="preserve">
    <text y="-0" x="0 18 26 " fill="rgb(38,38,38)">0.2</text>
   </g>
   <g font-size="33" transform="translate(55.7276,291.431) rotate(-0,44,-12)" font-style="normal" font-weight="normal" font-family="FreeSans" xml:space="preserve">
    <text y="-0" x="0 18 26 " fill="rgb(38,38,38)">0.4</text>
   </g>
   <g font-size="33" transform="translate(55.7276,215.561) rotate(-0,44,-12)" font-style="normal" font-weight="normal" font-family="FreeSans" xml:space="preserve">
    <text y="-0" x="0 18 26 " fill="rgb(38,38,38)">0.6</text>
   </g>
   <g font-size="33" transform="translate(55.7276,139.691) rotate(-0,44,-12)" font-style="normal" font-weight="normal" font-family="FreeSans" xml:space="preserve">
    <text y="-0" x="0 18 26 " fill="rgb(38,38,38)">0.8</text>
   </g>
   <g font-size="33" transform="translate(81.7276,63.8211) rotate(-0,18,-12)" font-style="normal" font-weight="normal" font-family="FreeSans" xml:space="preserve">
    <text y="-0" x="0 " fill="rgb(38,38,38)">1</text>
   </g>
   <polyline points="116.225,431.171 809.103,431.171" stroke="#262626" stroke-dasharray="64,0" stroke-linejoin="miter" fill="none" stroke-width="4" stroke-linecap="square"/>
   <polyline points="116.225,51.8211 809.103,51.8211" stroke="#262626" stroke-dasharray="64,0" stroke-linejoin="miter" fill="none" stroke-width="4" stroke-linecap="square"/>
   <polyline points="116.225,431.171 116.225,51.8211" stroke="#262626" stroke-dasharray="64,0" stroke-linejoin="miter" fill="none" stroke-width="4" stroke-linecap="square"/>
   <polyline points="809.103,431.171 809.103,51.8211" stroke="#262626" stroke-dasharray="64,0" stroke-linejoin="miter" fill="none" stroke-width="4" stroke-linecap="square"/>
   <g font-size="36.3" transform="translate(184.164,41.8211) rotate(-0,278.5,0)" font-style="normal" font-weight="bold" font-family="FreeSans" xml:space="preserve">
    <text y="-7" x="0 23 45 59 87 108 122 145 157 180 190 222 243 252 262 288 309 329 349 377 398 412 435 447 472 495 516 536 " fill="rgb(0,0,0)">Forward-Time, Backward-Space</text>
   </g>
   <g font-size="36.3" transform="translate(42.2276,241.496) rotate(-90,8.5,0)" font-style="normal" font-weight="normal" font-family="FreeSans" xml:space="preserve">
    <text y="-0" x="0 " fill="rgb(38,38,38)">x</text>
   </g>
   <g font-size="36.3" transform="translate(457.664,509.944) rotate(-0,5,-25)" font-style="normal" font-weight="normal" font-family="FreeSans" xml:space="preserve">
    <text y="-0" x="0 " fill="rgb(38,38,38)">t</text>
   </g>
   <polyline points="116.225,431.171 117.957,431.171 119.689,431.171 121.421,431.171 123.153,431.171 124.886,431.171 126.618,431.171 128.35,431.171 130.082,431.171 131.814,431.171 133.547,431.171 135.279,431.171 137.011,431.171 138.743,431.171 140.475,431.171 142.208,431.171 143.94,431.171 145.672,431.171 147.404,431.171 149.136,431.171 150.869,431.171 152.601,431.171 154.333,431.171 156.065,431.171 157.797,431.171 159.53,431.171 161.262,431.171 162.994,431.171 164.726,431.171 166.458,431.171 168.191,431.171 169.923,431.171 171.655,431.171 173.387,431.171 175.119,431.171 176.851,431.171 178.584,431.171 180.316,431.171 182.048,431.171 183.78,431.171 185.512,431.171 187.245,431.171 188.977,431.171 190.709,431.171 192.441,431.171 194.173,431.171 195.906,431.171 197.638,431.171 199.37,431.171 201.102,431.171 202.834,431.171 204.567,431.171 206.299,431.171 208.031,431.171 209.763,431.171 211.495,431.171 213.228,431.171 214.96,431.171 216.692,431.171 218.424,431.171 220.156,431.171 221.889,431.171 223.621,431.171 225.353,431.171 227.085,431.171 228.817,431.171 230.549,431.171 232.282,431.171 234.014,431.171 235.746,431.171 237.478,431.171 239.21,431.171 240.943,431.171 242.675,431.171 244.407,431.171 246.139,431.171 247.871,431.171 249.604,431.171 251.336,431.171 253.068,431.171 254.8,431.171 256.532,431.171 258.265,431.171 259.997,431.171 261.729,431.171 263.461,431.171 265.193,431.171 266.926,431.171 268.658,431.171 270.39,431.171 272.122,431.171 273.854,431.171 275.587,431.171 277.319,431.171 279.051,431.171 280.783,431.171 282.515,431.171 284.248,431.171 285.98,431.171 287.712,431.171 289.444,431.171 291.176,431.171 292.909,431.171 294.641,431.171 296.373,431.171 298.105,431.171 299.837,431.171 301.569,431.171 303.302,431.171 305.034,431.171 306.766,431.171 308.498,431.171 310.23,431.171 311.963,431.171 313.695,431.171 315.427,431.171 317.159,431.171 318.891,431.171 320.624,431.171 322.356,431.171 324.088,431.171 325.82,431.171 327.552,431.171 329.285,431.171 331.017,431.171 332.749,431.171 334.481,431.171 336.213,431.171 337.946,431.171 339.678,431.171 341.41,431.171 343.142,431.171 344.874,431.171 346.607,431.171 348.339,431.171 350.071,431.171 351.803,431.171 353.535,431.171 355.268,431.171 357,431.171 358.732,431.171 360.464,431.171 362.196,431.171 363.928,431.171 365.661,431.171 367.393,431.171 369.125,431.171 370.857,431.171 372.589,431.171 374.322,431.171 376.054,431.171 377.786,431.171 379.518,431.171 381.25,431.171 382.983,431.171 384.715,431.171 386.447,431.171 388.179,431.171 389.911,431.171 391.644,431.171 393.376,431.171 395.108,431.171 396.84,431.171 398.572,431.171 400.305,431.171 402.037,431.171 403.769,431.171 405.501,431.171 407.233,431.171 408.966,431.171 410.698,431.171 412.43,431.171 414.162,431.171 415.894,431.171 417.627,431.171 419.359,431.171 421.091,431.171 422.823,431.171 424.555,431.171 426.288,431.171 428.02,431.171 429.752,431.171 431.484,431.171 433.216,431.171 434.948,431.171 436.681,431.171 438.413,431.171 440.145,431.171 441.877,431.171 443.609,431.171 445.342,431.171 447.074,431.171 448.806,431.171 450.538,431.171 452.27,431.171 454.003,431.171 455.735,431.171 457.467,431.171 459.199,431.171 460.931,431.171 462.664,431.171 464.396,431.171 466.128,431.171 467.86,431.171 469.592,431.171 471.325,431.171 473.057,431.171 474.789,431.171 476.521,431.171 478.253,431.171 479.986,431.171 481.718,431.171 483.45,431.171 485.182,431.171 486.914,431.171 488.646,431.171 490.379,431.171 492.111,431.171 493.843,431.171 495.575,431.171 497.307,431.171 499.04,431.171 500.772,431.171 502.504,431.171 504.236,431.171 505.968,431.171 507.701,431.171 509.433,431.171 511.165,431.171 512.897,431.171 514.629,431.171 516.362,431.171 518.094,431.171 519.826,431.171 521.558,431.171 523.29,431.171 525.023,431.171 526.755,431.171 528.487,431.171 530.219,431.171 531.951,431.171 533.684,431.171 535.416,431.171 537.148,431.171 538.88,431.171 540.612,431.171 542.345,431.171 544.077,431.171 545.809,431.171 547.541,431.171 549.273,431.171 551.005,431.171 552.738,431.171 554.47,431.171 556.202,431.171 557.934,431.171 559.666,431.171 561.399,431.171 563.131,431.171 564.863,431.171 566.595,431.171 568.327,431.171 570.06,431.171 571.792,431.171 573.524,431.171 575.256,431.171 576.988,431.171 578.721,431.171 580.453,431.171 582.185,431.171 583.917,431.171 585.649,431.171 587.382,431.171 589.114,431.171 590.846,431.171 592.578,431.171 594.31,431.171 596.043,431.171 597.775,431.171 599.507,431.171 601.239,431.171 602.971,431.171 604.704,431.171 606.436,431.171 608.168,431.171 609.9,431.171 611.632,431.171 613.365,431.171 615.097,431.171 616.829,431.171 618.561,431.171 620.293,430.797 622.025,429.675 623.758,427.811 625.49,425.212 627.222,421.888 628.954,417.851 630.686,413.119 632.419,407.71 634.151,401.644 635.883,394.946 637.615,387.643 639.347,379.763 641.08,371.338 642.812,362.4 644.544,352.984 646.276,343.129 648.008,332.873 649.741,322.256 651.473,311.32 653.205,300.109 654.937,288.666 656.669,277.038 658.402,265.269 660.134,253.406 661.866,241.496 663.598,229.586 665.33,217.724 667.063,205.955 668.795,194.326 670.527,182.883 672.259,171.672 673.991,160.736 675.724,150.12 677.456,139.863 679.188,130.008 680.92,120.593 682.652,111.655 684.385,103.229 686.117,95.349 687.849,88.0458 689.581,81.3482 691.313,75.2827 693.045,69.873 694.778,65.1408 696.51,61.1045 698.242,57.7802 699.974,55.1808 701.706,53.3168 703.439,52.1954 705.171,51.8211 706.903,52.1954 708.635,53.3168 710.367,55.1808 712.1,57.7802 713.832,61.1045 715.564,65.1408 717.296,69.873 719.028,75.2827 720.761,81.3482 722.493,88.0458 724.225,95.349 725.957,103.229 727.689,111.655 729.422,120.593 731.154,130.008 732.886,139.863 734.618,150.12 736.35,160.736 738.083,171.672 739.815,182.883 741.547,194.326 743.279,205.955 745.011,217.724 746.744,229.586 748.476,241.496 750.208,253.406 751.94,265.269 753.672,277.038 755.404,288.666 757.137,300.109 758.869,311.32 760.601,322.256 762.333,332.873 764.065,343.129 765.798,352.984 767.53,362.4 769.262,371.338 770.994,379.763 772.726,387.643 774.459,394.946 776.191,401.644 777.923,407.71 779.655,413.119 781.387,417.851 783.12,421.888 784.852,425.212 786.584,427.811 788.316,429.675 790.048,430.797 791.781,431.171 793.513,431.171 795.245,431.171 796.977,431.171 798.709,431.171 800.442,431.171 802.174,431.171 803.906,431.171 805.638,431.171 807.37,431.171 809.103,431.171" stroke="#00ff00" stroke-linejoin="round" fill="none" stroke-width="4" stroke-linecap="butt"/>
   <polyline points="116.225,431.171 133.547,431.171 150.869,431.171 168.191,431.171 185.512,431.171 202.834,431.171 220.156,431.171 237.478,431.171 254.8,431.171 272.122,431.171 289.444,431.171 306.766,431.171 324.088,431.171 341.41,431.171 358.732,431.171 376.054,431.171 393.376,431.171 410.698,431.171 428.02,431.171 445.342,431.171 462.664,431.168 479.986,431.156 497.307,431.109 514.629,430.941 531.951,430.403 549.273,428.887 566.595,425.103 583.917,416.763 601.239,400.601 618.561,373.214 635.883,332.991 653.205,282.562 670.527,230.18 687.849,188.311 705.171,169.195 722.493,179.394 739.815,216.499 757.137,270.025 774.459,325.98 791.781,372.568 809.103,404.066" stroke="#ff9999" stroke-linejoin="round" fill="none" stroke-width="4" stroke-linecap="butt"/>
   <polyline points="116.225,431.171 124.886,431.171 133.547,431.171 142.208,431.171 150.869,431.171 159.53,431.171 168.191,431.171 176.851,431.171 185.512,431.171 194.173,431.171 202.834,431.171 211.495,431.171 220.156,431.171 228.817,431.171 237.478,431.171 246.139,431.171 254.8,431.171 263.461,431.171 272.122,431.171 280.783,431.171 289.444,431.171 298.105,431.171 306.766,431.171 315.427,431.171 324.088,431.171 332.749,431.171 341.41,431.171 350.071,431.171 358.732,431.171 367.393,431.171 376.054,431.171 384.715,431.171 393.376,431.171 402.037,431.171 410.698,431.171 419.359,431.171 428.02,431.171 436.681,431.171 445.342,431.171 454.003,431.171 462.664,431.171 471.325,431.171 479.986,431.171 488.646,431.171 497.307,431.171 505.968,431.17 514.629,431.169 523.29,431.163 531.951,431.148 540.612,431.109 549.273,431.012 557.934,430.787 566.595,430.296 575.256,429.289 583.917,427.353 592.578,423.861 601.239,417.954 609.9,408.587 618.561,394.662 627.222,375.261 635.883,349.932 644.544,318.97 653.205,283.581 661.866,245.872 670.527,208.642 679.188,175.027 687.849,148.068 696.51,130.305 705.171,123.448 713.832,128.174 722.493,144.057 731.154,169.622 739.815,202.527 748.476,239.847 757.137,278.442 765.798,315.35 774.459,348.159 783.12,375.281 791.781,396.076 800.442,410.79 809.103,420.333" stroke="#ff0000" stroke-linejoin="round" fill="none" stroke-width="4" stroke-linecap="butt"/>
   <polyline points="116.225,431.171 120.555,431.171 124.886,431.171 129.216,431.171 133.547,431.171 137.877,431.171 142.208,431.171 146.538,431.171 150.869,431.171 155.199,431.171 159.53,431.171 163.86,431.171 168.191,431.171 172.521,431.171 176.851,431.171 181.182,431.171 185.512,431.171 189.843,431.171 194.173,431.171 198.504,431.171 202.834,431.171 207.165,431.171 211.495,431.171 215.826,431.171 220.156,431.171 224.487,431.171 228.817,431.171 233.148,431.171 237.478,431.171 241.809,431.171 246.139,431.171 250.47,431.171 254.8,431.171 259.131,431.171 263.461,431.171 267.792,431.171 272.122,431.171 276.453,431.171 280.783,431.171 285.114,431.171 289.444,431.171 293.775,431.171 298.105,431.171 302.436,431.171 306.766,431.171 311.097,431.171 315.427,431.171 319.758,431.171 324.088,431.171 328.419,431.171 332.749,431.171 337.079,431.171 341.41,431.171 345.74,431.171 350.071,431.171 354.401,431.171 358.732,431.171 363.062,431.171 367.393,431.171 371.723,431.171 376.054,431.171 380.384,431.171 384.715,431.171 389.045,431.171 393.376,431.171 397.706,431.171 402.037,431.171 406.367,431.171 410.698,431.171 415.028,431.171 419.359,431.171 423.689,431.171 428.02,431.171 432.35,431.171 436.681,431.171 441.011,431.171 445.342,431.171 449.672,431.171 454.003,431.171 458.333,431.171 462.664,431.171 466.994,431.171 471.325,431.171 475.655,431.171 479.986,431.171 484.316,431.171 488.646,431.171 492.977,431.171 497.307,431.171 501.638,431.171 505.968,431.171 510.299,431.171 514.629,431.171 518.96,431.171 523.29,431.171 527.621,431.171 531.951,431.171 536.282,431.171 540.612,431.171 544.943,431.17 549.273,431.169 553.604,431.166 557.934,431.161 562.265,431.15 566.595,431.128 570.926,431.085 575.256,431.006 579.587,430.865 583.917,430.621 588.248,430.211 592.578,429.546 596.909,428.504 601.239,426.923 605.57,424.601 609.9,421.299 614.231,416.751 618.561,410.681 622.892,402.821 627.222,392.945 631.553,380.889 635.883,366.578 640.214,350.043 644.544,331.427 648.875,310.985 653.205,289.075 657.535,266.134 661.866,242.664 666.196,219.205 670.527,196.314 674.857,174.543 679.188,154.425 683.518,136.452 687.849,121.066 692.179,108.645 696.51,99.496 700.84,93.8431 705.171,91.826 709.501,93.4944 713.832,98.8072 718.162,107.634 722.493,119.757 726.823,134.88 731.154,152.63 735.484,172.575 739.815,194.229 744.145,217.067 748.476,240.546 752.806,264.114 757.137,287.237 761.467,309.412 765.798,330.193 770.128,349.207 774.459,366.174 778.789,380.917 783.12,393.368 787.45,403.569 791.781,411.657 796.111,417.848 800.442,422.411 804.772,425.641 809.103,427.83" stroke="#990000" stroke-linejoin="round" fill="none" stroke-width="4" stroke-linecap="butt"/>
   <polyline points="116.225,431.171 117.957,431.171 119.689,431.171 121.421,431.171 123.153,431.171 124.886,431.171 126.618,431.171 128.35,431.171 130.082,431.171 131.814,431.171 133.547,431.171 135.279,431.171 137.011,431.171 138.743,431.171 140.475,431.171 142.208,431.171 143.94,431.171 145.672,431.171 147.404,431.171 149.136,431.171 150.869,431.171 152.601,431.171 154.333,431.171 156.065,431.171 157.797,431.171 159.53,431.171 161.262,431.171 162.994,431.171 164.726,431.171 166.458,431.171 168.191,431.171 169.923,431.171 171.655,431.171 173.387,431.171 175.119,431.171 176.851,431.171 178.584,431.171 180.316,431.171 182.048,431.171 183.78,431.171 185.512,431.171 187.245,431.171 188.977,431.171 190.709,431.171 192.441,431.171 194.173,431.171 195.906,431.171 197.638,431.171 199.37,431.171 201.102,431.171 202.834,431.171 204.567,430.797 206.299,429.675 208.031,427.811 209.763,425.212 211.495,421.888 213.228,417.851 214.96,413.119 216.692,407.71 218.424,401.644 220.156,394.946 221.889,387.643 223.621,379.763 225.353,371.338 227.085,362.4 228.817,352.984 230.549,343.129 232.282,332.873 234.014,322.256 235.746,311.32 237.478,300.109 239.21,288.666 240.943,277.038 242.675,265.269 244.407,253.406 246.139,241.496 247.871,229.586 249.604,217.724 251.336,205.955 253.068,194.326 254.8,182.883 256.532,171.672 258.265,160.736 259.997,150.12 261.729,139.863 263.461,130.008 265.193,120.593 266.926,111.655 268.658,103.229 270.39,95.349 272.122,88.0458 273.854,81.3482 275.587,75.2827 277.319,69.873 279.051,65.1408 280.783,61.1045 282.515,57.7802 284.248,55.1808 285.98,53.3168 287.712,52.1954 289.444,51.8211 291.176,52.1954 292.909,53.3168 294.641,55.1808 296.373,57.7802 298.105,61.1045 299.837,65.1408 301.569,69.873 303.302,75.2827 305.034,81.3482 306.766,88.0458 308.498,95.349 310.23,103.229 311.963,111.655 313.695,120.593 315.427,130.008 317.159,139.863 318.891,150.12 320.624,160.736 322.356,171.672 324.088,182.883 325.82,194.326 327.552,205.955 329.285,217.724 331.017,229.586 332.749,241.496 334.481,253.406 336.213,265.269 337.946,277.038 339.678,288.666 341.41,300.109 343.142,311.32 344.874,322.256 346.607,332.873 348.339,343.129 350.071,352.984 351.803,362.4 353.535,371.338 355.268,379.763 357,387.643 358.732,394.946 360.464,401.644 362.196,407.71 363.928,413.119 365.661,417.851 367.393,421.888 369.125,425.212 370.857,427.811 372.589,429.675 374.322,430.797 376.054,431.171 377.786,431.171 379.518,431.171 381.25,431.171 382.983,431.171 384.715,431.171 386.447,431.171 388.179,431.171 389.911,431.171 391.644,431.171 393.376,431.171 395.108,431.171 396.84,431.171 398.572,431.171 400.305,431.171 402.037,431.171 403.769,431.171 405.501,431.171 407.233,431.171 408.966,431.171 410.698,431.171 412.43,431.171 414.162,431.171 415.894,431.171 417.627,431.171 419.359,431.171 421.091,431.171 422.823,431.171 424.555,431.171 426.288,431.171 428.02,431.171 429.752,431.171 431.484,431.171 433.216,431.171 434.948,431.171 436.681,431.171 438.413,431.171 440.145,431.171 441.877,431.171 443.609,431.171 445.342,431.171 447.074,431.171 448.806,431.171 450.538,431.171 452.27,431.171 454.003,431.171 455.735,431.171 457.467,431.171 459.199,431.171 460.931,431.171 462.664,431.171 464.396,431.171 466.128,431.171 467.86,431.171 469.592,431.171 471.325,431.171 473.057,431.171 474.789,431.171 476.521,431.171 478.253,431.171 479.986,431.171 481.718,431.171 483.45,431.171 485.182,431.171 486.914,431.171 488.646,431.171 490.379,431.171 492.111,431.171 493.843,431.171 495.575,431.171 497.307,431.171 499.04,431.171 500.772,431.171 502.504,431.171 504.236,431.171 505.968,431.171 507.701,431.171 509.433,431.171 511.165,431.171 512.897,431.171 514.629,431.171 516.362,431.171 518.094,431.171 519.826,431.171 521.558,431.171 523.29,431.171 525.023,431.171 526.755,431.171 528.487,431.171 530.219,431.171 531.951,431.171 533.684,431.171 535.416,431.171 537.148,431.171 538.88,431.171 540.612,431.171 542.345,431.171 544.077,431.171 545.809,431.171 547.541,431.171 549.273,431.171 551.005,431.171 552.738,431.171 554.47,431.171 556.202,431.171 557.934,431.171 559.666,431.171 561.399,431.171 563.131,431.171 564.863,431.171 566.595,431.171 568.327,431.171 570.06,431.171 571.792,431.171 573.524,431.171 575.256,431.171 576.988,431.171 578.721,431.171 580.453,431.171 582.185,431.171 583.917,431.171 585.649,431.171 587.382,431.171 589.114,431.171 590.846,431.171 592.578,431.171 594.31,431.171 596.043,431.171 597.775,431.171 599.507,431.171 601.239,431.171 602.971,431.171 604.704,431.171 606.436,431.171 608.168,431.171 609.9,431.171 611.632,431.171 613.365,431.171 615.097,431.171 616.829,431.171 618.561,431.171 620.293,431.171 622.025,431.171 623.758,431.171 625.49,431.171 627.222,431.171 628.954,431.171 630.686,431.171 632.419,431.171 634.151,431.171 635.883,431.171 637.615,431.171 639.347,431.171 641.08,431.171 642.812,431.171 644.544,431.171 646.276,431.171 648.008,431.171 649.741,431.171 651.473,431.171 653.205,431.171 654.937,431.171 656.669,431.171 658.402,431.171 660.134,431.171 661.866,431.171 663.598,431.171 665.33,431.171 667.063,431.171 668.795,431.171 670.527,431.171 672.259,431.171 673.991,431.171 675.724,431.171 677.456,431.171 679.188,431.171 680.92,431.171 682.652,431.171 684.385,431.171 686.117,431.171 687.849,431.171 689.581,431.171 691.313,431.171 693.045,431.171 694.778,431.171 696.51,431.171 698.242,431.171 699.974,431.171 701.706,431.171 703.439,431.171 705.171,431.171 706.903,431.171 708.635,431.171 710.367,431.171 712.1,431.171 713.832,431.171 715.564,431.171 717.296,431.171 719.028,431.171 720.761,431.171 722.493,431.171 724.225,431.171 725.957,431.171 727.689,431.171 729.422,431.171 731.154,431.171 732.886,431.171 734.618,431.171 736.35,431.171 738.083,431.171 739.815,431.171 741.547,431.171 743.279,431.171 745.011,431.171 746.744,431.171 748.476,431.171 750.208,431.171 751.94,431.171 753.672,431.171 755.404,431.171 757.137,431.171 758.869,431.171 760.601,431.171 762.333,431.171 764.065,431.171 765.798,431.171 767.53,431.171 769.262,431.171 770.994,431.171 772.726,431.171 774.459,431.171 776.191,431.171 777.923,431.171 779.655,431.171 781.387,431.171 783.12,431.171 784.852,431.171 786.584,431.171 788.316,431.171 790.048,431.171 791.781,431.171 793.513,431.171 795.245,431.171 796.977,431.171 798.709,431.171 800.442,431.171 802.174,431.171 803.906,431.171 805.638,431.171 807.37,431.171 809.103,431.171" stroke="#0000ff" stroke-linejoin="round" fill="none" stroke-width="4" stroke-linecap="butt"/>
  </g>
  <clipPath id="cp00894690">
   <polygon points="0,690 894,690 894,0 0,0"/>
  </clipPath>
  <g clip-path="url(#cp00894690)">
   <polygon shape-rendering="crispEdges" points="143.151,682.942 782.176,682.942 782.176,517.954 143.151,517.954" fill="#ffffff"/>
   <polyline points="143.151,682.942 782.176,682.942" stroke="#262626" stroke-dasharray="16,0" stroke-linejoin="miter" fill="none" stroke-width="0.5" stroke-linecap="square"/>
   <polyline points="143.151,517.954 782.176,517.954" stroke="#262626" stroke-dasharray="16,0" stroke-linejoin="miter" fill="none" stroke-width="0.5" stroke-linecap="square"/>
   <polyline points="143.151,682.942 143.151,517.954" stroke="#262626" stroke-dasharray="16,0" stroke-linejoin="miter" fill="none" stroke-width="0.5" stroke-linecap="square"/>
   <polyline points="782.176,682.942 782.176,517.954" stroke="#262626" stroke-dasharray="16,0" stroke-linejoin="miter" fill="none" stroke-width="0.5" stroke-linecap="square"/>
   <polyline points="147.154,536.957 167.17,536.957" stroke="#00ff00" stroke-linejoin="round" fill="none" stroke-width="4" stroke-linecap="butt"/>
   <g font-size="29.7" transform="translate(171.173,551.957) rotate(-0,-0,-15)" font-style="normal" font-weight="normal" font-family="FreeSans" xml:space="preserve">
    <text y="-7" x="0 20 36 52 58 72 80 87 102 109 124 140 146 162 170 177 193 209 216 232 240 247 255 262 286 302 309 317 324 341 348 365 372 " fill="rgb(0,0,0)">Analytic solution at time t = 2.4</text>
   </g>
   <polyline points="147.154,569.831 167.17,569.831" stroke="#ff9999" stroke-linejoin="round" fill="none" stroke-width="4" stroke-linecap="butt"/>
   <g font-size="29.7" transform="translate(171.173,581.831) rotate(-0,-0,-12)" font-style="normal" font-weight="normal" font-family="FreeSans" xml:space="preserve">
    <text y="-1" x="0 22 38 62 78 88 95 110 126 132 139 154 170 176 192 200 207 223 239 246 262 270 277 285 292 316 332 339 347 354 371 378 395 402 419 426 447 454 462 478 485 501 508 525 532 549 556 " fill="rgb(0,0,0)">Numerical solution at time t = 2.4 with h = 0.1</text>
   </g>
   <polyline points="147.154,601.577 167.17,601.577" stroke="#ff0000" stroke-linejoin="round" fill="none" stroke-width="4" stroke-linecap="butt"/>
   <g font-size="29.7" transform="translate(171.173,613.577) rotate(-0,-0,-12)" font-style="normal" font-weight="normal" font-family="FreeSans" xml:space="preserve">
    <text y="-1" x="0 22 38 62 78 88 95 110 126 132 139 154 170 176 192 200 207 223 239 246 262 270 277 285 292 316 332 339 347 354 371 378 395 402 419 426 447 454 462 478 485 501 508 525 532 549 556 573 " fill="rgb(0,0,0)">Numerical solution at time t = 2.4 with h = 0.05</text>
   </g>
   <polyline points="147.154,633.322 167.17,633.322" stroke="#990000" stroke-linejoin="round" fill="none" stroke-width="4" stroke-linecap="butt"/>
   <g font-size="29.7" transform="translate(171.173,645.322) rotate(-0,-0,-12)" font-style="normal" font-weight="normal" font-family="FreeSans" xml:space="preserve">
    <text y="-1" x="0 22 38 62 78 88 95 110 126 132 139 154 170 176 192 200 207 223 239 246 262 270 277 285 292 316 332 339 347 354 371 378 395 402 419 426 447 454 462 478 485 501 508 525 532 549 556 573 590 " fill="rgb(0,0,0)">Numerical solution at time t = 2.4 with h = 0.025</text>
   </g>
   <polyline points="147.154,665.068 167.17,665.068" stroke="#0000ff" stroke-linejoin="round" fill="none" stroke-width="4" stroke-linecap="butt"/>
   <g font-size="29.7" transform="translate(171.173,677.067) rotate(-0,-0,-12)" font-style="normal" font-weight="normal" font-family="FreeSans" xml:space="preserve">
    <text y="-1" x="0 8 24 31 39 46 62 68 75 90 106 122 139 146 154 161 177 " fill="rgb(0,0,0)">Initial condition</text>
   </g>
  </g>
 </g>
</svg>
