<?xml version='1.0' encoding='UTF-8' standalone='no'?>
<svg width="894pt" height="690pt" viewBox="0 0 894 690" xmlns:xlink="http://www.w3.org/1999/xlink" xmlns="http://www.w3.org/2000/svg">
 <title>Figure 1</title>
 <desc>
Creator: GL2PS 1.4.2, (C) 1999-2020 C. Geuzaine
For: Octave
CreationDate: Tue Jun  6 21:13:31 2023
</desc>
 <defs/>
 <polygon points="0,0 894,0 894,690 0,690" fill="#ffffff"/>
 <g>
  <polygon points="0,690 894,690 894,0 0,0" fill="#ffffff" shape-rendering="crispEdges"/>
  <clipPath id="cp00894690">
   <polygon points="0,690 894,690 894,0 0,0"/>
  </clipPath>
  <g clip-path="url(#cp00894690)">
   <polygon points="143.497,431.171 809.103,431.171 809.103,51.8211 143.497,51.8211" fill="#ffffff" shape-rendering="crispEdges"/>
   <polyline stroke-linejoin="miter" stroke="#262626" points="143.497,431.171 143.497,424.509" stroke-linecap="butt" stroke-width="4" fill="none"/>
   <polyline stroke-linejoin="miter" stroke="#262626" points="143.497,51.8211 143.497,58.4833" stroke-linecap="butt" stroke-width="4" fill="none"/>
   <polyline stroke-linejoin="miter" stroke="#262626" points="309.898,431.171 309.898,424.509" stroke-linecap="butt" stroke-width="4" fill="none"/>
   <polyline stroke-linejoin="miter" stroke="#262626" points="309.898,51.8211 309.898,58.4833" stroke-linecap="butt" stroke-width="4" fill="none"/>
   <polyline stroke-linejoin="miter" stroke="#262626" points="476.3,431.171 476.3,424.509" stroke-linecap="butt" stroke-width="4" fill="none"/>
   <polyline stroke-linejoin="miter" stroke="#262626" points="476.3,51.8211 476.3,58.4833" stroke-linecap="butt" stroke-width="4" fill="none"/>
   <polyline stroke-linejoin="miter" stroke="#262626" points="642.701,431.171 642.701,424.509" stroke-linecap="butt" stroke-width="4" fill="none"/>
   <polyline stroke-linejoin="miter" stroke="#262626" points="642.701,51.8211 642.701,58.4833" stroke-linecap="butt" stroke-width="4" fill="none"/>
   <polyline stroke-linejoin="miter" stroke="#262626" points="809.103,431.171 809.103,424.509" stroke-linecap="butt" stroke-width="4" fill="none"/>
   <polyline stroke-linejoin="miter" stroke="#262626" points="809.103,51.8211 809.103,58.4833" stroke-linecap="butt" stroke-width="4" fill="none"/>
   <g font-style="normal" font-weight="normal" xml:space="preserve" font-family="FreeSans" font-size="33" transform="translate(128.997,479.944) rotate(-0,14.5,-24)">
    <text x="0 11 " y="-0" fill="rgb(38,38,38)">-1</text>
   </g>
   <g font-style="normal" font-weight="normal" xml:space="preserve" font-family="FreeSans" font-size="33" transform="translate(300.898,479.944) rotate(-0,9,-24)">
    <text x="0 " y="-0" fill="rgb(38,38,38)">0</text>
   </g>
   <g font-style="normal" font-weight="normal" xml:space="preserve" font-family="FreeSans" font-size="33" transform="translate(467.3,479.944) rotate(-0,9,-24)">
    <text x="0 " y="-0" fill="rgb(38,38,38)">1</text>
   </g>
   <g font-style="normal" font-weight="normal" xml:space="preserve" font-family="FreeSans" font-size="33" transform="translate(633.701,479.944) rotate(-0,9,-24)">
    <text x="0 " y="-0" fill="rgb(38,38,38)">2</text>
   </g>
   <g font-style="normal" font-weight="normal" xml:space="preserve" font-family="FreeSans" font-size="33" transform="translate(800.103,479.944) rotate(-0,9,-24)">
    <text x="0 " y="-0" fill="rgb(38,38,38)">3</text>
   </g>
   <polyline stroke-linejoin="miter" stroke="#262626" points="143.497,431.171 150.149,431.171" stroke-linecap="butt" stroke-width="4" fill="none"/>
   <polyline stroke-linejoin="miter" stroke="#262626" points="809.103,431.171 802.45,431.171" stroke-linecap="butt" stroke-width="4" fill="none"/>
   <polyline stroke-linejoin="miter" stroke="#262626" points="143.497,367.946 150.149,367.946" stroke-linecap="butt" stroke-width="4" fill="none"/>
   <polyline stroke-linejoin="miter" stroke="#262626" points="809.103,367.946 802.45,367.946" stroke-linecap="butt" stroke-width="4" fill="none"/>
   <polyline stroke-linejoin="miter" stroke="#262626" points="143.497,304.721 150.149,304.721" stroke-linecap="butt" stroke-width="4" fill="none"/>
   <polyline stroke-linejoin="miter" stroke="#262626" points="809.103,304.721 802.45,304.721" stroke-linecap="butt" stroke-width="4" fill="none"/>
   <polyline stroke-linejoin="miter" stroke="#262626" points="143.497,241.496 150.149,241.496" stroke-linecap="butt" stroke-width="4" fill="none"/>
   <polyline stroke-linejoin="miter" stroke="#262626" points="809.103,241.496 802.45,241.496" stroke-linecap="butt" stroke-width="4" fill="none"/>
   <polyline stroke-linejoin="miter" stroke="#262626" points="143.497,178.271 150.149,178.271" stroke-linecap="butt" stroke-width="4" fill="none"/>
   <polyline stroke-linejoin="miter" stroke="#262626" points="809.103,178.271 802.45,178.271" stroke-linecap="butt" stroke-width="4" fill="none"/>
   <polyline stroke-linejoin="miter" stroke="#262626" points="143.497,115.046 150.149,115.046" stroke-linecap="butt" stroke-width="4" fill="none"/>
   <polyline stroke-linejoin="miter" stroke="#262626" points="809.103,115.046 802.45,115.046" stroke-linecap="butt" stroke-width="4" fill="none"/>
   <polyline stroke-linejoin="miter" stroke="#262626" points="143.497,51.8211 150.149,51.8211" stroke-linecap="butt" stroke-width="4" fill="none"/>
   <polyline stroke-linejoin="miter" stroke="#262626" points="809.103,51.8211 802.45,51.8211" stroke-linecap="butt" stroke-width="4" fill="none"/>
   <g font-style="normal" font-weight="normal" xml:space="preserve" font-family="FreeSans" font-size="33" transform="translate(25.0069,443.171) rotate(-0,102,-12)">
    <text x="0 11 29 47 66 84 " y="-0" fill="rgb(38,38,38)">-3e+09</text>
   </g>
   <g font-style="normal" font-weight="normal" xml:space="preserve" font-family="FreeSans" font-size="33" transform="translate(25.0069,379.946) rotate(-0,102,-12)">
    <text x="0 11 29 47 66 84 " y="-0" fill="rgb(38,38,38)">-2e+09</text>
   </g>
   <g font-style="normal" font-weight="normal" xml:space="preserve" font-family="FreeSans" font-size="33" transform="translate(25.0069,316.721) rotate(-0,102,-12)">
    <text x="0 11 29 47 66 84 " y="-0" fill="rgb(38,38,38)">-1e+09</text>
   </g>
   <g font-style="normal" font-weight="normal" xml:space="preserve" font-family="FreeSans" font-size="33" transform="translate(109.007,253.496) rotate(-0,18,-12)">
    <text x="0 " y="-0" fill="rgb(38,38,38)">0</text>
   </g>
   <g font-style="normal" font-weight="normal" xml:space="preserve" font-family="FreeSans" font-size="33" transform="translate(36.0069,190.271) rotate(-0,91,-12)">
    <text x="0 18 36 55 73 " y="-0" fill="rgb(38,38,38)">1e+09</text>
   </g>
   <g font-style="normal" font-weight="normal" xml:space="preserve" font-family="FreeSans" font-size="33" transform="translate(36.0069,127.046) rotate(-0,91,-12)">
    <text x="0 18 36 55 73 " y="-0" fill="rgb(38,38,38)">2e+09</text>
   </g>
   <g font-style="normal" font-weight="normal" xml:space="preserve" font-family="FreeSans" font-size="33" transform="translate(36.0069,63.8211) rotate(-0,91,-12)">
    <text x="0 18 36 55 73 " y="-0" fill="rgb(38,38,38)">3e+09</text>
   </g>
   <polyline stroke-dasharray="64,0" stroke-linejoin="miter" stroke="#262626" points="143.497,431.171 809.103,431.171" stroke-linecap="square" stroke-width="4" fill="none"/>
   <polyline stroke-dasharray="64,0" stroke-linejoin="miter" stroke="#262626" points="143.497,51.8211 809.103,51.8211" stroke-linecap="square" stroke-width="4" fill="none"/>
   <polyline stroke-dasharray="64,0" stroke-linejoin="miter" stroke="#262626" points="143.497,431.171 143.497,51.8211" stroke-linecap="square" stroke-width="4" fill="none"/>
   <polyline stroke-dasharray="64,0" stroke-linejoin="miter" stroke="#262626" points="809.103,431.171 809.103,51.8211" stroke-linecap="square" stroke-width="4" fill="none"/>
   <g font-style="normal" font-weight="normal" xml:space="preserve" font-family="FreeSans" font-size="36.3" transform="translate(471.3,509.944) rotate(-0,5,-25)">
    <text x="0 " y="-0" fill="rgb(38,38,38)">t</text>
   </g>
   <g font-style="normal" font-weight="normal" xml:space="preserve" font-family="FreeSans" font-size="36.3" transform="translate(11.5069,241.496) rotate(-90,8.5,0)">
    <text x="0 " y="-0" fill="rgb(38,38,38)">x</text>
   </g>
   <g font-style="normal" font-weight="bold" xml:space="preserve" font-family="FreeSans" font-size="36.3" transform="translate(204.3,41.8211) rotate(-0,272,0)">
    <text x="0 23 45 59 87 108 122 145 157 180 190 222 243 252 262 288 309 331 343 364 378 399 422 434 459 482 503 523 " y="-7" fill="rgb(0,0,0)">Forward-Time, Centered-Space</text>
   </g>
   <polyline stroke-linejoin="round" stroke="#00ff00" points="143.497,241.496 145.161,241.496 146.825,241.496 148.489,241.496 150.153,241.496 151.817,241.496 153.481,241.496 155.145,241.496 156.809,241.496 158.473,241.496 160.137,241.496 161.801,241.496 163.465,241.496 165.129,241.496 166.793,241.496 168.457,241.496 170.121,241.496 171.785,241.496 173.449,241.496 175.113,241.496 176.777,241.496 178.441,241.496 180.105,241.496 181.769,241.496 183.433,241.496 185.097,241.496 186.761,241.496 188.425,241.496 190.089,241.496 191.754,241.496 193.418,241.496 195.082,241.496 196.746,241.496 198.41,241.496 200.074,241.496 201.738,241.496 203.402,241.496 205.066,241.496 206.73,241.496 208.394,241.496 210.058,241.496 211.722,241.496 213.386,241.496 215.05,241.496 216.714,241.496 218.378,241.496 220.042,241.496 221.706,241.496 223.37,241.496 225.034,241.496 226.698,241.496 228.362,241.496 230.026,241.496 231.69,241.496 233.354,241.496 235.018,241.496 236.682,241.496 238.346,241.496 240.01,241.496 241.674,241.496 243.338,241.496 245.002,241.496 246.666,241.496 248.33,241.496 249.994,241.496 251.658,241.496 253.322,241.496 254.986,241.496 256.65,241.496 258.314,241.496 259.978,241.496 261.642,241.496 263.306,241.496 264.97,241.496 266.634,241.496 268.298,241.496 269.962,241.496 271.626,241.496 273.29,241.496 274.954,241.496 276.618,241.496 278.282,241.496 279.946,241.496 281.61,241.496 283.274,241.496 284.938,241.496 286.602,241.496 288.266,241.496 289.93,241.496 291.594,241.496 293.258,241.496 294.922,241.496 296.586,241.496 298.25,241.496 299.914,241.496 301.578,241.496 303.242,241.496 304.906,241.496 306.57,241.496 308.234,241.496 309.898,241.496 311.562,241.496 313.227,241.496 314.891,241.496 316.555,241.496 318.219,241.496 319.883,241.496 321.547,241.496 323.211,241.496 324.875,241.496 326.539,241.496 328.203,241.496 329.867,241.496 331.531,241.496 333.195,241.496 334.859,241.496 336.523,241.496 338.187,241.496 339.851,241.496 341.515,241.496 343.179,241.496 344.843,241.496 346.507,241.496 348.171,241.496 349.835,241.496 351.499,241.496 353.163,241.496 354.827,241.496 356.491,241.496 358.155,241.496 359.819,241.496 361.483,241.496 363.147,241.496 364.811,241.496 366.475,241.496 368.139,241.496 369.803,241.496 371.467,241.496 373.131,241.496 374.795,241.496 376.459,241.496 378.123,241.496 379.787,241.496 381.451,241.496 383.115,241.496 384.779,241.496 386.443,241.496 388.107,241.496 389.771,241.496 391.435,241.496 393.099,241.496 394.763,241.496 396.427,241.496 398.091,241.496 399.755,241.496 401.419,241.496 403.083,241.496 404.747,241.496 406.411,241.496 408.075,241.496 409.739,241.496 411.403,241.496 413.067,241.496 414.731,241.496 416.395,241.496 418.059,241.496 419.723,241.496 421.387,241.496 423.051,241.496 424.715,241.496 426.379,241.496 428.043,241.496 429.707,241.496 431.371,241.496 433.035,241.496 434.699,241.496 436.363,241.496 438.027,241.496 439.692,241.496 441.356,241.496 443.02,241.496 444.684,241.496 446.348,241.496 448.012,241.496 449.676,241.496 451.34,241.496 453.004,241.496 454.668,241.496 456.332,241.496 457.996,241.496 459.66,241.496 461.324,241.496 462.988,241.496 464.652,241.496 466.316,241.496 467.98,241.496 469.644,241.496 471.308,241.496 472.972,241.496 474.636,241.496 476.3,241.496 477.964,241.496 479.628,241.496 481.292,241.496 482.956,241.496 484.62,241.496 486.284,241.496 487.948,241.496 489.612,241.496 491.276,241.496 492.94,241.496 494.604,241.496 496.268,241.496 497.932,241.496 499.596,241.496 501.26,241.496 502.924,241.496 504.588,241.496 506.252,241.496 507.916,241.496 509.58,241.496 511.244,241.496 512.908,241.496 514.572,241.496 516.236,241.496 517.9,241.496 519.564,241.496 521.228,241.496 522.892,241.496 524.556,241.496 526.22,241.496 527.884,241.496 529.548,241.496 531.212,241.496 532.876,241.496 534.54,241.496 536.204,241.496 537.868,241.496 539.532,241.496 541.196,241.496 542.86,241.496 544.524,241.496 546.188,241.496 547.852,241.496 549.516,241.496 551.18,241.496 552.844,241.496 554.508,241.496 556.172,241.496 557.836,241.496 559.5,241.496 561.165,241.496 562.829,241.496 564.493,241.496 566.157,241.496 567.821,241.496 569.485,241.496 571.149,241.496 572.813,241.496 574.477,241.496 576.141,241.496 577.805,241.496 579.469,241.496 581.133,241.496 582.797,241.496 584.461,241.496 586.125,241.496 587.789,241.496 589.453,241.496 591.117,241.496 592.781,241.496 594.445,241.496 596.109,241.496 597.773,241.496 599.437,241.496 601.101,241.496 602.765,241.496 604.429,241.496 606.093,241.496 607.757,241.496 609.421,241.496 611.085,241.496 612.749,241.496 614.413,241.496 616.077,241.496 617.741,241.496 619.405,241.496 621.069,241.496 622.733,241.496 624.397,241.496 626.061,241.496 627.725,241.496 629.389,241.496 631.053,241.496 632.717,241.496 634.381,241.496 636.045,241.496 637.709,241.496 639.373,241.496 641.037,241.496 642.701,241.496 644.365,241.496 646.029,241.496 647.693,241.496 649.357,241.496 651.021,241.496 652.685,241.496 654.349,241.496 656.013,241.496 657.677,241.496 659.341,241.496 661.005,241.496 662.669,241.496 664.333,241.496 665.997,241.496 667.661,241.496 669.325,241.496 670.989,241.496 672.653,241.496 674.317,241.496 675.981,241.496 677.645,241.496 679.31,241.496 680.974,241.496 682.638,241.496 684.302,241.496 685.966,241.496 687.63,241.496 689.294,241.496 690.958,241.496 692.622,241.496 694.286,241.496 695.95,241.496 697.614,241.496 699.278,241.496 700.942,241.496 702.606,241.496 704.27,241.496 705.934,241.496 707.598,241.496 709.262,241.496 710.926,241.496 712.59,241.496 714.254,241.496 715.918,241.496 717.582,241.496 719.246,241.496 720.91,241.496 722.574,241.496 724.238,241.496 725.902,241.496 727.566,241.496 729.23,241.496 730.894,241.496 732.558,241.496 734.222,241.496 735.886,241.496 737.55,241.496 739.214,241.496 740.878,241.496 742.542,241.496 744.206,241.496 745.87,241.496 747.534,241.496 749.198,241.496 750.862,241.496 752.526,241.496 754.19,241.496 755.854,241.496 757.518,241.496 759.182,241.496 760.846,241.496 762.51,241.496 764.174,241.496 765.838,241.496 767.502,241.496 769.166,241.496 770.83,241.496 772.494,241.496 774.158,241.496 775.822,241.496 777.486,241.496 779.15,241.496 780.814,241.496 782.478,241.496 784.142,241.496 785.806,241.496 787.47,241.496 789.134,241.496 790.798,241.496 792.462,241.496 794.126,241.496 795.79,241.496 797.454,241.496 799.118,241.496 800.782,241.496 802.446,241.496 804.111,241.496 805.774,241.496 807.439,241.496 809.103,241.496" stroke-linecap="butt" stroke-width="4" fill="none"/>
   <polyline stroke-linejoin="round" stroke="#ff9999" points="143.497,241.496 160.137,241.496 176.777,241.496 193.418,241.496 210.058,241.496 226.698,241.496 243.338,241.496 259.978,241.496 276.618,241.496 293.258,241.496 309.898,241.496 326.539,241.496 343.179,241.496 359.819,241.496 376.459,241.496 393.099,241.496 409.739,241.496 426.379,241.496 443.02,241.496 459.66,241.496 476.3,241.496 492.94,241.496 509.58,241.496 526.22,241.496 542.86,241.496 559.5,241.496 576.141,241.496 592.781,241.496 609.421,241.496 626.061,241.496 642.701,241.496 659.341,241.496 675.981,241.496 692.622,241.496 709.262,241.496 725.902,241.496 742.542,241.496 759.182,241.496 775.822,241.496 792.462,241.496 809.103,241.496" stroke-linecap="butt" stroke-width="4" fill="none"/>
   <polyline stroke-linejoin="round" stroke="#ff0000" points="143.497,241.496 151.817,241.496 160.137,241.496 168.457,241.496 176.777,241.496 185.097,241.496 193.418,241.496 201.738,241.496 210.058,241.496 218.378,241.496 226.698,241.496 235.018,241.496 243.338,241.496 251.658,241.496 259.978,241.496 268.298,241.496 276.618,241.496 284.938,241.496 293.258,241.496 301.578,241.496 309.898,241.496 318.219,241.496 326.539,241.496 334.859,241.496 343.179,241.496 351.499,241.496 359.819,241.496 368.139,241.496 376.459,241.496 384.779,241.496 393.099,241.496 401.419,241.496 409.739,241.496 418.059,241.496 426.379,241.496 434.699,241.496 443.02,241.496 451.34,241.496 459.66,241.496 467.98,241.496 476.3,241.496 484.62,241.496 492.94,241.496 501.26,241.496 509.58,241.496 517.9,241.496 526.22,241.496 534.54,241.496 542.86,241.496 551.18,241.496 559.5,241.496 567.821,241.496 576.141,241.496 584.461,241.496 592.781,241.496 601.101,241.496 609.421,241.496 617.741,241.496 626.061,241.496 634.381,241.496 642.701,241.496 651.021,241.496 659.341,241.496 667.661,241.496 675.981,241.496 684.302,241.496 692.622,241.496 700.942,241.496 709.262,241.496 717.582,241.496 725.902,241.496 734.222,241.496 742.542,241.496 750.862,241.496 759.182,241.496 767.502,241.496 775.822,241.496 784.142,241.496 792.462,241.496 800.782,241.496 809.103,241.496" stroke-linecap="butt" stroke-width="4" fill="none"/>
   <polyline stroke-linejoin="round" stroke="#990000" points="143.497,241.496 147.657,251.078 151.817,237.008 155.977,214.158 160.137,252.912 164.297,282.79 168.457,219.08 172.617,191.362 176.777,279.314 180.937,295.364 185.097,184.867 189.257,187.864 193.418,318.45 197.578,292.745 201.738,144.89 205.898,192.735 210.058,355.1 214.218,289.566 218.378,115.144 222.538,190.842 226.698,375.015 230.858,298.807 235.018,107.64 239.178,173.613 243.338,367.735 247.498,322.537 251.658,131.411 255.818,147.281 259.978,327.501 264.138,345.337 268.298,185.161 272.458,135.465 276.618,266.636 280.778,339.186 284.938,244.054 289.098,163.69 293.258,219.283 297.418,289.865 301.578,272.919 305.738,227.204 309.898,210.406 314.059,223.547 318.219,266.908 322.379,284.071 326.539,221.038 330.699,184.903 334.859,263.276 339.019,302.138 343.179,209.347 347.339,183.386 351.499,292.113 355.659,294.653 359.819,168.133 363.979,192.595 368.139,337.251 372.299,288.315 376.459,127.232 380.619,194.147 384.779,368.648 388.939,292.319 393.099,107.656 397.259,183.754 401.419,375.356 405.579,309.703 409.739,115.121 413.899,160.401 418.059,352.088 422.219,335.257 426.379,154.842 430.539,138.971 434.699,297.871 438.86,345.254 443.02,218.071 447.18,146.354 451.34,234.329 455.5,318.245 459.66,271.69 463.82,190.001 467.98,199.606 472.14,266.095 476.3,282.909 480.46,239.558 484.62,210.105 488.78,229.387 492.94,258.519 497.1,257.853 501.26,237.525 505.42,228.436 509.58,237.544 513.74,248.017 517.9,247.534 522.06,240.669 526.22,237.263 530.38,239.562 534.54,242.907 538.7,243.495 542.86,241.908 547.02,240.611 551.18,240.694 555.34,241.459 559.5,241.907 563.661,241.797 567.821,241.49 571.981,241.337 576.141,241.384 580.301,241.493 584.461,241.549 588.621,241.537 592.781,241.503 596.941,241.482 601.101,241.482 605.261,241.491 609.421,241.498 613.581,241.5 617.741,241.499 621.901,241.497 626.061,241.496 630.221,241.495 634.381,241.496 638.541,241.496 642.701,241.496 646.861,241.496 651.021,241.496 655.181,241.496 659.341,241.496 663.501,241.496 667.661,241.496 671.821,241.496 675.981,241.496 680.141,241.496 684.302,241.496 688.462,241.496 692.622,241.496 696.782,241.496 700.942,241.496 705.102,241.496 709.262,241.496 713.422,241.496 717.582,241.496 721.742,241.496 725.902,241.496 730.062,241.496 734.222,241.496 738.382,241.496 742.542,241.496 746.702,241.496 750.862,241.496 755.022,241.496 759.182,241.496 763.342,241.496 767.502,241.496 771.662,241.496 775.822,241.496 779.982,241.496 784.142,241.496 788.302,241.496 792.462,241.496 796.622,241.496 800.782,241.496 804.943,241.496 809.103,241.496" stroke-linecap="butt" stroke-width="4" fill="none"/>
   <polyline stroke-linejoin="round" stroke="#0000ff" points="143.497,241.496 145.161,241.496 146.825,241.496 148.489,241.496 150.153,241.496 151.817,241.496 153.481,241.496 155.145,241.496 156.809,241.496 158.473,241.496 160.137,241.496 161.801,241.496 163.465,241.496 165.129,241.496 166.793,241.496 168.457,241.496 170.121,241.496 171.785,241.496 173.449,241.496 175.113,241.496 176.777,241.496 178.441,241.496 180.105,241.496 181.769,241.496 183.433,241.496 185.097,241.496 186.761,241.496 188.425,241.496 190.089,241.496 191.754,241.496 193.418,241.496 195.082,241.496 196.746,241.496 198.41,241.496 200.074,241.496 201.738,241.496 203.402,241.496 205.066,241.496 206.73,241.496 208.394,241.496 210.058,241.496 211.722,241.496 213.386,241.496 215.05,241.496 216.714,241.496 218.378,241.496 220.042,241.496 221.706,241.496 223.37,241.496 225.034,241.496 226.698,241.496 228.362,241.496 230.026,241.496 231.69,241.496 233.354,241.496 235.018,241.496 236.682,241.496 238.346,241.496 240.01,241.496 241.674,241.496 243.338,241.496 245.002,241.496 246.666,241.496 248.33,241.496 249.994,241.496 251.658,241.496 253.322,241.496 254.986,241.496 256.65,241.496 258.314,241.496 259.978,241.496 261.642,241.496 263.306,241.496 264.97,241.496 266.634,241.496 268.298,241.496 269.962,241.496 271.626,241.496 273.29,241.496 274.954,241.496 276.618,241.496 278.282,241.496 279.946,241.496 281.61,241.496 283.274,241.496 284.938,241.496 286.602,241.496 288.266,241.496 289.93,241.496 291.594,241.496 293.258,241.496 294.922,241.496 296.586,241.496 298.25,241.496 299.914,241.496 301.578,241.496 303.242,241.496 304.906,241.496 306.57,241.496 308.234,241.496 309.898,241.496 311.562,241.496 313.227,241.496 314.891,241.496 316.555,241.496 318.219,241.496 319.883,241.496 321.547,241.496 323.211,241.496 324.875,241.496 326.539,241.496 328.203,241.496 329.867,241.496 331.531,241.496 333.195,241.496 334.859,241.496 336.523,241.496 338.187,241.496 339.851,241.496 341.515,241.496 343.179,241.496 344.843,241.496 346.507,241.496 348.171,241.496 349.835,241.496 351.499,241.496 353.163,241.496 354.827,241.496 356.491,241.496 358.155,241.496 359.819,241.496 361.483,241.496 363.147,241.496 364.811,241.496 366.475,241.496 368.139,241.496 369.803,241.496 371.467,241.496 373.131,241.496 374.795,241.496 376.459,241.496 378.123,241.496 379.787,241.496 381.451,241.496 383.115,241.496 384.779,241.496 386.443,241.496 388.107,241.496 389.771,241.496 391.435,241.496 393.099,241.496 394.763,241.496 396.427,241.496 398.091,241.496 399.755,241.496 401.419,241.496 403.083,241.496 404.747,241.496 406.411,241.496 408.075,241.496 409.739,241.496 411.403,241.496 413.067,241.496 414.731,241.496 416.395,241.496 418.059,241.496 419.723,241.496 421.387,241.496 423.051,241.496 424.715,241.496 426.379,241.496 428.043,241.496 429.707,241.496 431.371,241.496 433.035,241.496 434.699,241.496 436.363,241.496 438.027,241.496 439.692,241.496 441.356,241.496 443.02,241.496 444.684,241.496 446.348,241.496 448.012,241.496 449.676,241.496 451.34,241.496 453.004,241.496 454.668,241.496 456.332,241.496 457.996,241.496 459.66,241.496 461.324,241.496 462.988,241.496 464.652,241.496 466.316,241.496 467.98,241.496 469.644,241.496 471.308,241.496 472.972,241.496 474.636,241.496 476.3,241.496 477.964,241.496 479.628,241.496 481.292,241.496 482.956,241.496 484.62,241.496 486.284,241.496 487.948,241.496 489.612,241.496 491.276,241.496 492.94,241.496 494.604,241.496 496.268,241.496 497.932,241.496 499.596,241.496 501.26,241.496 502.924,241.496 504.588,241.496 506.252,241.496 507.916,241.496 509.58,241.496 511.244,241.496 512.908,241.496 514.572,241.496 516.236,241.496 517.9,241.496 519.564,241.496 521.228,241.496 522.892,241.496 524.556,241.496 526.22,241.496 527.884,241.496 529.548,241.496 531.212,241.496 532.876,241.496 534.54,241.496 536.204,241.496 537.868,241.496 539.532,241.496 541.196,241.496 542.86,241.496 544.524,241.496 546.188,241.496 547.852,241.496 549.516,241.496 551.18,241.496 552.844,241.496 554.508,241.496 556.172,241.496 557.836,241.496 559.5,241.496 561.165,241.496 562.829,241.496 564.493,241.496 566.157,241.496 567.821,241.496 569.485,241.496 571.149,241.496 572.813,241.496 574.477,241.496 576.141,241.496 577.805,241.496 579.469,241.496 581.133,241.496 582.797,241.496 584.461,241.496 586.125,241.496 587.789,241.496 589.453,241.496 591.117,241.496 592.781,241.496 594.445,241.496 596.109,241.496 597.773,241.496 599.437,241.496 601.101,241.496 602.765,241.496 604.429,241.496 606.093,241.496 607.757,241.496 609.421,241.496 611.085,241.496 612.749,241.496 614.413,241.496 616.077,241.496 617.741,241.496 619.405,241.496 621.069,241.496 622.733,241.496 624.397,241.496 626.061,241.496 627.725,241.496 629.389,241.496 631.053,241.496 632.717,241.496 634.381,241.496 636.045,241.496 637.709,241.496 639.373,241.496 641.037,241.496 642.701,241.496 644.365,241.496 646.029,241.496 647.693,241.496 649.357,241.496 651.021,241.496 652.685,241.496 654.349,241.496 656.013,241.496 657.677,241.496 659.341,241.496 661.005,241.496 662.669,241.496 664.333,241.496 665.997,241.496 667.661,241.496 669.325,241.496 670.989,241.496 672.653,241.496 674.317,241.496 675.981,241.496 677.645,241.496 679.31,241.496 680.974,241.496 682.638,241.496 684.302,241.496 685.966,241.496 687.63,241.496 689.294,241.496 690.958,241.496 692.622,241.496 694.286,241.496 695.95,241.496 697.614,241.496 699.278,241.496 700.942,241.496 702.606,241.496 704.27,241.496 705.934,241.496 707.598,241.496 709.262,241.496 710.926,241.496 712.59,241.496 714.254,241.496 715.918,241.496 717.582,241.496 719.246,241.496 720.91,241.496 722.574,241.496 724.238,241.496 725.902,241.496 727.566,241.496 729.23,241.496 730.894,241.496 732.558,241.496 734.222,241.496 735.886,241.496 737.55,241.496 739.214,241.496 740.878,241.496 742.542,241.496 744.206,241.496 745.87,241.496 747.534,241.496 749.198,241.496 750.862,241.496 752.526,241.496 754.19,241.496 755.854,241.496 757.518,241.496 759.182,241.496 760.846,241.496 762.51,241.496 764.174,241.496 765.838,241.496 767.502,241.496 769.166,241.496 770.83,241.496 772.494,241.496 774.158,241.496 775.822,241.496 777.486,241.496 779.15,241.496 780.814,241.496 782.478,241.496 784.142,241.496 785.806,241.496 787.47,241.496 789.134,241.496 790.798,241.496 792.462,241.496 794.126,241.496 795.79,241.496 797.454,241.496 799.118,241.496 800.782,241.496 802.446,241.496 804.111,241.496 805.774,241.496 807.439,241.496 809.103,241.496" stroke-linecap="butt" stroke-width="4" fill="none"/>
  </g>
  <clipPath id="cp00894690">
   <polygon points="0,690 894,690 894,0 0,0"/>
  </clipPath>
  <g clip-path="url(#cp00894690)">
   <polygon points="156.787,682.942 795.813,682.942 795.813,517.954 156.787,517.954" fill="#ffffff" shape-rendering="crispEdges"/>
   <polyline stroke-dasharray="16,0" stroke-linejoin="miter" stroke="#262626" points="156.787,682.942 795.813,682.942" stroke-linecap="square" stroke-width="0.5" fill="none"/>
   <polyline stroke-dasharray="16,0" stroke-linejoin="miter" stroke="#262626" points="156.787,517.954 795.813,517.954" stroke-linecap="square" stroke-width="0.5" fill="none"/>
   <polyline stroke-dasharray="16,0" stroke-linejoin="miter" stroke="#262626" points="156.787,682.942 156.787,517.954" stroke-linecap="square" stroke-width="0.5" fill="none"/>
   <polyline stroke-dasharray="16,0" stroke-linejoin="miter" stroke="#262626" points="795.813,682.942 795.813,517.954" stroke-linecap="square" stroke-width="0.5" fill="none"/>
   <polyline stroke-linejoin="round" stroke="#00ff00" points="160.79,536.957 180.806,536.957" stroke-linecap="butt" stroke-width="4" fill="none"/>
   <g font-style="normal" font-weight="normal" xml:space="preserve" font-family="FreeSans" font-size="29.7" transform="translate(184.809,551.957) rotate(-0,-0,-15)">
    <text x="0 20 36 52 58 72 80 87 102 109 124 140 146 162 170 177 193 209 216 232 240 247 255 262 286 302 309 317 324 341 348 365 372 " y="-7" fill="rgb(0,0,0)">Analytic solution at time t = 2.4</text>
   </g>
   <polyline stroke-linejoin="round" stroke="#ff9999" points="160.79,569.831 180.806,569.831" stroke-linecap="butt" stroke-width="4" fill="none"/>
   <g font-style="normal" font-weight="normal" xml:space="preserve" font-family="FreeSans" font-size="29.7" transform="translate(184.809,581.831) rotate(-0,-0,-12)">
    <text x="0 22 38 62 78 88 95 110 126 132 139 154 170 176 192 200 207 223 239 246 262 270 277 285 292 316 332 339 347 354 371 378 395 402 419 426 447 454 462 478 485 501 508 525 532 549 556 " y="-1" fill="rgb(0,0,0)">Numerical solution at time t = 2.4 with h = 0.1</text>
   </g>
   <polyline stroke-linejoin="round" stroke="#ff0000" points="160.79,601.577 180.806,601.577" stroke-linecap="butt" stroke-width="4" fill="none"/>
   <g font-style="normal" font-weight="normal" xml:space="preserve" font-family="FreeSans" font-size="29.7" transform="translate(184.809,613.577) rotate(-0,-0,-12)">
    <text x="0 22 38 62 78 88 95 110 126 132 139 154 170 176 192 200 207 223 239 246 262 270 277 285 292 316 332 339 347 354 371 378 395 402 419 426 447 454 462 478 485 501 508 525 532 549 556 573 " y="-1" fill="rgb(0,0,0)">Numerical solution at time t = 2.4 with h = 0.05</text>
   </g>
   <polyline stroke-linejoin="round" stroke="#990000" points="160.79,633.322 180.806,633.322" stroke-linecap="butt" stroke-width="4" fill="none"/>
   <g font-style="normal" font-weight="normal" xml:space="preserve" font-family="FreeSans" font-size="29.7" transform="translate(184.809,645.322) rotate(-0,-0,-12)">
    <text x="0 22 38 62 78 88 95 110 126 132 139 154 170 176 192 200 207 223 239 246 262 270 277 285 292 316 332 339 347 354 371 378 395 402 419 426 447 454 462 478 485 501 508 525 532 549 556 573 590 " y="-1" fill="rgb(0,0,0)">Numerical solution at time t = 2.4 with h = 0.025</text>
   </g>
   <polyline stroke-linejoin="round" stroke="#0000ff" points="160.79,665.068 180.806,665.068" stroke-linecap="butt" stroke-width="4" fill="none"/>
   <g font-style="normal" font-weight="normal" xml:space="preserve" font-family="FreeSans" font-size="29.7" transform="translate(184.809,677.067) rotate(-0,-0,-12)">
    <text x="0 8 24 31 39 46 62 68 75 90 106 122 139 146 154 161 177 " y="-1" fill="rgb(0,0,0)">Initial condition</text>
   </g>
  </g>
 </g>
</svg>
