<?xml version='1.0' encoding='UTF-8' standalone='no'?>
<svg width="861pt" xmlns:xlink="http://www.w3.org/1999/xlink" height="684pt" viewBox="0 0 861 684" xmlns="http://www.w3.org/2000/svg">
 <title>Figure 1</title>
 <desc>
Creator: GL2PS 1.4.2, (C) 1999-2020 C. Geuzaine
For: Octave
CreationDate: Tue Jun  6 20:23:01 2023
</desc>
 <defs/>
 <polygon fill="#ffffff" points="0,0 861,0 861,684 0,684"/>
 <g>
  <polygon fill="#ffffff" shape-rendering="crispEdges" points="0,684 861,684 861,0 0,0"/>
  <clipPath id="cp00861684">
   <polygon points="0,684 861,684 861,0 0,0"/>
  </clipPath>
  <g clip-path="url(#cp00861684)">
   <polygon fill="#ffffff" shape-rendering="crispEdges" points="112.036,445.532 779.94,445.532 779.94,51.3715 112.036,51.3715"/>
   <polyline stroke="#262626" stroke-linejoin="miter" fill="none" stroke-linecap="butt" points="112.036,445.532 112.036,438.85" stroke-width="4"/>
   <polyline stroke="#262626" stroke-linejoin="miter" fill="none" stroke-linecap="butt" points="112.036,51.3715 112.036,58.0532" stroke-width="4"/>
   <polyline stroke="#262626" stroke-linejoin="miter" fill="none" stroke-linecap="butt" points="279.012,445.532 279.012,438.85" stroke-width="4"/>
   <polyline stroke="#262626" stroke-linejoin="miter" fill="none" stroke-linecap="butt" points="279.012,51.3715 279.012,58.0532" stroke-width="4"/>
   <polyline stroke="#262626" stroke-linejoin="miter" fill="none" stroke-linecap="butt" points="445.988,445.532 445.988,438.85" stroke-width="4"/>
   <polyline stroke="#262626" stroke-linejoin="miter" fill="none" stroke-linecap="butt" points="445.988,51.3715 445.988,58.0532" stroke-width="4"/>
   <polyline stroke="#262626" stroke-linejoin="miter" fill="none" stroke-linecap="butt" points="612.964,445.532 612.964,438.85" stroke-width="4"/>
   <polyline stroke="#262626" stroke-linejoin="miter" fill="none" stroke-linecap="butt" points="612.964,51.3715 612.964,58.0532" stroke-width="4"/>
   <polyline stroke="#262626" stroke-linejoin="miter" fill="none" stroke-linecap="butt" points="779.94,445.532 779.94,438.85" stroke-width="4"/>
   <polyline stroke="#262626" stroke-linejoin="miter" fill="none" stroke-linecap="butt" points="779.94,51.3715 779.94,58.0532" stroke-width="4"/>
   <g transform="translate(98.5355,490.041) rotate(-0,13.5,-22)" font-size="30" xml:space="preserve" font-weight="normal" font-style="normal" font-family="FreeSans">
    <text fill="rgb(38,38,38)" y="-0" x="0 10 ">-1</text>
   </g>
   <g transform="translate(270.512,490.041) rotate(-0,8.5,-22)" font-size="30" xml:space="preserve" font-weight="normal" font-style="normal" font-family="FreeSans">
    <text fill="rgb(38,38,38)" y="-0" x="0 ">0</text>
   </g>
   <g transform="translate(437.488,490.041) rotate(-0,8.5,-22)" font-size="30" xml:space="preserve" font-weight="normal" font-style="normal" font-family="FreeSans">
    <text fill="rgb(38,38,38)" y="-0" x="0 ">1</text>
   </g>
   <g transform="translate(604.464,490.041) rotate(-0,8.5,-22)" font-size="30" xml:space="preserve" font-weight="normal" font-style="normal" font-family="FreeSans">
    <text fill="rgb(38,38,38)" y="-0" x="0 ">2</text>
   </g>
   <g transform="translate(771.44,490.041) rotate(-0,8.5,-22)" font-size="30" xml:space="preserve" font-weight="normal" font-style="normal" font-family="FreeSans">
    <text fill="rgb(38,38,38)" y="-0" x="0 ">3</text>
   </g>
   <polyline stroke="#262626" stroke-linejoin="miter" fill="none" stroke-linecap="butt" points="112.036,445.532 118.714,445.532" stroke-width="4"/>
   <polyline stroke="#262626" stroke-linejoin="miter" fill="none" stroke-linecap="butt" points="779.94,445.532 773.261,445.532" stroke-width="4"/>
   <polyline stroke="#262626" stroke-linejoin="miter" fill="none" stroke-linecap="butt" points="112.036,396.262 118.714,396.262" stroke-width="4"/>
   <polyline stroke="#262626" stroke-linejoin="miter" fill="none" stroke-linecap="butt" points="779.94,396.262 773.261,396.262" stroke-width="4"/>
   <polyline stroke="#262626" stroke-linejoin="miter" fill="none" stroke-linecap="butt" points="112.036,346.992 118.714,346.992" stroke-width="4"/>
   <polyline stroke="#262626" stroke-linejoin="miter" fill="none" stroke-linecap="butt" points="779.94,346.992 773.261,346.992" stroke-width="4"/>
   <polyline stroke="#262626" stroke-linejoin="miter" fill="none" stroke-linecap="butt" points="112.036,297.722 118.714,297.722" stroke-width="4"/>
   <polyline stroke="#262626" stroke-linejoin="miter" fill="none" stroke-linecap="butt" points="779.94,297.722 773.261,297.722" stroke-width="4"/>
   <polyline stroke="#262626" stroke-linejoin="miter" fill="none" stroke-linecap="butt" points="112.036,248.452 118.714,248.452" stroke-width="4"/>
   <polyline stroke="#262626" stroke-linejoin="miter" fill="none" stroke-linecap="butt" points="779.94,248.452 773.261,248.452" stroke-width="4"/>
   <polyline stroke="#262626" stroke-linejoin="miter" fill="none" stroke-linecap="butt" points="112.036,199.182 118.714,199.182" stroke-width="4"/>
   <polyline stroke="#262626" stroke-linejoin="miter" fill="none" stroke-linecap="butt" points="779.94,199.182 773.261,199.182" stroke-width="4"/>
   <polyline stroke="#262626" stroke-linejoin="miter" fill="none" stroke-linecap="butt" points="112.036,149.912 118.714,149.912" stroke-width="4"/>
   <polyline stroke="#262626" stroke-linejoin="miter" fill="none" stroke-linecap="butt" points="779.94,149.912 773.261,149.912" stroke-width="4"/>
   <polyline stroke="#262626" stroke-linejoin="miter" fill="none" stroke-linecap="butt" points="112.036,100.642 118.714,100.642" stroke-width="4"/>
   <polyline stroke="#262626" stroke-linejoin="miter" fill="none" stroke-linecap="butt" points="779.94,100.642 773.261,100.642" stroke-width="4"/>
   <polyline stroke="#262626" stroke-linejoin="miter" fill="none" stroke-linecap="butt" points="112.036,51.3715 118.714,51.3715" stroke-width="4"/>
   <polyline stroke="#262626" stroke-linejoin="miter" fill="none" stroke-linecap="butt" points="779.94,51.3715 773.261,51.3715" stroke-width="4"/>
   <g transform="translate(45.0377,456.532) rotate(-0,52,-11)" font-size="30" xml:space="preserve" font-weight="normal" font-style="normal" font-family="FreeSans">
    <text fill="rgb(38,38,38)" y="-0" x="0 10 27 35 ">-0.2</text>
   </g>
   <g transform="translate(80.0377,407.262) rotate(-0,17,-11)" font-size="30" xml:space="preserve" font-weight="normal" font-style="normal" font-family="FreeSans">
    <text fill="rgb(38,38,38)" y="-0" x="0 ">0</text>
   </g>
   <g transform="translate(55.0377,357.992) rotate(-0,42,-11)" font-size="30" xml:space="preserve" font-weight="normal" font-style="normal" font-family="FreeSans">
    <text fill="rgb(38,38,38)" y="-0" x="0 17 25 ">0.2</text>
   </g>
   <g transform="translate(55.0377,308.722) rotate(-0,42,-11)" font-size="30" xml:space="preserve" font-weight="normal" font-style="normal" font-family="FreeSans">
    <text fill="rgb(38,38,38)" y="-0" x="0 17 25 ">0.4</text>
   </g>
   <g transform="translate(55.0377,259.452) rotate(-0,42,-11)" font-size="30" xml:space="preserve" font-weight="normal" font-style="normal" font-family="FreeSans">
    <text fill="rgb(38,38,38)" y="-0" x="0 17 25 ">0.6</text>
   </g>
   <g transform="translate(55.0377,210.182) rotate(-0,42,-11)" font-size="30" xml:space="preserve" font-weight="normal" font-style="normal" font-family="FreeSans">
    <text fill="rgb(38,38,38)" y="-0" x="0 17 25 ">0.8</text>
   </g>
   <g transform="translate(80.0377,160.912) rotate(-0,17,-11)" font-size="30" xml:space="preserve" font-weight="normal" font-style="normal" font-family="FreeSans">
    <text fill="rgb(38,38,38)" y="-0" x="0 ">1</text>
   </g>
   <g transform="translate(55.0377,111.642) rotate(-0,42,-11)" font-size="30" xml:space="preserve" font-weight="normal" font-style="normal" font-family="FreeSans">
    <text fill="rgb(38,38,38)" y="-0" x="0 17 25 ">1.2</text>
   </g>
   <g transform="translate(55.0377,62.3715) rotate(-0,42,-11)" font-size="30" xml:space="preserve" font-weight="normal" font-style="normal" font-family="FreeSans">
    <text fill="rgb(38,38,38)" y="-0" x="0 17 25 ">1.4</text>
   </g>
   <polyline stroke="#262626" stroke-linejoin="miter" fill="none" stroke-linecap="square" stroke-dasharray="64,0" points="112.036,445.532 779.94,445.532" stroke-width="4"/>
   <polyline stroke="#262626" stroke-linejoin="miter" fill="none" stroke-linecap="square" stroke-dasharray="64,0" points="112.036,51.3715 779.94,51.3715" stroke-width="4"/>
   <polyline stroke="#262626" stroke-linejoin="miter" fill="none" stroke-linecap="square" stroke-dasharray="64,0" points="112.036,445.532 112.036,51.3715" stroke-width="4"/>
   <polyline stroke="#262626" stroke-linejoin="miter" fill="none" stroke-linecap="square" stroke-dasharray="64,0" points="779.94,445.532 779.94,51.3715" stroke-width="4"/>
   <g transform="translate(374.488,41.3715) rotate(-0,71.5,0)" font-size="33" xml:space="preserve" font-weight="bold" font-style="normal" font-family="FreeSans">
    <text fill="rgb(0,0,0)" y="-7" x="0 20 39 58 79 90 103 123 ">Leapfrog</text>
   </g>
   <g transform="translate(32.0377,248.452) rotate(-90,8,0)" font-size="33" xml:space="preserve" font-weight="normal" font-style="normal" font-family="FreeSans">
    <text fill="rgb(38,38,38)" y="-0" x="0 ">x</text>
   </g>
   <g transform="translate(441.488,517.041) rotate(-0,4.5,-22)" font-size="33" xml:space="preserve" font-weight="normal" font-style="normal" font-family="FreeSans">
    <text fill="rgb(38,38,38)" y="-0" x="0 ">t</text>
   </g>
   <polyline stroke="#00ff00" stroke-linejoin="round" fill="none" stroke-linecap="butt" points="112.036,396.262 113.705,396.262 115.375,396.262 117.045,396.262 118.715,396.262 120.384,396.262 122.054,396.262 123.724,396.262 125.394,396.262 127.063,396.262 128.733,396.262 130.403,396.262 132.073,396.262 133.742,396.262 135.412,396.262 137.082,396.262 138.752,396.262 140.421,396.262 142.091,396.262 143.761,396.262 145.431,396.262 147.1,396.262 148.77,396.262 150.44,396.262 152.11,396.262 153.78,396.262 155.449,396.262 157.119,396.262 158.789,396.262 160.459,396.262 162.128,396.262 163.798,396.262 165.468,396.262 167.138,396.262 168.807,396.262 170.477,396.262 172.147,396.262 173.817,396.262 175.486,396.262 177.156,396.262 178.826,396.262 180.496,396.262 182.165,396.262 183.835,396.262 185.505,396.262 187.175,396.262 188.844,396.262 190.514,396.262 192.184,396.262 193.854,396.262 195.524,396.262 197.193,396.262 198.863,396.262 200.533,396.262 202.203,396.262 203.872,396.262 205.542,396.262 207.212,396.262 208.882,396.262 210.551,396.262 212.221,396.262 213.891,396.262 215.561,396.262 217.23,396.262 218.9,396.262 220.57,396.262 222.24,396.262 223.909,396.262 225.579,396.262 227.249,396.262 228.919,396.262 230.588,396.262 232.258,396.262 233.928,396.262 235.598,396.262 237.268,396.262 238.937,396.262 240.607,396.262 242.277,396.262 243.947,396.262 245.616,396.262 247.286,396.262 248.956,396.262 250.626,396.262 252.295,396.262 253.965,396.262 255.635,396.262 257.305,396.262 258.974,396.262 260.644,396.262 262.314,396.262 263.984,396.262 265.653,396.262 267.323,396.262 268.993,396.262 270.663,396.262 272.332,396.262 274.002,396.262 275.672,396.262 277.342,396.262 279.012,396.262 280.681,396.262 282.351,396.262 284.021,396.262 285.691,396.262 287.36,396.262 289.03,396.262 290.7,396.262 292.37,396.262 294.039,396.262 295.709,396.262 297.379,396.262 299.049,396.262 300.718,396.262 302.388,396.262 304.058,396.262 305.728,396.262 307.397,396.262 309.067,396.262 310.737,396.262 312.407,396.262 314.076,396.262 315.746,396.262 317.416,396.262 319.086,396.262 320.756,396.262 322.425,396.262 324.095,396.262 325.765,396.262 327.435,396.262 329.104,396.262 330.774,396.262 332.444,396.262 334.114,396.262 335.783,396.262 337.453,396.262 339.123,396.262 340.793,396.262 342.462,396.262 344.132,396.262 345.802,396.262 347.472,396.262 349.141,396.262 350.811,396.262 352.481,396.262 354.151,396.262 355.82,396.262 357.49,396.262 359.16,396.262 360.83,396.262 362.5,396.262 364.169,396.262 365.839,396.262 367.509,396.262 369.179,396.262 370.848,396.262 372.518,396.262 374.188,396.262 375.858,396.262 377.527,396.262 379.197,396.262 380.867,396.262 382.537,396.262 384.206,396.262 385.876,396.262 387.546,396.262 389.216,396.262 390.885,396.262 392.555,396.262 394.225,396.262 395.895,396.262 397.564,396.262 399.234,396.262 400.904,396.262 402.574,396.262 404.244,396.262 405.913,396.262 407.583,396.262 409.253,396.262 410.923,396.262 412.592,396.262 414.262,396.262 415.932,396.262 417.602,396.262 419.271,396.262 420.941,396.262 422.611,396.262 424.281,396.262 425.95,396.262 427.62,396.262 429.29,396.262 430.96,396.262 432.629,396.262 434.299,396.262 435.969,396.262 437.639,396.262 439.309,396.262 440.978,396.262 442.648,396.262 444.318,396.262 445.988,396.262 447.657,396.262 449.327,396.262 450.997,396.262 452.667,396.262 454.336,396.262 456.006,396.262 457.676,396.262 459.346,396.262 461.015,396.262 462.685,396.262 464.355,396.262 466.025,396.262 467.694,396.262 469.364,396.262 471.034,396.262 472.704,396.262 474.373,396.262 476.043,396.262 477.713,396.262 479.383,396.262 481.052,396.262 482.722,396.262 484.392,396.262 486.062,396.262 487.732,396.262 489.401,396.262 491.071,396.262 492.741,396.262 494.411,396.262 496.08,396.262 497.75,396.262 499.42,396.262 501.09,396.262 502.759,396.262 504.429,396.262 506.099,396.262 507.769,396.262 509.438,396.262 511.108,396.262 512.778,396.262 514.448,396.262 516.117,396.262 517.787,396.262 519.457,396.262 521.127,396.262 522.797,396.262 524.466,396.262 526.136,396.262 527.806,396.262 529.476,396.262 531.145,396.262 532.815,396.262 534.485,396.262 536.155,396.262 537.824,396.262 539.494,396.262 541.164,396.262 542.834,396.262 544.503,396.262 546.173,396.262 547.843,396.262 549.513,396.262 551.182,396.262 552.852,396.262 554.522,396.262 556.192,396.262 557.861,396.262 559.531,396.262 561.201,396.262 562.871,396.262 564.541,396.262 566.21,396.262 567.88,396.262 569.55,396.262 571.22,396.262 572.889,396.262 574.559,396.262 576.229,396.262 577.899,396.262 579.568,396.262 581.238,396.262 582.908,396.262 584.578,396.262 586.247,396.262 587.917,396.262 589.587,396.262 591.257,396.262 592.926,396.262 594.596,396.262 596.266,396.262 597.936,396.019 599.605,395.291 601.275,394.08 602.945,392.392 604.615,390.233 606.284,387.612 607.954,384.539 609.624,381.026 611.294,377.087 612.964,372.738 614.633,367.995 616.303,362.878 617.973,357.406 619.643,351.602 621.312,345.487 622.982,339.087 624.652,332.427 626.322,325.532 627.991,318.431 629.661,311.15 631.331,303.719 633.001,296.168 634.67,288.525 636.34,280.821 638.01,273.087 639.68,265.353 641.349,257.649 643.019,250.006 644.689,242.454 646.359,235.024 648.029,227.743 649.698,220.641 651.368,213.747 653.038,207.086 654.708,200.686 656.377,194.572 658.047,188.768 659.717,183.296 661.387,178.179 663.056,173.436 664.726,169.087 666.396,165.148 668.066,161.635 669.735,158.561 671.405,155.94 673.075,153.781 674.745,152.093 676.414,150.883 678.084,150.155 679.754,149.912 681.424,150.155 683.094,150.883 684.763,152.093 686.433,153.781 688.103,155.94 689.773,158.561 691.442,161.635 693.112,165.148 694.782,169.087 696.452,173.436 698.121,178.179 699.791,183.296 701.461,188.768 703.131,194.572 704.8,200.686 706.47,207.086 708.14,213.747 709.81,220.641 711.479,227.743 713.149,235.024 714.819,242.454 716.489,250.006 718.158,257.649 719.828,265.353 721.498,273.087 723.168,280.821 724.838,288.525 726.507,296.168 728.177,303.719 729.847,311.15 731.517,318.431 733.186,325.532 734.856,332.427 736.526,339.087 738.196,345.487 739.865,351.602 741.535,357.406 743.205,362.878 744.875,367.995 746.544,372.738 748.214,377.087 749.884,381.026 751.554,384.539 753.223,387.612 754.893,390.233 756.563,392.392 758.233,394.08 759.902,395.291 761.572,396.019 763.242,396.262 764.912,396.262 766.581,396.262 768.251,396.262 769.921,396.262 771.591,396.262 773.26,396.262 774.93,396.262 776.6,396.262 778.27,396.262 779.94,396.262" stroke-width="4"/>
   <polyline stroke="#ff9999" stroke-linejoin="round" fill="none" stroke-linecap="butt" points="112.036,396.262 128.733,395.979 145.431,397.331 162.128,396.22 178.826,394.609 195.524,397.11 212.221,395.27 228.919,399.392 245.616,403.104 262.314,382.067 279.012,397.297 295.709,405.232 312.407,392.851 329.104,399.173 345.802,386.215 362.5,400.397 379.197,402.633 395.895,392.998 412.592,393.336 429.29,391.358 445.988,399.849 462.685,402.555 479.383,401.746 496.08,393.945 512.778,383.636 529.476,381.807 546.173,397.964 562.871,425.451 579.568,440.722 596.266,416.649 612.964,346.377 629.661,254.874 646.359,180.513 663.056,150.162 679.754,168.196 696.452,218.263 713.149,276.651 729.847,327.075 746.544,360.213 763.242,383.823 779.94,383.823" stroke-width="4"/>
   <polyline stroke="#ff0000" stroke-linejoin="round" fill="none" stroke-linecap="butt" points="112.036,396.262 120.384,396.316 128.733,396.578 137.082,396.096 145.431,395.895 153.78,396.485 162.128,396.57 170.477,396.161 178.826,395.615 187.175,396.149 195.524,397.703 203.872,396.222 212.221,394.664 220.57,396.863 228.919,396.581 237.268,396.062 245.616,396.398 253.965,395.256 262.314,397.812 270.663,394.822 279.012,397.876 287.36,395.172 295.709,396.341 304.058,396.885 312.407,395.573 320.756,396.941 329.104,394.667 337.453,398.773 345.802,394.625 354.151,397.736 362.5,393.385 370.848,397.551 379.197,397.713 387.546,395.653 395.895,396.196 404.244,394.452 412.592,398.316 420.941,396.467 429.29,396.553 437.639,394.882 445.988,395.722 454.336,396.411 462.685,397.201 471.034,397.167 479.383,396.384 487.732,394.999 496.08,394.355 504.429,395.714 512.778,398.318 521.127,399.727 529.476,397.955 537.824,393.673 546.173,390.506 554.522,391.507 562.871,396.289 571.22,402.373 579.568,407.285 587.917,408.889 596.266,404.808 604.615,392.429 612.964,369.87 621.312,337.677 629.661,299.579 638.01,260.43 646.359,223.919 654.708,192.359 663.056,167.371 671.405,150.996 679.754,146.18 688.103,155.176 696.452,177.856 704.8,211.329 713.149,250.365 721.498,289.193 729.847,323.286 738.196,350.092 746.544,369.107 754.893,381.614 763.242,388.553 771.591,393.429 779.94,393.429" stroke-width="4"/>
   <polyline stroke="#990000" stroke-linejoin="round" fill="none" stroke-linecap="butt" points="112.036,396.262 116.21,396.256 120.384,396.14 124.559,396.283 128.733,396.42 132.908,396.219 137.082,396.17 141.256,396.32 145.431,396.254 149.605,396.21 153.78,396.3 157.954,396.293 162.128,396.298 166.303,396.238 170.477,396.135 174.652,396.308 178.826,396.381 183,396.2 187.175,396.228 191.349,396.284 195.524,396.301 199.698,396.292 203.872,396.095 208.047,396.278 212.221,396.432 216.396,396.146 220.57,396.3 224.744,396.319 228.919,396.212 233.093,396.304 237.268,396.064 241.442,396.413 245.616,396.298 249.791,396.13 253.965,396.338 258.14,396.045 262.314,396.719 266.488,395.859 270.663,396.59 274.837,395.88 279.012,396.645 283.186,395.952 287.36,396.586 291.535,396.004 295.709,396.339 299.884,396.283 304.058,396.273 308.232,396.236 312.407,396.121 316.581,396.607 320.756,395.978 324.93,396.522 329.104,395.731 333.279,396.778 337.453,396.029 341.628,396.67 345.802,395.564 349.976,396.798 354.151,395.888 358.325,396.719 362.5,395.834 366.674,396.48 370.848,396.096 375.023,396.564 379.197,396.057 383.372,396.355 387.546,396.1 391.72,396.147 395.895,396.602 400.069,396.042 404.244,396.676 408.418,395.638 412.592,396.618 416.767,396.081 420.941,396.764 425.116,395.949 429.29,396.117 433.464,396.091 437.639,396.552 441.813,396.422 445.988,396.213 450.162,396.043 454.336,396.148 458.511,396.317 462.685,396.424 466.86,396.404 471.034,396.273 475.208,396.077 479.383,396.003 483.557,396.212 487.732,396.545 491.906,396.641 496.08,396.336 500.255,395.875 504.429,395.758 508.604,396.17 512.778,396.679 516.952,396.794 521.127,396.495 525.301,396.068 529.476,395.765 533.65,395.707 537.824,395.951 541.999,396.485 546.173,397.083 550.348,397.335 554.522,396.896 558.696,395.835 562.871,394.772 567.045,394.368 571.22,394.831 575.394,396.003 579.568,397.61 583.743,399.353 587.917,400.819 592.092,401.366 596.266,400.178 600.44,396.635 604.615,390.616 608.789,382.266 612.964,371.674 617.138,358.833 621.312,343.764 625.487,326.747 629.661,308.422 633.836,289.481 638.01,270.35 642.184,251.269 646.359,232.485 650.533,214.446 654.708,197.863 658.882,183.408 663.056,171.429 667.231,161.991 671.405,155.047 675.58,150.663 679.754,149.161 683.928,150.9 688.103,156.015 692.277,164.313 696.452,175.272 700.626,188.295 704.8,202.967 708.975,219.089 713.149,236.63 717.324,255.505 721.498,275.366 725.672,295.58 729.847,315.267 734.021,333.507 738.196,349.538 742.37,362.878 746.544,373.398 750.719,381.262 754.893,386.836 759.068,390.598 763.242,392.991 767.416,394.484 771.591,395.275 775.765,395.868 779.94,395.868" stroke-width="4"/>
   <polyline stroke="#0000ff" stroke-linejoin="round" fill="none" stroke-linecap="butt" points="112.036,396.262 113.705,396.262 115.375,396.262 117.045,396.262 118.715,396.262 120.384,396.262 122.054,396.262 123.724,396.262 125.394,396.262 127.063,396.262 128.733,396.262 130.403,396.262 132.073,396.262 133.742,396.262 135.412,396.262 137.082,396.262 138.752,396.262 140.421,396.262 142.091,396.262 143.761,396.262 145.431,396.262 147.1,396.262 148.77,396.262 150.44,396.262 152.11,396.262 153.78,396.262 155.449,396.262 157.119,396.262 158.789,396.262 160.459,396.262 162.128,396.262 163.798,396.262 165.468,396.262 167.138,396.262 168.807,396.262 170.477,396.262 172.147,396.262 173.817,396.262 175.486,396.262 177.156,396.262 178.826,396.262 180.496,396.262 182.165,396.262 183.835,396.262 185.505,396.262 187.175,396.262 188.844,396.262 190.514,396.262 192.184,396.262 193.854,396.262 195.524,396.262 197.193,396.019 198.863,395.291 200.533,394.08 202.203,392.392 203.872,390.233 205.542,387.612 207.212,384.539 208.882,381.026 210.551,377.087 212.221,372.738 213.891,367.995 215.561,362.878 217.23,357.406 218.9,351.602 220.57,345.487 222.24,339.087 223.909,332.427 225.579,325.532 227.249,318.431 228.919,311.15 230.588,303.719 232.258,296.168 233.928,288.525 235.598,280.821 237.268,273.087 238.937,265.353 240.607,257.649 242.277,250.006 243.947,242.454 245.616,235.024 247.286,227.743 248.956,220.641 250.626,213.747 252.295,207.086 253.965,200.686 255.635,194.572 257.305,188.768 258.974,183.296 260.644,178.179 262.314,173.436 263.984,169.087 265.653,165.148 267.323,161.635 268.993,158.561 270.663,155.94 272.332,153.781 274.002,152.093 275.672,150.883 277.342,150.155 279.012,149.912 280.681,150.155 282.351,150.883 284.021,152.093 285.691,153.781 287.36,155.94 289.03,158.561 290.7,161.635 292.37,165.148 294.039,169.087 295.709,173.436 297.379,178.179 299.049,183.296 300.718,188.768 302.388,194.572 304.058,200.686 305.728,207.086 307.397,213.747 309.067,220.641 310.737,227.743 312.407,235.024 314.076,242.454 315.746,250.006 317.416,257.649 319.086,265.353 320.756,273.087 322.425,280.821 324.095,288.525 325.765,296.168 327.435,303.719 329.104,311.15 330.774,318.431 332.444,325.532 334.114,332.427 335.783,339.087 337.453,345.487 339.123,351.602 340.793,357.406 342.462,362.878 344.132,367.995 345.802,372.738 347.472,377.087 349.141,381.026 350.811,384.539 352.481,387.612 354.151,390.233 355.82,392.392 357.49,394.08 359.16,395.291 360.83,396.019 362.5,396.262 364.169,396.262 365.839,396.262 367.509,396.262 369.179,396.262 370.848,396.262 372.518,396.262 374.188,396.262 375.858,396.262 377.527,396.262 379.197,396.262 380.867,396.262 382.537,396.262 384.206,396.262 385.876,396.262 387.546,396.262 389.216,396.262 390.885,396.262 392.555,396.262 394.225,396.262 395.895,396.262 397.564,396.262 399.234,396.262 400.904,396.262 402.574,396.262 404.244,396.262 405.913,396.262 407.583,396.262 409.253,396.262 410.923,396.262 412.592,396.262 414.262,396.262 415.932,396.262 417.602,396.262 419.271,396.262 420.941,396.262 422.611,396.262 424.281,396.262 425.95,396.262 427.62,396.262 429.29,396.262 430.96,396.262 432.629,396.262 434.299,396.262 435.969,396.262 437.639,396.262 439.309,396.262 440.978,396.262 442.648,396.262 444.318,396.262 445.988,396.262 447.657,396.262 449.327,396.262 450.997,396.262 452.667,396.262 454.336,396.262 456.006,396.262 457.676,396.262 459.346,396.262 461.015,396.262 462.685,396.262 464.355,396.262 466.025,396.262 467.694,396.262 469.364,396.262 471.034,396.262 472.704,396.262 474.373,396.262 476.043,396.262 477.713,396.262 479.383,396.262 481.052,396.262 482.722,396.262 484.392,396.262 486.062,396.262 487.732,396.262 489.401,396.262 491.071,396.262 492.741,396.262 494.411,396.262 496.08,396.262 497.75,396.262 499.42,396.262 501.09,396.262 502.759,396.262 504.429,396.262 506.099,396.262 507.769,396.262 509.438,396.262 511.108,396.262 512.778,396.262 514.448,396.262 516.117,396.262 517.787,396.262 519.457,396.262 521.127,396.262 522.797,396.262 524.466,396.262 526.136,396.262 527.806,396.262 529.476,396.262 531.145,396.262 532.815,396.262 534.485,396.262 536.155,396.262 537.824,396.262 539.494,396.262 541.164,396.262 542.834,396.262 544.503,396.262 546.173,396.262 547.843,396.262 549.513,396.262 551.182,396.262 552.852,396.262 554.522,396.262 556.192,396.262 557.861,396.262 559.531,396.262 561.201,396.262 562.871,396.262 564.541,396.262 566.21,396.262 567.88,396.262 569.55,396.262 571.22,396.262 572.889,396.262 574.559,396.262 576.229,396.262 577.899,396.262 579.568,396.262 581.238,396.262 582.908,396.262 584.578,396.262 586.247,396.262 587.917,396.262 589.587,396.262 591.257,396.262 592.926,396.262 594.596,396.262 596.266,396.262 597.936,396.262 599.605,396.262 601.275,396.262 602.945,396.262 604.615,396.262 606.284,396.262 607.954,396.262 609.624,396.262 611.294,396.262 612.964,396.262 614.633,396.262 616.303,396.262 617.973,396.262 619.643,396.262 621.312,396.262 622.982,396.262 624.652,396.262 626.322,396.262 627.991,396.262 629.661,396.262 631.331,396.262 633.001,396.262 634.67,396.262 636.34,396.262 638.01,396.262 639.68,396.262 641.349,396.262 643.019,396.262 644.689,396.262 646.359,396.262 648.029,396.262 649.698,396.262 651.368,396.262 653.038,396.262 654.708,396.262 656.377,396.262 658.047,396.262 659.717,396.262 661.387,396.262 663.056,396.262 664.726,396.262 666.396,396.262 668.066,396.262 669.735,396.262 671.405,396.262 673.075,396.262 674.745,396.262 676.414,396.262 678.084,396.262 679.754,396.262 681.424,396.262 683.094,396.262 684.763,396.262 686.433,396.262 688.103,396.262 689.773,396.262 691.442,396.262 693.112,396.262 694.782,396.262 696.452,396.262 698.121,396.262 699.791,396.262 701.461,396.262 703.131,396.262 704.8,396.262 706.47,396.262 708.14,396.262 709.81,396.262 711.479,396.262 713.149,396.262 714.819,396.262 716.489,396.262 718.158,396.262 719.828,396.262 721.498,396.262 723.168,396.262 724.838,396.262 726.507,396.262 728.177,396.262 729.847,396.262 731.517,396.262 733.186,396.262 734.856,396.262 736.526,396.262 738.196,396.262 739.865,396.262 741.535,396.262 743.205,396.262 744.875,396.262 746.544,396.262 748.214,396.262 749.884,396.262 751.554,396.262 753.223,396.262 754.893,396.262 756.563,396.262 758.233,396.262 759.902,396.262 761.572,396.262 763.242,396.262 764.912,396.262 766.581,396.262 768.251,396.262 769.921,396.262 771.591,396.262 773.26,396.262 774.93,396.262 776.6,396.262 778.27,396.262 779.94,396.262" stroke-width="4"/>
  </g>
  <clipPath id="cp00861684">
   <polygon points="0,684 861,684 861,0 0,0"/>
  </clipPath>
  <g clip-path="url(#cp00861684)">
   <polygon fill="#ffffff" shape-rendering="crispEdges" points="149.475,676.947 742.5,676.947 742.5,525.047 149.475,525.047"/>
   <polyline stroke="#262626" stroke-linejoin="miter" fill="none" stroke-linecap="square" stroke-dasharray="16,0" points="149.475,676.947 742.5,676.947" stroke-width="0.5"/>
   <polyline stroke="#262626" stroke-linejoin="miter" fill="none" stroke-linecap="square" stroke-dasharray="16,0" points="149.475,525.047 742.5,525.047" stroke-width="0.5"/>
   <polyline stroke="#262626" stroke-linejoin="miter" fill="none" stroke-linecap="square" stroke-dasharray="16,0" points="149.475,676.947 149.475,525.047" stroke-width="0.5"/>
   <polyline stroke="#262626" stroke-linejoin="miter" fill="none" stroke-linecap="square" stroke-dasharray="16,0" points="742.5,676.947 742.5,525.047" stroke-width="0.5"/>
   <polyline stroke="#00ff00" stroke-linejoin="round" fill="none" stroke-linecap="butt" points="153.478,542.55 173.494,542.55" stroke-width="4"/>
   <g transform="translate(177.497,556.05) rotate(-0,-0,-13.5)" font-size="27" xml:space="preserve" font-weight="normal" font-style="normal" font-family="FreeSans">
    <text fill="rgb(0,0,0)" y="-6" x="0 18 33 48 54 67 75 81 95 102 115 129 135 150 158 164 178 193 200 215 223 230 238 244 266 280 287 295 302 318 325 340 347 ">Analytic solution at time t = 2.4</text>
   </g>
   <polyline stroke="#ff9999" stroke-linejoin="round" fill="none" stroke-linecap="butt" points="153.478,572.663 173.494,572.663" stroke-width="4"/>
   <g transform="translate(177.497,583.663) rotate(-0,-0,-11)" font-size="27" xml:space="preserve" font-weight="normal" font-style="normal" font-family="FreeSans">
    <text fill="rgb(0,0,0)" y="-1" x="0 20 35 57 71 80 86 100 115 121 128 141 155 161 176 184 190 204 219 226 241 249 256 264 270 292 306 313 321 328 344 351 366 373 388 395 415 421 429 443 450 464 471 487 494 509 516 ">Numerical solution at time t = 2.4 with h = 0.1</text>
   </g>
   <polyline stroke="#ff0000" stroke-linejoin="round" fill="none" stroke-linecap="butt" points="153.478,601.887 173.494,601.887" stroke-width="4"/>
   <g transform="translate(177.497,612.887) rotate(-0,-0,-11)" font-size="27" xml:space="preserve" font-weight="normal" font-style="normal" font-family="FreeSans">
    <text fill="rgb(0,0,0)" y="-1" x="0 20 35 57 71 80 86 100 115 121 128 141 155 161 176 184 190 204 219 226 241 249 256 264 270 292 306 313 321 328 344 351 366 373 388 395 415 421 429 443 450 464 471 487 494 509 516 531 ">Numerical solution at time t = 2.4 with h = 0.05</text>
   </g>
   <polyline stroke="#990000" stroke-linejoin="round" fill="none" stroke-linecap="butt" points="153.478,631.11 173.494,631.11" stroke-width="4"/>
   <g transform="translate(177.497,642.11) rotate(-0,-0,-11)" font-size="27" xml:space="preserve" font-weight="normal" font-style="normal" font-family="FreeSans">
    <text fill="rgb(0,0,0)" y="-1" x="0 20 35 57 71 80 86 100 115 121 128 141 155 161 176 184 190 204 219 226 241 249 256 264 270 292 306 313 321 328 344 351 366 373 388 395 415 421 429 443 450 464 471 487 494 509 516 531 546 ">Numerical solution at time t = 2.4 with h = 0.025</text>
   </g>
   <polyline stroke="#0000ff" stroke-linejoin="round" fill="none" stroke-linecap="butt" points="153.478,660.333 173.494,660.333" stroke-width="4"/>
   <g transform="translate(177.497,671.333) rotate(-0,-0,-11)" font-size="27" xml:space="preserve" font-weight="normal" font-style="normal" font-family="FreeSans">
    <text fill="rgb(0,0,0)" y="-1" x="0 8 23 29 37 43 58 64 71 85 99 114 129 135 143 149 163 ">Initial condition</text>
   </g>
  </g>
 </g>
</svg>
