<?xml version='1.0' encoding='UTF-8' standalone='no'?>
<svg width="861pt" viewBox="0 0 861 684" xmlns="http://www.w3.org/2000/svg" height="684pt" xmlns:xlink="http://www.w3.org/1999/xlink">
 <title>Figure 1</title>
 <desc>
Creator: GL2PS 1.4.2, (C) 1999-2020 C. Geuzaine
For: Octave
CreationDate: Tue Jun  6 20:24:13 2023
</desc>
 <defs/>
 <polygon fill="#ffffff" points="0,0 861,0 861,684 0,684"/>
 <g>
  <polygon fill="#ffffff" shape-rendering="crispEdges" points="0,684 861,684 861,0 0,0"/>
  <clipPath id="cp00861684">
   <polygon points="0,684 861,684 861,0 0,0"/>
  </clipPath>
  <g clip-path="url(#cp00861684)">
   <polygon fill="#ffffff" shape-rendering="crispEdges" points="112.036,445.532 779.94,445.532 779.94,51.3715 112.036,51.3715"/>
   <polyline stroke="#262626" stroke-width="4" fill="none" stroke-linecap="butt" points="112.036,445.532 112.036,438.85" stroke-linejoin="miter"/>
   <polyline stroke="#262626" stroke-width="4" fill="none" stroke-linecap="butt" points="112.036,51.3715 112.036,58.0532" stroke-linejoin="miter"/>
   <polyline stroke="#262626" stroke-width="4" fill="none" stroke-linecap="butt" points="279.012,445.532 279.012,438.85" stroke-linejoin="miter"/>
   <polyline stroke="#262626" stroke-width="4" fill="none" stroke-linecap="butt" points="279.012,51.3715 279.012,58.0532" stroke-linejoin="miter"/>
   <polyline stroke="#262626" stroke-width="4" fill="none" stroke-linecap="butt" points="445.988,445.532 445.988,438.85" stroke-linejoin="miter"/>
   <polyline stroke="#262626" stroke-width="4" fill="none" stroke-linecap="butt" points="445.988,51.3715 445.988,58.0532" stroke-linejoin="miter"/>
   <polyline stroke="#262626" stroke-width="4" fill="none" stroke-linecap="butt" points="612.964,445.532 612.964,438.85" stroke-linejoin="miter"/>
   <polyline stroke="#262626" stroke-width="4" fill="none" stroke-linecap="butt" points="612.964,51.3715 612.964,58.0532" stroke-linejoin="miter"/>
   <polyline stroke="#262626" stroke-width="4" fill="none" stroke-linecap="butt" points="779.94,445.532 779.94,438.85" stroke-linejoin="miter"/>
   <polyline stroke="#262626" stroke-width="4" fill="none" stroke-linecap="butt" points="779.94,51.3715 779.94,58.0532" stroke-linejoin="miter"/>
   <g xml:space="preserve" font-weight="normal" font-family="FreeSans" font-style="normal" font-size="30" transform="translate(98.5355,490.041) rotate(-0,13.5,-22)">
    <text y="-0" fill="rgb(38,38,38)" x="0 10 ">-1</text>
   </g>
   <g xml:space="preserve" font-weight="normal" font-family="FreeSans" font-style="normal" font-size="30" transform="translate(270.512,490.041) rotate(-0,8.5,-22)">
    <text y="-0" fill="rgb(38,38,38)" x="0 ">0</text>
   </g>
   <g xml:space="preserve" font-weight="normal" font-family="FreeSans" font-style="normal" font-size="30" transform="translate(437.488,490.041) rotate(-0,8.5,-22)">
    <text y="-0" fill="rgb(38,38,38)" x="0 ">1</text>
   </g>
   <g xml:space="preserve" font-weight="normal" font-family="FreeSans" font-style="normal" font-size="30" transform="translate(604.464,490.041) rotate(-0,8.5,-22)">
    <text y="-0" fill="rgb(38,38,38)" x="0 ">2</text>
   </g>
   <g xml:space="preserve" font-weight="normal" font-family="FreeSans" font-style="normal" font-size="30" transform="translate(771.44,490.041) rotate(-0,8.5,-22)">
    <text y="-0" fill="rgb(38,38,38)" x="0 ">3</text>
   </g>
   <polyline stroke="#262626" stroke-width="4" fill="none" stroke-linecap="butt" points="112.036,445.532 118.714,445.532" stroke-linejoin="miter"/>
   <polyline stroke="#262626" stroke-width="4" fill="none" stroke-linecap="butt" points="779.94,445.532 773.261,445.532" stroke-linejoin="miter"/>
   <polyline stroke="#262626" stroke-width="4" fill="none" stroke-linecap="butt" points="112.036,366.7 118.714,366.7" stroke-linejoin="miter"/>
   <polyline stroke="#262626" stroke-width="4" fill="none" stroke-linecap="butt" points="779.94,366.7 773.261,366.7" stroke-linejoin="miter"/>
   <polyline stroke="#262626" stroke-width="4" fill="none" stroke-linecap="butt" points="112.036,287.868 118.714,287.868" stroke-linejoin="miter"/>
   <polyline stroke="#262626" stroke-width="4" fill="none" stroke-linecap="butt" points="779.94,287.868 773.261,287.868" stroke-linejoin="miter"/>
   <polyline stroke="#262626" stroke-width="4" fill="none" stroke-linecap="butt" points="112.036,209.036 118.714,209.036" stroke-linejoin="miter"/>
   <polyline stroke="#262626" stroke-width="4" fill="none" stroke-linecap="butt" points="779.94,209.036 773.261,209.036" stroke-linejoin="miter"/>
   <polyline stroke="#262626" stroke-width="4" fill="none" stroke-linecap="butt" points="112.036,130.204 118.714,130.204" stroke-linejoin="miter"/>
   <polyline stroke="#262626" stroke-width="4" fill="none" stroke-linecap="butt" points="779.94,130.204 773.261,130.204" stroke-linejoin="miter"/>
   <polyline stroke="#262626" stroke-width="4" fill="none" stroke-linecap="butt" points="112.036,51.3715 118.714,51.3715" stroke-linejoin="miter"/>
   <polyline stroke="#262626" stroke-width="4" fill="none" stroke-linecap="butt" points="779.94,51.3715 773.261,51.3715" stroke-linejoin="miter"/>
   <g xml:space="preserve" font-weight="normal" font-family="FreeSans" font-style="normal" font-size="30" transform="translate(80.0377,456.532) rotate(-0,17,-11)">
    <text y="-0" fill="rgb(38,38,38)" x="0 ">0</text>
   </g>
   <g xml:space="preserve" font-weight="normal" font-family="FreeSans" font-style="normal" font-size="30" transform="translate(55.0377,377.7) rotate(-0,42,-11)">
    <text y="-0" fill="rgb(38,38,38)" x="0 17 25 ">0.2</text>
   </g>
   <g xml:space="preserve" font-weight="normal" font-family="FreeSans" font-style="normal" font-size="30" transform="translate(55.0377,298.868) rotate(-0,42,-11)">
    <text y="-0" fill="rgb(38,38,38)" x="0 17 25 ">0.4</text>
   </g>
   <g xml:space="preserve" font-weight="normal" font-family="FreeSans" font-style="normal" font-size="30" transform="translate(55.0377,220.036) rotate(-0,42,-11)">
    <text y="-0" fill="rgb(38,38,38)" x="0 17 25 ">0.6</text>
   </g>
   <g xml:space="preserve" font-weight="normal" font-family="FreeSans" font-style="normal" font-size="30" transform="translate(55.0377,141.204) rotate(-0,42,-11)">
    <text y="-0" fill="rgb(38,38,38)" x="0 17 25 ">0.8</text>
   </g>
   <g xml:space="preserve" font-weight="normal" font-family="FreeSans" font-style="normal" font-size="30" transform="translate(80.0377,62.3715) rotate(-0,17,-11)">
    <text y="-0" fill="rgb(38,38,38)" x="0 ">1</text>
   </g>
   <polyline stroke="#262626" stroke-width="4" fill="none" stroke-linecap="square" points="112.036,445.532 779.94,445.532" stroke-linejoin="miter" stroke-dasharray="64,0"/>
   <polyline stroke="#262626" stroke-width="4" fill="none" stroke-linecap="square" points="112.036,51.3715 779.94,51.3715" stroke-linejoin="miter" stroke-dasharray="64,0"/>
   <polyline stroke="#262626" stroke-width="4" fill="none" stroke-linecap="square" points="112.036,445.532 112.036,51.3715" stroke-linejoin="miter" stroke-dasharray="64,0"/>
   <polyline stroke="#262626" stroke-width="4" fill="none" stroke-linecap="square" points="779.94,445.532 779.94,51.3715" stroke-linejoin="miter" stroke-dasharray="64,0"/>
   <g xml:space="preserve" font-weight="bold" font-family="FreeSans" font-style="normal" font-size="33" transform="translate(331.488,41.3715) rotate(-0,114.5,0)">
    <text y="-1" fill="rgb(0,0,0)" x="0 20 39 57 68 89 102 111 130 151 164 173 191 211 ">Lax-Friedrichs</text>
   </g>
   <g xml:space="preserve" font-weight="normal" font-family="FreeSans" font-style="normal" font-size="33" transform="translate(42.0377,248.452) rotate(-90,8,0)">
    <text y="-0" fill="rgb(38,38,38)" x="0 ">x</text>
   </g>
   <g xml:space="preserve" font-weight="normal" font-family="FreeSans" font-style="normal" font-size="33" transform="translate(441.488,517.041) rotate(-0,4.5,-22)">
    <text y="-0" fill="rgb(38,38,38)" x="0 ">t</text>
   </g>
   <polyline stroke="#00ff00" stroke-width="4" fill="none" stroke-linecap="butt" points="112.036,445.532 113.705,445.532 115.375,445.532 117.045,445.532 118.715,445.532 120.384,445.532 122.054,445.532 123.724,445.532 125.394,445.532 127.063,445.532 128.733,445.532 130.403,445.532 132.073,445.532 133.742,445.532 135.412,445.532 137.082,445.532 138.752,445.532 140.421,445.532 142.091,445.532 143.761,445.532 145.431,445.532 147.1,445.532 148.77,445.532 150.44,445.532 152.11,445.532 153.78,445.532 155.449,445.532 157.119,445.532 158.789,445.532 160.459,445.532 162.128,445.532 163.798,445.532 165.468,445.532 167.138,445.532 168.807,445.532 170.477,445.532 172.147,445.532 173.817,445.532 175.486,445.532 177.156,445.532 178.826,445.532 180.496,445.532 182.165,445.532 183.835,445.532 185.505,445.532 187.175,445.532 188.844,445.532 190.514,445.532 192.184,445.532 193.854,445.532 195.524,445.532 197.193,445.532 198.863,445.532 200.533,445.532 202.203,445.532 203.872,445.532 205.542,445.532 207.212,445.532 208.882,445.532 210.551,445.532 212.221,445.532 213.891,445.532 215.561,445.532 217.23,445.532 218.9,445.532 220.57,445.532 222.24,445.532 223.909,445.532 225.579,445.532 227.249,445.532 228.919,445.532 230.588,445.532 232.258,445.532 233.928,445.532 235.598,445.532 237.268,445.532 238.937,445.532 240.607,445.532 242.277,445.532 243.947,445.532 245.616,445.532 247.286,445.532 248.956,445.532 250.626,445.532 252.295,445.532 253.965,445.532 255.635,445.532 257.305,445.532 258.974,445.532 260.644,445.532 262.314,445.532 263.984,445.532 265.653,445.532 267.323,445.532 268.993,445.532 270.663,445.532 272.332,445.532 274.002,445.532 275.672,445.532 277.342,445.532 279.012,445.532 280.681,445.532 282.351,445.532 284.021,445.532 285.691,445.532 287.36,445.532 289.03,445.532 290.7,445.532 292.37,445.532 294.039,445.532 295.709,445.532 297.379,445.532 299.049,445.532 300.718,445.532 302.388,445.532 304.058,445.532 305.728,445.532 307.397,445.532 309.067,445.532 310.737,445.532 312.407,445.532 314.076,445.532 315.746,445.532 317.416,445.532 319.086,445.532 320.756,445.532 322.425,445.532 324.095,445.532 325.765,445.532 327.435,445.532 329.104,445.532 330.774,445.532 332.444,445.532 334.114,445.532 335.783,445.532 337.453,445.532 339.123,445.532 340.793,445.532 342.462,445.532 344.132,445.532 345.802,445.532 347.472,445.532 349.141,445.532 350.811,445.532 352.481,445.532 354.151,445.532 355.82,445.532 357.49,445.532 359.16,445.532 360.83,445.532 362.5,445.532 364.169,445.532 365.839,445.532 367.509,445.532 369.179,445.532 370.848,445.532 372.518,445.532 374.188,445.532 375.858,445.532 377.527,445.532 379.197,445.532 380.867,445.532 382.537,445.532 384.206,445.532 385.876,445.532 387.546,445.532 389.216,445.532 390.885,445.532 392.555,445.532 394.225,445.532 395.895,445.532 397.564,445.532 399.234,445.532 400.904,445.532 402.574,445.532 404.244,445.532 405.913,445.532 407.583,445.532 409.253,445.532 410.923,445.532 412.592,445.532 414.262,445.532 415.932,445.532 417.602,445.532 419.271,445.532 420.941,445.532 422.611,445.532 424.281,445.532 425.95,445.532 427.62,445.532 429.29,445.532 430.96,445.532 432.629,445.532 434.299,445.532 435.969,445.532 437.639,445.532 439.309,445.532 440.978,445.532 442.648,445.532 444.318,445.532 445.988,445.532 447.657,445.532 449.327,445.532 450.997,445.532 452.667,445.532 454.336,445.532 456.006,445.532 457.676,445.532 459.346,445.532 461.015,445.532 462.685,445.532 464.355,445.532 466.025,445.532 467.694,445.532 469.364,445.532 471.034,445.532 472.704,445.532 474.373,445.532 476.043,445.532 477.713,445.532 479.383,445.532 481.052,445.532 482.722,445.532 484.392,445.532 486.062,445.532 487.732,445.532 489.401,445.532 491.071,445.532 492.741,445.532 494.411,445.532 496.08,445.532 497.75,445.532 499.42,445.532 501.09,445.532 502.759,445.532 504.429,445.532 506.099,445.532 507.769,445.532 509.438,445.532 511.108,445.532 512.778,445.532 514.448,445.532 516.117,445.532 517.787,445.532 519.457,445.532 521.127,445.532 522.797,445.532 524.466,445.532 526.136,445.532 527.806,445.532 529.476,445.532 531.145,445.532 532.815,445.532 534.485,445.532 536.155,445.532 537.824,445.532 539.494,445.532 541.164,445.532 542.834,445.532 544.503,445.532 546.173,445.532 547.843,445.532 549.513,445.532 551.182,445.532 552.852,445.532 554.522,445.532 556.192,445.532 557.861,445.532 559.531,445.532 561.201,445.532 562.871,445.532 564.541,445.532 566.21,445.532 567.88,445.532 569.55,445.532 571.22,445.532 572.889,445.532 574.559,445.532 576.229,445.532 577.899,445.532 579.568,445.532 581.238,445.532 582.908,445.532 584.578,445.532 586.247,445.532 587.917,445.532 589.587,445.532 591.257,445.532 592.926,445.532 594.596,445.532 596.266,445.532 597.936,445.143 599.605,443.978 601.275,442.041 602.945,439.34 604.615,435.886 606.284,431.692 607.954,426.775 609.624,421.155 611.294,414.852 612.964,407.893 614.633,400.305 616.303,392.117 617.973,383.363 619.643,374.075 621.312,364.293 622.982,354.053 624.652,343.396 626.322,332.364 627.991,321.002 629.661,309.353 631.331,297.464 633.001,285.381 634.67,273.152 636.34,260.827 638.01,248.452 639.68,236.077 641.349,223.751 643.019,211.523 644.689,199.44 646.359,187.551 648.029,175.902 649.698,164.539 651.368,153.508 653.038,142.851 654.708,132.611 656.377,122.828 658.047,113.541 659.717,104.786 661.387,96.5988 663.056,89.0104 664.726,82.0513 666.396,75.749 668.066,70.1282 669.735,65.2111 671.405,61.0173 673.075,57.5631 674.745,54.8623 676.414,52.9255 678.084,51.7604 679.754,51.3715 681.424,51.7604 683.094,52.9255 684.763,54.8623 686.433,57.5631 688.103,61.0173 689.773,65.2111 691.442,70.1282 693.112,75.749 694.782,82.0513 696.452,89.0104 698.121,96.5988 699.791,104.786 701.461,113.541 703.131,122.828 704.8,132.611 706.47,142.851 708.14,153.508 709.81,164.539 711.479,175.902 713.149,187.551 714.819,199.44 716.489,211.523 718.158,223.751 719.828,236.077 721.498,248.452 723.168,260.827 724.838,273.152 726.507,285.381 728.177,297.464 729.847,309.353 731.517,321.002 733.186,332.364 734.856,343.396 736.526,354.053 738.196,364.293 739.865,374.075 741.535,383.363 743.205,392.117 744.875,400.305 746.544,407.893 748.214,414.852 749.884,421.155 751.554,426.775 753.223,431.692 754.893,435.886 756.563,439.34 758.233,442.041 759.902,443.978 761.572,445.143 763.242,445.532 764.912,445.532 766.581,445.532 768.251,445.532 769.921,445.532 771.591,445.532 773.26,445.532 774.93,445.532 776.6,445.532 778.27,445.532 779.94,445.532" stroke-linejoin="round"/>
   <polyline stroke="#ff9999" stroke-width="4" fill="none" stroke-linecap="butt" points="112.036,445.532 128.733,445.532 145.431,445.532 162.128,445.532 178.826,445.532 195.524,445.532 212.221,445.532 228.919,445.532 245.616,445.532 262.314,445.532 279.012,445.532 295.709,445.532 312.407,445.531 329.104,445.529 345.802,445.525 362.5,445.517 379.197,445.494 395.895,445.451 412.592,445.346 429.29,445.161 445.988,444.748 462.685,444.049 479.383,442.652 496.08,440.412 512.778,436.405 529.476,430.381 546.173,420.805 562.871,407.497 579.568,388.934 596.266,365.602 612.964,337.744 629.661,307.33 646.359,278.089 663.056,253.3 679.754,238.896 696.452,236.842 713.149,250.178 729.847,276.052 746.544,311.044 763.242,345.759 779.94,345.759" stroke-linejoin="round"/>
   <polyline stroke="#ff0000" stroke-width="4" fill="none" stroke-linecap="butt" points="112.036,445.532 120.384,445.532 128.733,445.532 137.082,445.532 145.431,445.532 153.78,445.532 162.128,445.532 170.477,445.532 178.826,445.532 187.175,445.532 195.524,445.532 203.872,445.532 212.221,445.532 220.57,445.532 228.919,445.532 237.268,445.532 245.616,445.532 253.965,445.532 262.314,445.532 270.663,445.532 279.012,445.532 287.36,445.532 295.709,445.532 304.058,445.532 312.407,445.532 320.756,445.532 329.104,445.532 337.453,445.532 345.802,445.532 354.151,445.532 362.5,445.532 370.848,445.532 379.197,445.532 387.546,445.532 395.895,445.532 404.244,445.532 412.592,445.531 420.941,445.53 429.29,445.528 437.639,445.524 445.988,445.517 454.336,445.503 462.685,445.479 471.034,445.434 479.383,445.36 487.732,445.228 496.08,445.016 504.429,444.66 512.778,444.107 521.127,443.223 529.476,441.906 537.824,439.908 546.173,437.052 554.522,432.954 562.871,427.356 571.22,419.774 579.568,409.921 587.917,397.362 596.266,381.927 604.615,363.496 612.964,342.241 621.312,318.643 629.661,293.415 638.01,267.751 646.359,242.887 654.708,220.48 663.056,201.943 671.405,188.799 679.754,182.041 688.103,182.405 696.452,189.929 704.8,204.233 713.149,224.276 721.498,248.755 729.847,275.938 738.196,304.193 746.544,331.783 754.893,357.403 763.242,379.856 771.591,397.505 779.94,397.505" stroke-linejoin="round"/>
   <polyline stroke="#990000" stroke-width="4" fill="none" stroke-linecap="butt" points="112.036,445.532 116.21,445.532 120.384,445.532 124.559,445.532 128.733,445.532 132.908,445.532 137.082,445.532 141.256,445.532 145.431,445.532 149.605,445.532 153.78,445.532 157.954,445.532 162.128,445.532 166.303,445.532 170.477,445.532 174.652,445.532 178.826,445.532 183,445.532 187.175,445.532 191.349,445.532 195.524,445.532 199.698,445.532 203.872,445.532 208.047,445.532 212.221,445.532 216.396,445.532 220.57,445.532 224.744,445.532 228.919,445.532 233.093,445.532 237.268,445.532 241.442,445.532 245.616,445.532 249.791,445.532 253.965,445.532 258.14,445.532 262.314,445.532 266.488,445.532 270.663,445.532 274.837,445.532 279.012,445.532 283.186,445.532 287.36,445.532 291.535,445.532 295.709,445.532 299.884,445.532 304.058,445.532 308.232,445.532 312.407,445.532 316.581,445.532 320.756,445.532 324.93,445.532 329.104,445.532 333.279,445.532 337.453,445.532 341.628,445.532 345.802,445.532 349.976,445.532 354.151,445.532 358.325,445.532 362.5,445.532 366.674,445.532 370.848,445.532 375.023,445.532 379.197,445.532 383.372,445.532 387.546,445.532 391.72,445.532 395.895,445.532 400.069,445.532 404.244,445.532 408.418,445.532 412.592,445.532 416.767,445.532 420.941,445.532 425.116,445.532 429.29,445.532 433.464,445.532 437.639,445.532 441.813,445.532 445.988,445.532 450.162,445.532 454.336,445.532 458.511,445.532 462.685,445.532 466.86,445.532 471.034,445.532 475.208,445.531 479.383,445.531 483.557,445.53 487.732,445.528 491.906,445.526 496.08,445.522 500.255,445.516 504.429,445.507 508.604,445.492 512.778,445.47 516.952,445.436 521.127,445.386 525.301,445.311 529.476,445.203 533.65,445.045 537.824,444.823 541.999,444.508 546.173,444.074 550.348,443.475 554.522,442.669 558.696,441.587 562.871,440.166 567.045,438.309 571.22,435.932 575.394,432.912 579.568,429.145 583.743,424.493 587.917,418.841 592.092,412.06 596.266,404.046 600.44,394.703 604.615,383.97 608.789,371.821 612.964,358.265 617.138,343.375 621.312,327.257 625.487,310.096 629.661,292.104 633.836,273.571 638.01,254.799 642.184,236.155 646.359,217.999 650.533,200.725 654.708,184.704 658.882,170.307 663.056,157.863 667.231,147.669 671.405,139.969 675.58,134.95 679.754,132.736 683.928,133.385 688.103,136.887 692.277,143.164 696.452,152.073 700.626,163.412 704.8,176.921 708.975,192.302 713.149,209.21 717.324,227.286 721.498,246.14 725.672,265.397 729.847,284.674 734.021,303.626 738.196,321.919 742.37,339.28 746.544,355.465 750.719,370.302 754.893,383.656 759.068,395.468 763.242,405.717 767.416,414.44 771.591,421.687 775.765,427.222 779.94,427.222" stroke-linejoin="round"/>
   <polyline stroke="#0000ff" stroke-width="4" fill="none" stroke-linecap="butt" points="112.036,445.532 113.705,445.532 115.375,445.532 117.045,445.532 118.715,445.532 120.384,445.532 122.054,445.532 123.724,445.532 125.394,445.532 127.063,445.532 128.733,445.532 130.403,445.532 132.073,445.532 133.742,445.532 135.412,445.532 137.082,445.532 138.752,445.532 140.421,445.532 142.091,445.532 143.761,445.532 145.431,445.532 147.1,445.532 148.77,445.532 150.44,445.532 152.11,445.532 153.78,445.532 155.449,445.532 157.119,445.532 158.789,445.532 160.459,445.532 162.128,445.532 163.798,445.532 165.468,445.532 167.138,445.532 168.807,445.532 170.477,445.532 172.147,445.532 173.817,445.532 175.486,445.532 177.156,445.532 178.826,445.532 180.496,445.532 182.165,445.532 183.835,445.532 185.505,445.532 187.175,445.532 188.844,445.532 190.514,445.532 192.184,445.532 193.854,445.532 195.524,445.532 197.193,445.143 198.863,443.978 200.533,442.041 202.203,439.34 203.872,435.886 205.542,431.692 207.212,426.775 208.882,421.155 210.551,414.852 212.221,407.893 213.891,400.305 215.561,392.117 217.23,383.363 218.9,374.075 220.57,364.293 222.24,354.053 223.909,343.396 225.579,332.364 227.249,321.002 228.919,309.353 230.588,297.464 232.258,285.381 233.928,273.152 235.598,260.827 237.268,248.452 238.937,236.077 240.607,223.751 242.277,211.523 243.947,199.44 245.616,187.551 247.286,175.902 248.956,164.539 250.626,153.508 252.295,142.851 253.965,132.611 255.635,122.828 257.305,113.541 258.974,104.786 260.644,96.5988 262.314,89.0104 263.984,82.0513 265.653,75.749 267.323,70.1282 268.993,65.2111 270.663,61.0173 272.332,57.5631 274.002,54.8623 275.672,52.9255 277.342,51.7604 279.012,51.3715 280.681,51.7604 282.351,52.9255 284.021,54.8623 285.691,57.5631 287.36,61.0173 289.03,65.2111 290.7,70.1282 292.37,75.749 294.039,82.0513 295.709,89.0104 297.379,96.5988 299.049,104.786 300.718,113.541 302.388,122.828 304.058,132.611 305.728,142.851 307.397,153.508 309.067,164.539 310.737,175.902 312.407,187.551 314.076,199.44 315.746,211.523 317.416,223.751 319.086,236.077 320.756,248.452 322.425,260.827 324.095,273.152 325.765,285.381 327.435,297.464 329.104,309.353 330.774,321.002 332.444,332.364 334.114,343.396 335.783,354.053 337.453,364.293 339.123,374.075 340.793,383.363 342.462,392.117 344.132,400.305 345.802,407.893 347.472,414.852 349.141,421.155 350.811,426.775 352.481,431.692 354.151,435.886 355.82,439.34 357.49,442.041 359.16,443.978 360.83,445.143 362.5,445.532 364.169,445.532 365.839,445.532 367.509,445.532 369.179,445.532 370.848,445.532 372.518,445.532 374.188,445.532 375.858,445.532 377.527,445.532 379.197,445.532 380.867,445.532 382.537,445.532 384.206,445.532 385.876,445.532 387.546,445.532 389.216,445.532 390.885,445.532 392.555,445.532 394.225,445.532 395.895,445.532 397.564,445.532 399.234,445.532 400.904,445.532 402.574,445.532 404.244,445.532 405.913,445.532 407.583,445.532 409.253,445.532 410.923,445.532 412.592,445.532 414.262,445.532 415.932,445.532 417.602,445.532 419.271,445.532 420.941,445.532 422.611,445.532 424.281,445.532 425.95,445.532 427.62,445.532 429.29,445.532 430.96,445.532 432.629,445.532 434.299,445.532 435.969,445.532 437.639,445.532 439.309,445.532 440.978,445.532 442.648,445.532 444.318,445.532 445.988,445.532 447.657,445.532 449.327,445.532 450.997,445.532 452.667,445.532 454.336,445.532 456.006,445.532 457.676,445.532 459.346,445.532 461.015,445.532 462.685,445.532 464.355,445.532 466.025,445.532 467.694,445.532 469.364,445.532 471.034,445.532 472.704,445.532 474.373,445.532 476.043,445.532 477.713,445.532 479.383,445.532 481.052,445.532 482.722,445.532 484.392,445.532 486.062,445.532 487.732,445.532 489.401,445.532 491.071,445.532 492.741,445.532 494.411,445.532 496.08,445.532 497.75,445.532 499.42,445.532 501.09,445.532 502.759,445.532 504.429,445.532 506.099,445.532 507.769,445.532 509.438,445.532 511.108,445.532 512.778,445.532 514.448,445.532 516.117,445.532 517.787,445.532 519.457,445.532 521.127,445.532 522.797,445.532 524.466,445.532 526.136,445.532 527.806,445.532 529.476,445.532 531.145,445.532 532.815,445.532 534.485,445.532 536.155,445.532 537.824,445.532 539.494,445.532 541.164,445.532 542.834,445.532 544.503,445.532 546.173,445.532 547.843,445.532 549.513,445.532 551.182,445.532 552.852,445.532 554.522,445.532 556.192,445.532 557.861,445.532 559.531,445.532 561.201,445.532 562.871,445.532 564.541,445.532 566.21,445.532 567.88,445.532 569.55,445.532 571.22,445.532 572.889,445.532 574.559,445.532 576.229,445.532 577.899,445.532 579.568,445.532 581.238,445.532 582.908,445.532 584.578,445.532 586.247,445.532 587.917,445.532 589.587,445.532 591.257,445.532 592.926,445.532 594.596,445.532 596.266,445.532 597.936,445.532 599.605,445.532 601.275,445.532 602.945,445.532 604.615,445.532 606.284,445.532 607.954,445.532 609.624,445.532 611.294,445.532 612.964,445.532 614.633,445.532 616.303,445.532 617.973,445.532 619.643,445.532 621.312,445.532 622.982,445.532 624.652,445.532 626.322,445.532 627.991,445.532 629.661,445.532 631.331,445.532 633.001,445.532 634.67,445.532 636.34,445.532 638.01,445.532 639.68,445.532 641.349,445.532 643.019,445.532 644.689,445.532 646.359,445.532 648.029,445.532 649.698,445.532 651.368,445.532 653.038,445.532 654.708,445.532 656.377,445.532 658.047,445.532 659.717,445.532 661.387,445.532 663.056,445.532 664.726,445.532 666.396,445.532 668.066,445.532 669.735,445.532 671.405,445.532 673.075,445.532 674.745,445.532 676.414,445.532 678.084,445.532 679.754,445.532 681.424,445.532 683.094,445.532 684.763,445.532 686.433,445.532 688.103,445.532 689.773,445.532 691.442,445.532 693.112,445.532 694.782,445.532 696.452,445.532 698.121,445.532 699.791,445.532 701.461,445.532 703.131,445.532 704.8,445.532 706.47,445.532 708.14,445.532 709.81,445.532 711.479,445.532 713.149,445.532 714.819,445.532 716.489,445.532 718.158,445.532 719.828,445.532 721.498,445.532 723.168,445.532 724.838,445.532 726.507,445.532 728.177,445.532 729.847,445.532 731.517,445.532 733.186,445.532 734.856,445.532 736.526,445.532 738.196,445.532 739.865,445.532 741.535,445.532 743.205,445.532 744.875,445.532 746.544,445.532 748.214,445.532 749.884,445.532 751.554,445.532 753.223,445.532 754.893,445.532 756.563,445.532 758.233,445.532 759.902,445.532 761.572,445.532 763.242,445.532 764.912,445.532 766.581,445.532 768.251,445.532 769.921,445.532 771.591,445.532 773.26,445.532 774.93,445.532 776.6,445.532 778.27,445.532 779.94,445.532" stroke-linejoin="round"/>
  </g>
  <clipPath id="cp00861684">
   <polygon points="0,684 861,684 861,0 0,0"/>
  </clipPath>
  <g clip-path="url(#cp00861684)">
   <polygon fill="#ffffff" shape-rendering="crispEdges" points="149.475,676.947 742.5,676.947 742.5,525.047 149.475,525.047"/>
   <polyline stroke="#262626" stroke-width="0.5" fill="none" stroke-linecap="square" points="149.475,676.947 742.5,676.947" stroke-linejoin="miter" stroke-dasharray="16,0"/>
   <polyline stroke="#262626" stroke-width="0.5" fill="none" stroke-linecap="square" points="149.475,525.047 742.5,525.047" stroke-linejoin="miter" stroke-dasharray="16,0"/>
   <polyline stroke="#262626" stroke-width="0.5" fill="none" stroke-linecap="square" points="149.475,676.947 149.475,525.047" stroke-linejoin="miter" stroke-dasharray="16,0"/>
   <polyline stroke="#262626" stroke-width="0.5" fill="none" stroke-linecap="square" points="742.5,676.947 742.5,525.047" stroke-linejoin="miter" stroke-dasharray="16,0"/>
   <polyline stroke="#00ff00" stroke-width="4" fill="none" stroke-linecap="butt" points="153.478,542.55 173.494,542.55" stroke-linejoin="round"/>
   <g xml:space="preserve" font-weight="normal" font-family="FreeSans" font-style="normal" font-size="27" transform="translate(177.497,556.05) rotate(-0,-0,-13.5)">
    <text y="-6" fill="rgb(0,0,0)" x="0 18 33 48 54 67 75 81 95 102 115 129 135 150 158 164 178 193 200 215 223 230 238 244 266 280 287 295 302 318 325 340 347 ">Analytic solution at time t = 2.4</text>
   </g>
   <polyline stroke="#ff9999" stroke-width="4" fill="none" stroke-linecap="butt" points="153.478,572.663 173.494,572.663" stroke-linejoin="round"/>
   <g xml:space="preserve" font-weight="normal" font-family="FreeSans" font-style="normal" font-size="27" transform="translate(177.497,583.663) rotate(-0,-0,-11)">
    <text y="-1" fill="rgb(0,0,0)" x="0 20 35 57 71 80 86 100 115 121 128 141 155 161 176 184 190 204 219 226 241 249 256 264 270 292 306 313 321 328 344 351 366 373 388 395 415 421 429 443 450 464 471 487 494 509 516 ">Numerical solution at time t = 2.4 with h = 0.1</text>
   </g>
   <polyline stroke="#ff0000" stroke-width="4" fill="none" stroke-linecap="butt" points="153.478,601.887 173.494,601.887" stroke-linejoin="round"/>
   <g xml:space="preserve" font-weight="normal" font-family="FreeSans" font-style="normal" font-size="27" transform="translate(177.497,612.887) rotate(-0,-0,-11)">
    <text y="-1" fill="rgb(0,0,0)" x="0 20 35 57 71 80 86 100 115 121 128 141 155 161 176 184 190 204 219 226 241 249 256 264 270 292 306 313 321 328 344 351 366 373 388 395 415 421 429 443 450 464 471 487 494 509 516 531 ">Numerical solution at time t = 2.4 with h = 0.05</text>
   </g>
   <polyline stroke="#990000" stroke-width="4" fill="none" stroke-linecap="butt" points="153.478,631.11 173.494,631.11" stroke-linejoin="round"/>
   <g xml:space="preserve" font-weight="normal" font-family="FreeSans" font-style="normal" font-size="27" transform="translate(177.497,642.11) rotate(-0,-0,-11)">
    <text y="-1" fill="rgb(0,0,0)" x="0 20 35 57 71 80 86 100 115 121 128 141 155 161 176 184 190 204 219 226 241 249 256 264 270 292 306 313 321 328 344 351 366 373 388 395 415 421 429 443 450 464 471 487 494 509 516 531 546 ">Numerical solution at time t = 2.4 with h = 0.025</text>
   </g>
   <polyline stroke="#0000ff" stroke-width="4" fill="none" stroke-linecap="butt" points="153.478,660.333 173.494,660.333" stroke-linejoin="round"/>
   <g xml:space="preserve" font-weight="normal" font-family="FreeSans" font-style="normal" font-size="27" transform="translate(177.497,671.333) rotate(-0,-0,-11)">
    <text y="-1" fill="rgb(0,0,0)" x="0 8 23 29 37 43 58 64 71 85 99 114 129 135 143 149 163 ">Initial condition</text>
   </g>
  </g>
 </g>
</svg>
