<?xml version='1.0' encoding='UTF-8' standalone='no'?>
<svg xmlns:xlink="http://www.w3.org/1999/xlink" xmlns="http://www.w3.org/2000/svg" width="894pt" height="690pt" viewBox="0 0 894 690">
 <title>Figure 1</title>
 <desc>
Creator: GL2PS 1.4.2, (C) 1999-2020 C. Geuzaine
For: Octave
CreationDate: Tue Jun  6 21:14:06 2023
</desc>
 <defs/>
 <polygon points="0,0 894,0 894,690 0,690" fill="#ffffff"/>
 <g>
  <polygon points="0,690 894,690 894,0 0,0" fill="#ffffff" shape-rendering="crispEdges"/>
  <clipPath id="cp00894690">
   <polygon points="0,690 894,690 894,0 0,0"/>
  </clipPath>
  <g clip-path="url(#cp00894690)">
   <polygon points="143.497,431.171 809.103,431.171 809.103,51.8211 143.497,51.8211" fill="#ffffff" shape-rendering="crispEdges"/>
   <polyline stroke-linejoin="miter" points="143.497,431.171 143.497,424.509" stroke-width="4" stroke-linecap="butt" stroke="#262626" fill="none"/>
   <polyline stroke-linejoin="miter" points="143.497,51.8211 143.497,58.4833" stroke-width="4" stroke-linecap="butt" stroke="#262626" fill="none"/>
   <polyline stroke-linejoin="miter" points="309.898,431.171 309.898,424.509" stroke-width="4" stroke-linecap="butt" stroke="#262626" fill="none"/>
   <polyline stroke-linejoin="miter" points="309.898,51.8211 309.898,58.4833" stroke-width="4" stroke-linecap="butt" stroke="#262626" fill="none"/>
   <polyline stroke-linejoin="miter" points="476.3,431.171 476.3,424.509" stroke-width="4" stroke-linecap="butt" stroke="#262626" fill="none"/>
   <polyline stroke-linejoin="miter" points="476.3,51.8211 476.3,58.4833" stroke-width="4" stroke-linecap="butt" stroke="#262626" fill="none"/>
   <polyline stroke-linejoin="miter" points="642.701,431.171 642.701,424.509" stroke-width="4" stroke-linecap="butt" stroke="#262626" fill="none"/>
   <polyline stroke-linejoin="miter" points="642.701,51.8211 642.701,58.4833" stroke-width="4" stroke-linecap="butt" stroke="#262626" fill="none"/>
   <polyline stroke-linejoin="miter" points="809.103,431.171 809.103,424.509" stroke-width="4" stroke-linecap="butt" stroke="#262626" fill="none"/>
   <polyline stroke-linejoin="miter" points="809.103,51.8211 809.103,58.4833" stroke-width="4" stroke-linecap="butt" stroke="#262626" fill="none"/>
   <g font-family="FreeSans" font-weight="normal" xml:space="preserve" font-style="normal" font-size="33" transform="translate(128.997,479.944) rotate(-0,14.5,-24)">
    <text y="-0" x="0 11 " fill="rgb(38,38,38)">-1</text>
   </g>
   <g font-family="FreeSans" font-weight="normal" xml:space="preserve" font-style="normal" font-size="33" transform="translate(300.898,479.944) rotate(-0,9,-24)">
    <text y="-0" x="0 " fill="rgb(38,38,38)">0</text>
   </g>
   <g font-family="FreeSans" font-weight="normal" xml:space="preserve" font-style="normal" font-size="33" transform="translate(467.3,479.944) rotate(-0,9,-24)">
    <text y="-0" x="0 " fill="rgb(38,38,38)">1</text>
   </g>
   <g font-family="FreeSans" font-weight="normal" xml:space="preserve" font-style="normal" font-size="33" transform="translate(633.701,479.944) rotate(-0,9,-24)">
    <text y="-0" x="0 " fill="rgb(38,38,38)">2</text>
   </g>
   <g font-family="FreeSans" font-weight="normal" xml:space="preserve" font-style="normal" font-size="33" transform="translate(800.103,479.944) rotate(-0,9,-24)">
    <text y="-0" x="0 " fill="rgb(38,38,38)">3</text>
   </g>
   <polyline stroke-linejoin="miter" points="143.497,431.171 150.149,431.171" stroke-width="4" stroke-linecap="butt" stroke="#262626" fill="none"/>
   <polyline stroke-linejoin="miter" points="809.103,431.171 802.45,431.171" stroke-width="4" stroke-linecap="butt" stroke="#262626" fill="none"/>
   <polyline stroke-linejoin="miter" points="143.497,336.334 150.149,336.334" stroke-width="4" stroke-linecap="butt" stroke="#262626" fill="none"/>
   <polyline stroke-linejoin="miter" points="809.103,336.334 802.45,336.334" stroke-width="4" stroke-linecap="butt" stroke="#262626" fill="none"/>
   <polyline stroke-linejoin="miter" points="143.497,241.496 150.149,241.496" stroke-width="4" stroke-linecap="butt" stroke="#262626" fill="none"/>
   <polyline stroke-linejoin="miter" points="809.103,241.496 802.45,241.496" stroke-width="4" stroke-linecap="butt" stroke="#262626" fill="none"/>
   <polyline stroke-linejoin="miter" points="143.497,146.659 150.149,146.659" stroke-width="4" stroke-linecap="butt" stroke="#262626" fill="none"/>
   <polyline stroke-linejoin="miter" points="809.103,146.659 802.45,146.659" stroke-width="4" stroke-linecap="butt" stroke="#262626" fill="none"/>
   <polyline stroke-linejoin="miter" points="143.497,51.8211 150.149,51.8211" stroke-width="4" stroke-linecap="butt" stroke="#262626" fill="none"/>
   <polyline stroke-linejoin="miter" points="809.103,51.8211 802.45,51.8211" stroke-width="4" stroke-linecap="butt" stroke="#262626" fill="none"/>
   <g font-family="FreeSans" font-weight="normal" xml:space="preserve" font-style="normal" font-size="33" transform="translate(25.0069,443.171) rotate(-0,102,-12)">
    <text y="-0" x="0 11 29 47 66 84 " fill="rgb(38,38,38)">-1e+09</text>
   </g>
   <g font-family="FreeSans" font-weight="normal" xml:space="preserve" font-style="normal" font-size="33" transform="translate(25.0069,348.334) rotate(-0,102,-12)">
    <text y="-0" x="0 11 29 47 66 84 " fill="rgb(38,38,38)">-5e+08</text>
   </g>
   <g font-family="FreeSans" font-weight="normal" xml:space="preserve" font-style="normal" font-size="33" transform="translate(109.007,253.496) rotate(-0,18,-12)">
    <text y="-0" x="0 " fill="rgb(38,38,38)">0</text>
   </g>
   <g font-family="FreeSans" font-weight="normal" xml:space="preserve" font-style="normal" font-size="33" transform="translate(36.0069,158.659) rotate(-0,91,-12)">
    <text y="-0" x="0 18 36 55 73 " fill="rgb(38,38,38)">5e+08</text>
   </g>
   <g font-family="FreeSans" font-weight="normal" xml:space="preserve" font-style="normal" font-size="33" transform="translate(36.0069,63.8211) rotate(-0,91,-12)">
    <text y="-0" x="0 18 36 55 73 " fill="rgb(38,38,38)">1e+09</text>
   </g>
   <polyline stroke-linejoin="miter" stroke-dasharray="64,0" points="143.497,431.171 809.103,431.171" stroke-width="4" stroke-linecap="square" stroke="#262626" fill="none"/>
   <polyline stroke-linejoin="miter" stroke-dasharray="64,0" points="143.497,51.8211 809.103,51.8211" stroke-width="4" stroke-linecap="square" stroke="#262626" fill="none"/>
   <polyline stroke-linejoin="miter" stroke-dasharray="64,0" points="143.497,431.171 143.497,51.8211" stroke-width="4" stroke-linecap="square" stroke="#262626" fill="none"/>
   <polyline stroke-linejoin="miter" stroke-dasharray="64,0" points="809.103,431.171 809.103,51.8211" stroke-width="4" stroke-linecap="square" stroke="#262626" fill="none"/>
   <g font-family="FreeSans" font-weight="normal" xml:space="preserve" font-style="normal" font-size="36.3" transform="translate(471.3,509.944) rotate(-0,5,-25)">
    <text y="-0" x="0 " fill="rgb(38,38,38)">t</text>
   </g>
   <g font-family="FreeSans" font-weight="normal" xml:space="preserve" font-style="normal" font-size="36.3" transform="translate(11.5069,241.496) rotate(-90,8.5,0)">
    <text y="-0" x="0 " fill="rgb(38,38,38)">x</text>
   </g>
   <g font-family="FreeSans" font-weight="bold" xml:space="preserve" font-style="normal" font-size="36.3" transform="translate(350.3,41.8211) rotate(-0,126,0)">
    <text y="-1" x="0 22 43 63 75 98 112 122 143 166 180 190 210 232 " fill="rgb(0,0,0)">Lax-Friedrichs</text>
   </g>
   <polyline stroke-linejoin="round" points="143.497,241.496 145.161,241.496 146.825,241.496 148.489,241.496 150.153,241.496 151.817,241.496 153.481,241.496 155.145,241.496 156.809,241.496 158.473,241.496 160.137,241.496 161.801,241.496 163.465,241.496 165.129,241.496 166.793,241.496 168.457,241.496 170.121,241.496 171.785,241.496 173.449,241.496 175.113,241.496 176.777,241.496 178.441,241.496 180.105,241.496 181.769,241.496 183.433,241.496 185.097,241.496 186.761,241.496 188.425,241.496 190.089,241.496 191.754,241.496 193.418,241.496 195.082,241.496 196.746,241.496 198.41,241.496 200.074,241.496 201.738,241.496 203.402,241.496 205.066,241.496 206.73,241.496 208.394,241.496 210.058,241.496 211.722,241.496 213.386,241.496 215.05,241.496 216.714,241.496 218.378,241.496 220.042,241.496 221.706,241.496 223.37,241.496 225.034,241.496 226.698,241.496 228.362,241.496 230.026,241.496 231.69,241.496 233.354,241.496 235.018,241.496 236.682,241.496 238.346,241.496 240.01,241.496 241.674,241.496 243.338,241.496 245.002,241.496 246.666,241.496 248.33,241.496 249.994,241.496 251.658,241.496 253.322,241.496 254.986,241.496 256.65,241.496 258.314,241.496 259.978,241.496 261.642,241.496 263.306,241.496 264.97,241.496 266.634,241.496 268.298,241.496 269.962,241.496 271.626,241.496 273.29,241.496 274.954,241.496 276.618,241.496 278.282,241.496 279.946,241.496 281.61,241.496 283.274,241.496 284.938,241.496 286.602,241.496 288.266,241.496 289.93,241.496 291.594,241.496 293.258,241.496 294.922,241.496 296.586,241.496 298.25,241.496 299.914,241.496 301.578,241.496 303.242,241.496 304.906,241.496 306.57,241.496 308.234,241.496 309.898,241.496 311.562,241.496 313.227,241.496 314.891,241.496 316.555,241.496 318.219,241.496 319.883,241.496 321.547,241.496 323.211,241.496 324.875,241.496 326.539,241.496 328.203,241.496 329.867,241.496 331.531,241.496 333.195,241.496 334.859,241.496 336.523,241.496 338.187,241.496 339.851,241.496 341.515,241.496 343.179,241.496 344.843,241.496 346.507,241.496 348.171,241.496 349.835,241.496 351.499,241.496 353.163,241.496 354.827,241.496 356.491,241.496 358.155,241.496 359.819,241.496 361.483,241.496 363.147,241.496 364.811,241.496 366.475,241.496 368.139,241.496 369.803,241.496 371.467,241.496 373.131,241.496 374.795,241.496 376.459,241.496 378.123,241.496 379.787,241.496 381.451,241.496 383.115,241.496 384.779,241.496 386.443,241.496 388.107,241.496 389.771,241.496 391.435,241.496 393.099,241.496 394.763,241.496 396.427,241.496 398.091,241.496 399.755,241.496 401.419,241.496 403.083,241.496 404.747,241.496 406.411,241.496 408.075,241.496 409.739,241.496 411.403,241.496 413.067,241.496 414.731,241.496 416.395,241.496 418.059,241.496 419.723,241.496 421.387,241.496 423.051,241.496 424.715,241.496 426.379,241.496 428.043,241.496 429.707,241.496 431.371,241.496 433.035,241.496 434.699,241.496 436.363,241.496 438.027,241.496 439.692,241.496 441.356,241.496 443.02,241.496 444.684,241.496 446.348,241.496 448.012,241.496 449.676,241.496 451.34,241.496 453.004,241.496 454.668,241.496 456.332,241.496 457.996,241.496 459.66,241.496 461.324,241.496 462.988,241.496 464.652,241.496 466.316,241.496 467.98,241.496 469.644,241.496 471.308,241.496 472.972,241.496 474.636,241.496 476.3,241.496 477.964,241.496 479.628,241.496 481.292,241.496 482.956,241.496 484.62,241.496 486.284,241.496 487.948,241.496 489.612,241.496 491.276,241.496 492.94,241.496 494.604,241.496 496.268,241.496 497.932,241.496 499.596,241.496 501.26,241.496 502.924,241.496 504.588,241.496 506.252,241.496 507.916,241.496 509.58,241.496 511.244,241.496 512.908,241.496 514.572,241.496 516.236,241.496 517.9,241.496 519.564,241.496 521.228,241.496 522.892,241.496 524.556,241.496 526.22,241.496 527.884,241.496 529.548,241.496 531.212,241.496 532.876,241.496 534.54,241.496 536.204,241.496 537.868,241.496 539.532,241.496 541.196,241.496 542.86,241.496 544.524,241.496 546.188,241.496 547.852,241.496 549.516,241.496 551.18,241.496 552.844,241.496 554.508,241.496 556.172,241.496 557.836,241.496 559.5,241.496 561.165,241.496 562.829,241.496 564.493,241.496 566.157,241.496 567.821,241.496 569.485,241.496 571.149,241.496 572.813,241.496 574.477,241.496 576.141,241.496 577.805,241.496 579.469,241.496 581.133,241.496 582.797,241.496 584.461,241.496 586.125,241.496 587.789,241.496 589.453,241.496 591.117,241.496 592.781,241.496 594.445,241.496 596.109,241.496 597.773,241.496 599.437,241.496 601.101,241.496 602.765,241.496 604.429,241.496 606.093,241.496 607.757,241.496 609.421,241.496 611.085,241.496 612.749,241.496 614.413,241.496 616.077,241.496 617.741,241.496 619.405,241.496 621.069,241.496 622.733,241.496 624.397,241.496 626.061,241.496 627.725,241.496 629.389,241.496 631.053,241.496 632.717,241.496 634.381,241.496 636.045,241.496 637.709,241.496 639.373,241.496 641.037,241.496 642.701,241.496 644.365,241.496 646.029,241.496 647.693,241.496 649.357,241.496 651.021,241.496 652.685,241.496 654.349,241.496 656.013,241.496 657.677,241.496 659.341,241.496 661.005,241.496 662.669,241.496 664.333,241.496 665.997,241.496 667.661,241.496 669.325,241.496 670.989,241.496 672.653,241.496 674.317,241.496 675.981,241.496 677.645,241.496 679.31,241.496 680.974,241.496 682.638,241.496 684.302,241.496 685.966,241.496 687.63,241.496 689.294,241.496 690.958,241.496 692.622,241.496 694.286,241.496 695.95,241.496 697.614,241.496 699.278,241.496 700.942,241.496 702.606,241.496 704.27,241.496 705.934,241.496 707.598,241.496 709.262,241.496 710.926,241.496 712.59,241.496 714.254,241.496 715.918,241.496 717.582,241.496 719.246,241.496 720.91,241.496 722.574,241.496 724.238,241.496 725.902,241.496 727.566,241.496 729.23,241.496 730.894,241.496 732.558,241.496 734.222,241.496 735.886,241.496 737.55,241.496 739.214,241.496 740.878,241.496 742.542,241.496 744.206,241.496 745.87,241.496 747.534,241.496 749.198,241.496 750.862,241.496 752.526,241.496 754.19,241.496 755.854,241.496 757.518,241.496 759.182,241.496 760.846,241.496 762.51,241.496 764.174,241.496 765.838,241.496 767.502,241.496 769.166,241.496 770.83,241.496 772.494,241.496 774.158,241.496 775.822,241.496 777.486,241.496 779.15,241.496 780.814,241.496 782.478,241.496 784.142,241.496 785.806,241.496 787.47,241.496 789.134,241.496 790.798,241.496 792.462,241.496 794.126,241.496 795.79,241.496 797.454,241.496 799.118,241.496 800.782,241.496 802.446,241.496 804.111,241.496 805.774,241.496 807.439,241.496 809.103,241.496" stroke-width="4" stroke-linecap="butt" stroke="#00ff00" fill="none"/>
   <polyline stroke-linejoin="round" points="143.497,241.496 160.137,241.496 176.777,241.496 193.418,241.496 210.058,241.496 226.698,241.496 243.338,241.496 259.978,241.496 276.618,241.496 293.258,241.496 309.898,241.496 326.539,241.496 343.179,241.496 359.819,241.496 376.459,241.496 393.099,241.496 409.739,241.496 426.379,241.496 443.02,241.496 459.66,241.496 476.3,241.496 492.94,241.496 509.58,241.496 526.22,241.496 542.86,241.496 559.5,241.496 576.141,241.496 592.781,241.496 609.421,241.496 626.061,241.496 642.701,241.496 659.341,241.496 675.981,241.496 692.622,241.496 709.262,241.496 725.902,241.496 742.542,241.496 759.182,241.496 775.822,241.496 792.462,241.496 809.103,241.496" stroke-width="4" stroke-linecap="butt" stroke="#ff9999" fill="none"/>
   <polyline stroke-linejoin="round" points="143.497,241.496 151.817,241.496 160.137,241.496 168.457,241.496 176.777,241.496 185.097,241.496 193.418,241.496 201.738,241.496 210.058,241.496 218.378,241.496 226.698,241.496 235.018,241.496 243.338,241.496 251.658,241.496 259.978,241.496 268.298,241.496 276.618,241.496 284.938,241.496 293.258,241.496 301.578,241.496 309.898,241.496 318.219,241.496 326.539,241.496 334.859,241.496 343.179,241.496 351.499,241.496 359.819,241.496 368.139,241.496 376.459,241.496 384.779,241.497 393.099,241.496 401.419,241.495 409.739,241.496 418.059,241.497 426.379,241.496 434.699,241.496 443.02,241.496 451.34,241.496 459.66,241.496 467.98,241.496 476.3,241.496 484.62,241.496 492.94,241.496 501.26,241.496 509.58,241.496 517.9,241.496 526.22,241.496 534.54,241.497 542.86,241.496 551.18,241.495 559.5,241.496 567.821,241.497 576.141,241.496 584.461,241.496 592.781,241.496 601.101,241.496 609.421,241.496 617.741,241.496 626.061,241.496 634.381,241.496 642.701,241.496 651.021,241.496 659.341,241.496 667.661,241.496 675.981,241.496 684.302,241.496 692.622,241.496 700.942,241.496 709.262,241.496 717.582,241.496 725.902,241.496 734.222,241.496 742.542,241.496 750.862,241.496 759.182,241.496 767.502,241.496 775.822,241.496 784.142,241.496 792.462,241.496 800.782,241.496 809.103,241.496" stroke-width="4" stroke-linecap="butt" stroke="#ff0000" fill="none"/>
   <polyline stroke-linejoin="round" points="143.497,241.496 147.657,241.496 151.817,241.496 155.977,241.496 160.137,241.496 164.297,241.496 168.457,241.496 172.617,241.496 176.777,241.496 180.937,241.496 185.097,241.496 189.257,241.496 193.418,241.496 197.578,241.496 201.738,241.496 205.898,241.496 210.058,241.496 214.218,241.496 218.378,241.496 222.538,241.496 226.698,241.496 230.858,241.496 235.018,241.496 239.178,241.496 243.338,241.497 247.498,241.496 251.658,241.494 255.818,241.495 259.978,241.502 264.138,241.501 268.298,241.476 272.458,241.478 276.618,241.555 280.778,241.557 284.938,241.333 289.098,241.31 293.258,241.913 297.418,242.017 301.578,240.513 305.738,240.145 309.898,243.633 314.059,244.727 318.219,237.237 322.379,234.375 326.539,249.242 330.699,255.93 334.859,228.732 339.019,214.651 343.179,260.364 347.339,287.175 351.499,216.852 355.659,170.645 359.819,269.208 363.979,341.232 368.139,216.059 372.299,114.764 376.459,257.83 380.619,385.899 384.779,239.981 388.939,95.1682 393.099,226.527 397.259,371.992 401.419,269.153 405.579,140.463 409.739,209.009 413.899,308.166 418.059,270.552 422.219,204.974 426.379,220.929 430.539,257.437 434.699,253.011 438.86,236.36 443.02,236.491 447.18,242.468 451.34,243.21 455.5,241.646 459.66,240.762 463.82,240.935 467.98,242.512 472.14,242.855 476.3,239.359 480.46,238.265 484.62,245.756 488.78,248.617 492.94,233.75 497.1,227.062 501.26,254.26 505.42,268.342 509.58,222.629 513.74,195.818 517.9,266.14 522.06,312.347 526.22,213.784 530.38,141.76 534.54,266.933 538.7,368.228 542.86,225.162 547.02,97.0936 551.18,243.012 555.34,387.824 559.5,256.465 563.661,111 567.821,213.839 571.981,342.53 576.141,273.983 580.301,174.826 584.461,212.442 588.621,278.019 592.781,262.057 596.941,225.551 601.101,230.001 605.261,246.651 609.421,246.442 613.581,240.463 617.741,239.946 621.901,241.532 626.061,241.813 630.221,241.536 634.381,241.464 638.541,241.488 642.701,241.496 646.861,241.496 651.021,241.496 655.181,241.496 659.341,241.496 663.501,241.496 667.661,241.496 671.821,241.496 675.981,241.496 680.141,241.496 684.302,241.496 688.462,241.496 692.622,241.496 696.782,241.496 700.942,241.496 705.102,241.496 709.262,241.496 713.422,241.496 717.582,241.496 721.742,241.496 725.902,241.496 730.062,241.496 734.222,241.496 738.382,241.496 742.542,241.496 746.702,241.496 750.862,241.496 755.022,241.496 759.182,241.496 763.342,241.496 767.502,241.496 771.662,241.496 775.822,241.496 779.982,241.496 784.142,241.496 788.302,241.496 792.462,241.496 796.622,241.496 800.782,241.496 804.943,241.496 809.103,241.496" stroke-width="4" stroke-linecap="butt" stroke="#990000" fill="none"/>
   <polyline stroke-linejoin="round" points="143.497,241.496 145.161,241.496 146.825,241.496 148.489,241.496 150.153,241.496 151.817,241.496 153.481,241.496 155.145,241.496 156.809,241.496 158.473,241.496 160.137,241.496 161.801,241.496 163.465,241.496 165.129,241.496 166.793,241.496 168.457,241.496 170.121,241.496 171.785,241.496 173.449,241.496 175.113,241.496 176.777,241.496 178.441,241.496 180.105,241.496 181.769,241.496 183.433,241.496 185.097,241.496 186.761,241.496 188.425,241.496 190.089,241.496 191.754,241.496 193.418,241.496 195.082,241.496 196.746,241.496 198.41,241.496 200.074,241.496 201.738,241.496 203.402,241.496 205.066,241.496 206.73,241.496 208.394,241.496 210.058,241.496 211.722,241.496 213.386,241.496 215.05,241.496 216.714,241.496 218.378,241.496 220.042,241.496 221.706,241.496 223.37,241.496 225.034,241.496 226.698,241.496 228.362,241.496 230.026,241.496 231.69,241.496 233.354,241.496 235.018,241.496 236.682,241.496 238.346,241.496 240.01,241.496 241.674,241.496 243.338,241.496 245.002,241.496 246.666,241.496 248.33,241.496 249.994,241.496 251.658,241.496 253.322,241.496 254.986,241.496 256.65,241.496 258.314,241.496 259.978,241.496 261.642,241.496 263.306,241.496 264.97,241.496 266.634,241.496 268.298,241.496 269.962,241.496 271.626,241.496 273.29,241.496 274.954,241.496 276.618,241.496 278.282,241.496 279.946,241.496 281.61,241.496 283.274,241.496 284.938,241.496 286.602,241.496 288.266,241.496 289.93,241.496 291.594,241.496 293.258,241.496 294.922,241.496 296.586,241.496 298.25,241.496 299.914,241.496 301.578,241.496 303.242,241.496 304.906,241.496 306.57,241.496 308.234,241.496 309.898,241.496 311.562,241.496 313.227,241.496 314.891,241.496 316.555,241.496 318.219,241.496 319.883,241.496 321.547,241.496 323.211,241.496 324.875,241.496 326.539,241.496 328.203,241.496 329.867,241.496 331.531,241.496 333.195,241.496 334.859,241.496 336.523,241.496 338.187,241.496 339.851,241.496 341.515,241.496 343.179,241.496 344.843,241.496 346.507,241.496 348.171,241.496 349.835,241.496 351.499,241.496 353.163,241.496 354.827,241.496 356.491,241.496 358.155,241.496 359.819,241.496 361.483,241.496 363.147,241.496 364.811,241.496 366.475,241.496 368.139,241.496 369.803,241.496 371.467,241.496 373.131,241.496 374.795,241.496 376.459,241.496 378.123,241.496 379.787,241.496 381.451,241.496 383.115,241.496 384.779,241.496 386.443,241.496 388.107,241.496 389.771,241.496 391.435,241.496 393.099,241.496 394.763,241.496 396.427,241.496 398.091,241.496 399.755,241.496 401.419,241.496 403.083,241.496 404.747,241.496 406.411,241.496 408.075,241.496 409.739,241.496 411.403,241.496 413.067,241.496 414.731,241.496 416.395,241.496 418.059,241.496 419.723,241.496 421.387,241.496 423.051,241.496 424.715,241.496 426.379,241.496 428.043,241.496 429.707,241.496 431.371,241.496 433.035,241.496 434.699,241.496 436.363,241.496 438.027,241.496 439.692,241.496 441.356,241.496 443.02,241.496 444.684,241.496 446.348,241.496 448.012,241.496 449.676,241.496 451.34,241.496 453.004,241.496 454.668,241.496 456.332,241.496 457.996,241.496 459.66,241.496 461.324,241.496 462.988,241.496 464.652,241.496 466.316,241.496 467.98,241.496 469.644,241.496 471.308,241.496 472.972,241.496 474.636,241.496 476.3,241.496 477.964,241.496 479.628,241.496 481.292,241.496 482.956,241.496 484.62,241.496 486.284,241.496 487.948,241.496 489.612,241.496 491.276,241.496 492.94,241.496 494.604,241.496 496.268,241.496 497.932,241.496 499.596,241.496 501.26,241.496 502.924,241.496 504.588,241.496 506.252,241.496 507.916,241.496 509.58,241.496 511.244,241.496 512.908,241.496 514.572,241.496 516.236,241.496 517.9,241.496 519.564,241.496 521.228,241.496 522.892,241.496 524.556,241.496 526.22,241.496 527.884,241.496 529.548,241.496 531.212,241.496 532.876,241.496 534.54,241.496 536.204,241.496 537.868,241.496 539.532,241.496 541.196,241.496 542.86,241.496 544.524,241.496 546.188,241.496 547.852,241.496 549.516,241.496 551.18,241.496 552.844,241.496 554.508,241.496 556.172,241.496 557.836,241.496 559.5,241.496 561.165,241.496 562.829,241.496 564.493,241.496 566.157,241.496 567.821,241.496 569.485,241.496 571.149,241.496 572.813,241.496 574.477,241.496 576.141,241.496 577.805,241.496 579.469,241.496 581.133,241.496 582.797,241.496 584.461,241.496 586.125,241.496 587.789,241.496 589.453,241.496 591.117,241.496 592.781,241.496 594.445,241.496 596.109,241.496 597.773,241.496 599.437,241.496 601.101,241.496 602.765,241.496 604.429,241.496 606.093,241.496 607.757,241.496 609.421,241.496 611.085,241.496 612.749,241.496 614.413,241.496 616.077,241.496 617.741,241.496 619.405,241.496 621.069,241.496 622.733,241.496 624.397,241.496 626.061,241.496 627.725,241.496 629.389,241.496 631.053,241.496 632.717,241.496 634.381,241.496 636.045,241.496 637.709,241.496 639.373,241.496 641.037,241.496 642.701,241.496 644.365,241.496 646.029,241.496 647.693,241.496 649.357,241.496 651.021,241.496 652.685,241.496 654.349,241.496 656.013,241.496 657.677,241.496 659.341,241.496 661.005,241.496 662.669,241.496 664.333,241.496 665.997,241.496 667.661,241.496 669.325,241.496 670.989,241.496 672.653,241.496 674.317,241.496 675.981,241.496 677.645,241.496 679.31,241.496 680.974,241.496 682.638,241.496 684.302,241.496 685.966,241.496 687.63,241.496 689.294,241.496 690.958,241.496 692.622,241.496 694.286,241.496 695.95,241.496 697.614,241.496 699.278,241.496 700.942,241.496 702.606,241.496 704.27,241.496 705.934,241.496 707.598,241.496 709.262,241.496 710.926,241.496 712.59,241.496 714.254,241.496 715.918,241.496 717.582,241.496 719.246,241.496 720.91,241.496 722.574,241.496 724.238,241.496 725.902,241.496 727.566,241.496 729.23,241.496 730.894,241.496 732.558,241.496 734.222,241.496 735.886,241.496 737.55,241.496 739.214,241.496 740.878,241.496 742.542,241.496 744.206,241.496 745.87,241.496 747.534,241.496 749.198,241.496 750.862,241.496 752.526,241.496 754.19,241.496 755.854,241.496 757.518,241.496 759.182,241.496 760.846,241.496 762.51,241.496 764.174,241.496 765.838,241.496 767.502,241.496 769.166,241.496 770.83,241.496 772.494,241.496 774.158,241.496 775.822,241.496 777.486,241.496 779.15,241.496 780.814,241.496 782.478,241.496 784.142,241.496 785.806,241.496 787.47,241.496 789.134,241.496 790.798,241.496 792.462,241.496 794.126,241.496 795.79,241.496 797.454,241.496 799.118,241.496 800.782,241.496 802.446,241.496 804.111,241.496 805.774,241.496 807.439,241.496 809.103,241.496" stroke-width="4" stroke-linecap="butt" stroke="#0000ff" fill="none"/>
  </g>
  <clipPath id="cp00894690">
   <polygon points="0,690 894,690 894,0 0,0"/>
  </clipPath>
  <g clip-path="url(#cp00894690)">
   <polygon points="156.787,682.942 795.813,682.942 795.813,517.954 156.787,517.954" fill="#ffffff" shape-rendering="crispEdges"/>
   <polyline stroke-linejoin="miter" stroke-dasharray="16,0" points="156.787,682.942 795.813,682.942" stroke-width="0.5" stroke-linecap="square" stroke="#262626" fill="none"/>
   <polyline stroke-linejoin="miter" stroke-dasharray="16,0" points="156.787,517.954 795.813,517.954" stroke-width="0.5" stroke-linecap="square" stroke="#262626" fill="none"/>
   <polyline stroke-linejoin="miter" stroke-dasharray="16,0" points="156.787,682.942 156.787,517.954" stroke-width="0.5" stroke-linecap="square" stroke="#262626" fill="none"/>
   <polyline stroke-linejoin="miter" stroke-dasharray="16,0" points="795.813,682.942 795.813,517.954" stroke-width="0.5" stroke-linecap="square" stroke="#262626" fill="none"/>
   <polyline stroke-linejoin="round" points="160.79,536.957 180.806,536.957" stroke-width="4" stroke-linecap="butt" stroke="#00ff00" fill="none"/>
   <g font-family="FreeSans" font-weight="normal" xml:space="preserve" font-style="normal" font-size="29.7" transform="translate(184.809,551.957) rotate(-0,-0,-15)">
    <text y="-7" x="0 20 36 52 58 72 80 87 102 109 124 140 146 162 170 177 193 209 216 232 240 247 255 262 286 302 309 317 324 341 348 365 372 " fill="rgb(0,0,0)">Analytic solution at time t = 2.4</text>
   </g>
   <polyline stroke-linejoin="round" points="160.79,569.831 180.806,569.831" stroke-width="4" stroke-linecap="butt" stroke="#ff9999" fill="none"/>
   <g font-family="FreeSans" font-weight="normal" xml:space="preserve" font-style="normal" font-size="29.7" transform="translate(184.809,581.831) rotate(-0,-0,-12)">
    <text y="-1" x="0 22 38 62 78 88 95 110 126 132 139 154 170 176 192 200 207 223 239 246 262 270 277 285 292 316 332 339 347 354 371 378 395 402 419 426 447 454 462 478 485 501 508 525 532 549 556 " fill="rgb(0,0,0)">Numerical solution at time t = 2.4 with h = 0.1</text>
   </g>
   <polyline stroke-linejoin="round" points="160.79,601.577 180.806,601.577" stroke-width="4" stroke-linecap="butt" stroke="#ff0000" fill="none"/>
   <g font-family="FreeSans" font-weight="normal" xml:space="preserve" font-style="normal" font-size="29.7" transform="translate(184.809,613.577) rotate(-0,-0,-12)">
    <text y="-1" x="0 22 38 62 78 88 95 110 126 132 139 154 170 176 192 200 207 223 239 246 262 270 277 285 292 316 332 339 347 354 371 378 395 402 419 426 447 454 462 478 485 501 508 525 532 549 556 573 " fill="rgb(0,0,0)">Numerical solution at time t = 2.4 with h = 0.05</text>
   </g>
   <polyline stroke-linejoin="round" points="160.79,633.322 180.806,633.322" stroke-width="4" stroke-linecap="butt" stroke="#990000" fill="none"/>
   <g font-family="FreeSans" font-weight="normal" xml:space="preserve" font-style="normal" font-size="29.7" transform="translate(184.809,645.322) rotate(-0,-0,-12)">
    <text y="-1" x="0 22 38 62 78 88 95 110 126 132 139 154 170 176 192 200 207 223 239 246 262 270 277 285 292 316 332 339 347 354 371 378 395 402 419 426 447 454 462 478 485 501 508 525 532 549 556 573 590 " fill="rgb(0,0,0)">Numerical solution at time t = 2.4 with h = 0.025</text>
   </g>
   <polyline stroke-linejoin="round" points="160.79,665.068 180.806,665.068" stroke-width="4" stroke-linecap="butt" stroke="#0000ff" fill="none"/>
   <g font-family="FreeSans" font-weight="normal" xml:space="preserve" font-style="normal" font-size="29.7" transform="translate(184.809,677.067) rotate(-0,-0,-12)">
    <text y="-1" x="0 8 24 31 39 46 62 68 75 90 106 122 139 146 154 161 177 " fill="rgb(0,0,0)">Initial condition</text>
   </g>
  </g>
 </g>
</svg>
